<mxfile host="app.diagrams.net" modified="2023-07-28T11:52:58.474Z" agent="Mozilla/5.0 (Windows NT 10.0; Win64; x64) AppleWebKit/537.36 (KHTML, like Gecko) Chrome/111.0.0.0 Safari/537.36 OPR/97.0.0.0" etag="IZpFFbIIDRV3g86jJO65" version="21.6.5" type="device">
  <diagram name="Page-1" id="o8tgkCk_S3iYbFRcMLZQ">
    <mxGraphModel dx="2010" dy="665" grid="1" gridSize="10" guides="1" tooltips="1" connect="1" arrows="1" fold="1" page="1" pageScale="1" pageWidth="850" pageHeight="1100" math="0" shadow="0">
      <root>
        <mxCell id="0" />
        <mxCell id="1" parent="0" />
        <mxCell id="gXFku2u7cFtVppEHvoC2-30" value="" style="rounded=0;whiteSpace=wrap;html=1;" vertex="1" parent="1">
          <mxGeometry x="149.24" y="308.75" width="120" height="60" as="geometry" />
        </mxCell>
        <mxCell id="gXFku2u7cFtVppEHvoC2-29" value="" style="rounded=0;whiteSpace=wrap;html=1;" vertex="1" parent="1">
          <mxGeometry x="150" y="175" width="180" height="80" as="geometry" />
        </mxCell>
        <mxCell id="gXFku2u7cFtVppEHvoC2-31" style="edgeStyle=orthogonalEdgeStyle;rounded=0;orthogonalLoop=1;jettySize=auto;html=1;exitX=1;exitY=0.5;exitDx=0;exitDy=0;entryX=0;entryY=0.5;entryDx=0;entryDy=0;" edge="1" parent="1" source="gXFku2u7cFtVppEHvoC2-3" target="gXFku2u7cFtVppEHvoC2-29">
          <mxGeometry relative="1" as="geometry" />
        </mxCell>
        <mxCell id="gXFku2u7cFtVppEHvoC2-32" style="edgeStyle=orthogonalEdgeStyle;rounded=0;orthogonalLoop=1;jettySize=auto;html=1;exitX=1;exitY=0.75;exitDx=0;exitDy=0;entryX=0;entryY=0.5;entryDx=0;entryDy=0;" edge="1" parent="1" source="gXFku2u7cFtVppEHvoC2-3" target="gXFku2u7cFtVppEHvoC2-30">
          <mxGeometry relative="1" as="geometry" />
        </mxCell>
        <mxCell id="gXFku2u7cFtVppEHvoC2-49" style="edgeStyle=orthogonalEdgeStyle;rounded=0;orthogonalLoop=1;jettySize=auto;html=1;exitX=0.5;exitY=1;exitDx=0;exitDy=0;entryX=0;entryY=0.25;entryDx=0;entryDy=0;" edge="1" parent="1" source="gXFku2u7cFtVppEHvoC2-3" target="gXFku2u7cFtVppEHvoC2-28">
          <mxGeometry relative="1" as="geometry" />
        </mxCell>
        <mxCell id="gXFku2u7cFtVppEHvoC2-3" value="" style="shape=image;verticalLabelPosition=bottom;labelBackgroundColor=default;verticalAlign=top;aspect=fixed;imageAspect=0;image=data:image/png,iVBORw0KGgoAAAANSUhEUgAABQEAAAUBCAYAAAA8ekdsAACAAElEQVR42uzdC5TkZXngf2bGASXq8A8QQRGN2yh2MjNVb/+qinbWnE6MhmjAW9rLERETyWICRsmaQGDXnNHgGkgOBFEi5O94zQUlUXcVUPECLmBUXPGAHmEGuWQUCIKQYbjN7vuMJWGcW1/q8qt6P99zPmfM5QjTVfU+7/t2d9Uee0iSJEmSJEmSJEmSFtWSRqOxT7PZfNrU1NTKqqrW5D9fkL0ke112XErpzfl//2f5z3fl//msbF3XP3d9If/fvpj/vDr7Zva97MauW7K7HmVL9n8XacvP/Hfe8qh/3ve6/w5Xd/+dvvCof8+f/nufFX+X7t8p/m7/pft3jb/zC7pfg5XxNYmvTXyNPE0kSZIkSZI07JY0m839p6amDs3+c1VVR6aUXp//84n5z3fkP8/JPppdlF2VXZfdmt3Tgwu5UtzT/Zpd1/0aXtT9mp7T/RrH1/r18bWPxyAei3hM9nCBKEmSJEmSpJ01MzPz2Eaj8fSU0mFVVb24+xN5b8vOzf/5guzL2bXZbT366Tr6Y0v3Mbq2+5hdEI9hPJbxmMZjG49xPNbxmHvmS5IkSZIkjUdLp6amDmzlur9++vvZO7MPVFX1ufznd7q/4uoCrUzx2H+n+1z4QPe5Ec+Rl3SfMwfGc8jLSJIkSZIkaYhNT08/Ln4VNKX0G9nvxa+KZh+squpL+X+/IXvQRReLFM+hDfGciudW9zkWz7XfiOdePAe9EiVJkiRJkhbX0lar9dRms/krKaVjpqam1mYfzv/5K/nPjS6oqImN3efkh+M5Gs/VeM7Gc3cPP0koSZIkSZL0k1avXv2UqampX00pHZv/PD37p+ya7H4XTIy4+7vP5XhOn959jv9qPOe98iVJkiRJ0tg1MTGxV0pp1dTU1Gz237uf9np19u8uiijUv3dfAx/tviZm4zUSrxUrhiRJkiRJqnXxqatTU1Opqqqjs7/I//l/Zuuzh136wJzEa+WGeO3EayheS/Ga8onGkiRJkiRp4M3Ozi5LKT07e2X3vfri1x2/57IP+no5+L3uay3ee/CV8RqM16IVSZIkSZIkLbpOp/PElNJzq6o6fmpq6rz8n7+a/9zkUgZqYVP3NXlevEbjtRqvWSuXJEmSJEnaac1mc/+U0m9MTU2dlF3Q/VVeFy0wetZ3X8MnxWs6XttWOEmSJEmSCqzdbu+bUjq8qqpTpqamLsxucnECYy1e4xfGaz5e+7EGWAklSZIkSRqjpqenH5cP/muyt+TD/99NTU1d70IEiLUg1oRYG2KNiLXCiilJkiRJ0ojUaDQO6X6q6Huzq7OHXHYAc/BQd814b6whsZZYUSVJkiRJqkH5sL53s9n8lfznyfnQ/sn8520uMoAeuq27tpzcXWv2tvJKkiRJktT/S7/9spdkZ2RX+Sk/YAg/LXhVdw2KtWg/K7MkSZIkSYus0Wg8PaV0VFVVf5MP29e6gABq6NpYo2KtijXLyi1JkiRJ0m5qtVpPzQfpY/Khel12o8sFYATF2rUu1rJY06zskiRJkqTi63Q6B8VPz+QD8/k+tRcY108hjjUu1rpY86z8kiRJkqSxLx+EV8T7aFVV9e7853UuB4ACXdddA+M9BVeYDJIkSZKkkW9ycnLPfNidSSm9o/tm+g+7AAB4RKyJV8YaGWtlrJkmhyRJkiRpJMqH2Yl8mD0++2Q+3N7rkA8wZ/fG2hlraKylJookSZIkqTatWbPmCfnAemQ+vJ6TrXeIB+iZWFPPiTU21loTR5IkSZI00Nrt9jNTSm/OB9PP5QPqAw7qAH33QKy5sfbGGmwSSZIkSZJ63sTExF758Pn8fAg906f4AtTmU4fPjLU51miTSpIkSZK0oPLhcr+U0jH5zwu9tx9Avd9LMNbq7pq9nwkmSZIkSdpl3V/zfWs+RH7ZJ/kCjOwnDn851nK/NixJkiRJ+mlL8kHxsOxd+dB4ncMzwNi5Ltb4WOtjzTf2JEmSJKmQZmdnlzWbzeflA+HZ+XB4qwMyQDFujbU/ZkDMAhNRkiRJksaseNP4fPD7rexv8yHwDgdhgOLdETMhZoMPFpEkSZKk0b/4O6Kqqg/lw97dDrwA7MTdMStiZrgQlCRJkiQXfwC4EJQkSZIkDaN8YFueD2uHu/gDoE8XgofHrDFxJUmSJGnwLc2Hsudm5+aD2e0OqgD02e0xc2L2xAwyhiVJkiSpj+XDVz6HTZ2e3eRACsCQxAw6PWaSySxJkiRJParRaDy9qqpT8oHrOw6eANTMd2JGxawysSVJkiRpnuVD1YqU0rH5YPUlB0wARkHMrJhdMcNMckmSJEna+cXf8nyAOjL/eUG22YESgBEVM+yC7kzzgSKSJEmSFKWUVmV/lQ9KP3RwBGDM/DBmXMw6E1+SJElScbXb7X2rqjo+H46+4YAIQCG+EbMvZqCdgCRJkqSxbXZ2dlk+/LwwpfSxfBC632EQgELdH7MwZmLMRjsESZIkSWNRs9l8Wj7wrM1udvADgG3EbFwbs9KOQZIkSdLINTk5uWc+1Mxml2RbHPIAYJe2dGfmbMxQOwlJkiRJta6qqmflA8xfZrc70AHAgsQM/cuYqXYWkiRJkmpT/MRCSukV+cByqYMbAPTUpTFj/XSgJEmSpKHVbrd/MR9OTst+6JAGAH0Vs/a0mL12IJIkSZIG0dKqqo5MKX3ae/0BwODfOzBmcMzimMm2JZIkSZJ6Wrvd3jcfPP4k2+AABgC1EDP5T2JG26lIkiRJWlQppXy+mHp/ttlhCwBqKWb0+2Nm27lIkiRJmnPdD/o4Kh8ornSwAoCRcmXMcB8kIkmSJGmnrVq16hfyweFt+QCx0SEKAEbaxpjpMdvtcCRJkiRtraqqZj4srMvud2gCgLESs31dzHo7HkmSJKnAZmdnl+UDwcuzLzkgAcD4i5kfsz/2AHZCkiRJ0pg3OTn5+HwQ+EOf8gsARX+q8B/GnsDOSJIkSRqzOp3OQXnDf3p2l8MPANDdE5weewQ7JUmSJGnESynl/f3UR7IHHXYAgB2IPcJHYs9g5yRJkiSNVkuqqnph3tBf6mADAMzDpbGHiL2E7ZQkSZJU0/LGfXneuL82/3mNQwwAsAjXdPcUy+2wJEmSpJrU/bCPE7ObHFoAgB6KvcWJPkREkiRJGmLNZnP/vDE/LfuRQwoA0Eex1zgt9h52YJIkSdKAypvwg1NKZ+c/73MoAQAG6L7uHuRgOzJJkiSpT+VN97PzpnudT/oFAGrwicLrYm9ihyZJkiT1qGazWeU+njfbWxw6AIAa2RJ7lNir2LFJkiRJCyyldFjeXF/kgAEAjICLYu9iBydJkiTNsaqqZvIm+osOEwDAqIk9TOxl7OgkSZKknZQ3zYfnzfNlDhAAwBi4LPY2dniSJEnStpd/VzosAABj6EqXgZIkSXL55/IPAHAZKEmSJLn8AwBwGShJkiS5/AMAcBkoSZIkDbP4hDwf+AEAsOMPEPFpwpIkSRrpUkqHZZ+1uQcA2LXYM8XeyQ5SkiRJI1NVVc28if2EDT0AwLwvAz8Reyk7SkmSJNX58u9ZefP6DzbwAACL9g+xt7LDlCRJUm3qdDoH5Y3q+dlDNuwAAD0Te6vzY69lxylJkqSh1W63980b0zOy+2zSAQD6JvZaZ8Teyw5UkiRJA2tycvLxeSN6anaXTTkAwMDE3uvU2IvZkUqSJKlvzczMPCZvPN+YbbQJBwAYmtiLvTH2ZnaokiRJ6mkppZflzeZ3bboBAGrju7FHs1OVJEnSomu1Ws/Jm8uv2GQDANRT7NViz2bnKkmSpHnXbrefWVXVx22sAQBGQ+zdYg9nJytJkqS5XP7tm1I6O28kH7SZBgAYOQ/GXs4nCUuSJGmHTU5O7pk3jX/kE38BAMbmk4T/KPZ4drqSJEnaWlVVv503iTfYLAMAjJ0bYq9nxytJklRwrVzeGF5ucwwAMPYuj72fHbAkSVJBNZvNJ+eN4DqbYQCA4qyLvaAdsSRJ0hg3MzPz2LzxOzm7xwYYAKBYsRc8eWJiYi87ZEmSpDErpfTSvNlbb9MLAEDX+tgj2ilLkiSNQVVV/XLe4F1qkwsAwE5cGntGO2dJkqQRLG/mVmR/nT1kYwsAwG481N07rrCTliRJGo2WVFX1O3kDd5vNLAAA83Rb7CVjT2lbLUmSVNOazWaVN25X2bwCALBIV8Xe0g5bkiSpRuVN2n7ZedkWG1YAAHpkS3ePuZ8dtyRJ0nBbklI6Nm/M7rBJBQCgT+6IPecefkVYkiRp8LVarUbekF1hUwoAwIBcEXtQO3FJkqQB1Ol0npg3YGf51F8AAIb0KcJnxZ7UzlySJKlPVVX1qrzp2mjzCQDAkG2MvakduiRJUm8v/56RN1oX2WwCAFAzF8Ve1Y5dkiRpEeVN1fLspGyTDSYAADW1qbtnXW4HL0mSNM9ardZz8kbqGptKAABGxDWxh7WTlyRJmkONRmOflNK5eRO1xUYSAIARsyX2srGntbOXJEnaSXnD9DIf/AEAwDh8cEjsbe3wJUmSHlXeJB2YXWizCADAmIk97oF2/JIkqfSW5E3RG7K7bBABABhTsdd9Q+x9bf8lSVJxNRqNQ1JKX7QpBACgBLH3jT2wk4AkSSqi2dnZZXkD9Na8EdpkMwgAQGE2xV449sROBpIkaWzLm55Dsytt/gAAKFzsiQ91QpAkSWPVzMzMY6qqOiVvdO634QMAgK3ujz1y7JWdGCRJ0siXNzcrs6/Z5AEAwA7FXnmlk4MkSRrJ4juaeTNzavagjR0AAOxS7JlP9VOBkiRppGo2m5N++g8AAOb/U4Gxl3aikCRJte5Rn/y72QYOAAAWZLNPEJYkSbWt0WgckjcrX7FpAwCAxYu9deyxnTQkSVJdWpI3KSdkm2zWAACgp2KPfULsuR07JEnS0Fq9evVT8qbkEpszAADoq0ti7+0EIkmSBl5VVa/Km5E7bcgAAGAg7ow9uJOIJEkaSI1GY5+8AfmoTRgAAAzFR2NP7mQiSZL6VrPZfF7edNxi4wUAAEN1S+zNnVAkSVJPm5iY2CtvNM6w2QIAgFo5I/bqTiySJGnRpZSenTcXV9tgAQBALV0de3YnF0mStNCW5A3FcdkmGysAAKi12LMfF3t4xxhJkjTnms3m/nkT8SmbKQAAGCmfir28E40kSdptVVU9P28eNtpAAQDASNoYe3onG0mStMPyZmF59s5si40TAACMtC3dvf1yJx1JkvRI7Xb7F/MG4QqbJQAAGCtXxF7fiUeSJMWn/74ibw7utkECAICxdHfs+Z18JEkqtOnp6cflDcF5NkUAAFCE8+IM4CQkSVJB5Q3Aodk1NkIAAFCUOAMc6kQkSVIBpZSOyoP/XhsgAAAo0r1xJnAykiRpTOv++u/5Nj0AAECcDfx6sCRJY5Zf/wUAAPx6sCRJY1xK6TV+/RcAANjFrwe/xslJkqQRbWJiYq880N9jUwMAAMzBe+IM4SQlSdII1Ww2n5ZS+qqNDAAAMFdxhoizhBOVJEkjUFVVv5kH+J02MQAAwALcGWcKJytJkmra7Ozssjyw12ZbbFwAAIBFiDPF2jhjOGlJklSjpqenfz4P6YttVgAAgB66OM4aTlySJNWgqqqaeThvsEEBAAD6YEOcOZy8JEka7gXg0Xko32djAgAA9NF9cfZwApMkacBNTk7umVI622YEAAAYlDiDxFnEiUySpAHUarUOyAP4cpsQAABgCC6PM4mTmSRJfayqqnYeurfaeAAAAEN0a5xNnNAkSepDKaVj8rDdbMMBAADUwOY4ozipSZLUo2ZmZh6TB+yZNhkAAEANnRlnFic3SZIWUbvd3jcP1c/bWAAAADX2+Ti7OMFJkrSA8iBdmW2woQAAAEZAnF1WOslJkjSPUkpH5AF6j40EAAAwQu6Js4wTnSRJc/sJwJOyh20gAACAERRnmZOc7CRJ2kkTExN7VVX1IZsGAABg1MXZJs44TnqSJD2qVqt1QB6UV9gsAAAAY3QR+L/jrOPEJ0lSrtlsrs4D8iabBAAAYAzdFGceJz9JUtHlgfiiKR8AAgAAjLc487zICVCSVOoF4JumfAAIAABQhjj7nOAkKEkqptnZ2WV5+J1jEwAAABTonDgTORlKksa6TqfzxKqqPmPwAwAApYozUZyNnBAlSWNZq9V6ah543zL0AQAApr4VZyQnRUnSuF0ANvKQu9WgBwAAeMStcVZyYpQkjUUppcPzcPuxAQ8AALCdH8eZyclRkjTS5YH2huwhgx0AAGCn4sz0BidISdIotiSl9A7DHAAAYG7iDBVnKcdJSdJINDk5uWceXh80xAEAAOZ9EfjBOFM5WUqSat2aNWuekAfXJYY3AADAgl0SZysnTElSLet0Ok/Kw+obBjYAAMCifSPOWE6akqRa1Wg0DslDar1BDQAA0DPr46zlxClJqkVVVbXzcLrdgAYAAOi52+PM5eQpSRpqKaXD81DaZDADAAD0zaY4ezmBSpKG9ROAr87D6AEDGQAAoO8eiDOYk6gkaaDlAfQmQxgAAGDg3uREKkka1AXgWoMXAABgaNY6mUqS+tbs7OyylNK5Bi4AAMBwxdkszmhOqpKknjY5OblnHjQXGLYAAAC1cUGc1ZxYJUk9KQ+Wvauq+owBCwAAUC/ds9reTq6SpMVeAK7Ivmy4AgAA1Fac2VY4wUqSFlSz2dw/D5KvG6gAAAC19/U4wznJSpLmVafTOSgPkWsNUgAAgJFxbZzlnGglSXMqpTSRh8d6AxQAAGDkrI8znZOtJGmXtdvtZ+ahcYvBCQAAMLJuibOdE64kaYflQbEyu93ABAAAGHlxtlvppCtJ2qZWzgUgAADAeF0ENpvNyolXkvTTnwDsZHcbkAAAAGMnznodJ19JKryU0q/lgXCPwQgAADC27omznxOwJJV9AbjJQARgTN21AxuzG7s27uT/x9cOgHG0yUWgJLkABIDaHFCy71dV9S/5z4uyD2dnZWuz/5rn1+9lr8z/99/M1rRarUbukOzp7XZ73/znPnnMLenBqFwS/13d/86nxz8j/lnxz4x/dvw7xL9L/Dt1/93O6v67XtT9d/++OQuAi0BJ0lBrNpvPczABYAiXe9dll2QfyN6Z/X4+iLy0+960B09PTz9u3GZu/J3i7xZ/x+7f9fe7f/cPdL8W15nJAAx6JseZ0MlYksa8qqqOzIv+AwYfAH1wU54zn8t/vi87Of/nV8Xl16pVq37BBN518TWKr1X3a3ZyfA27X8ubPK8A6IMH4mxoAkuSC0AA2Jn7s29mH0kpvS1+LTZ+TTb/z3ubtP0pvrbxNe7+CvLb4mvffQzu93wEwEWgJMkFIACL/sm+7FPZafETaq1W65dmZmYeY6rWo3gs4jHp/vTgad3Hyk8OAuAiUJJcABpyAOzUrXlefDI7JaV0eLPZ3N8EHc3isYvHMB7LeEzjsfX8BsBFoCSN/0HgeS4AAfgZm1NKX8neFZv+Vqt1gIk53sVjnB/rF8djHo99PAe8DgB49EWgTw2WpBEuFvEpnzgIwNTUnXkmfKKqqj9utVrPmZiY2MuULLt4DsRzIZ4T8dyI54jXCUDxNrkIlCQXgACMlnuz/5X91yzlsbDUZNRuWhrPle5z5n91n0NeSwAuAiVJLgABqJGHsyuy/55nwGE+vEOLLZ5D8VyK51T3ufWw1xmAi0BJUo3KC3Ynu8fgAhh7P8jW5U36K6enp3/eBFQ/a7fb+8ZzLZ5z3eee1yDAeIszZccElKSa1srlhfpuAwtgbH0rW5tSmsrL/hKTT0NqSTwH47nYfU56bQKMp7ubzWZl7ElSzcoL9MrsdoMKYLx+zbeqqi/lP0/Mfz7DtFMdi+dmPEezL/u1YYCxE2fMlaadJNWkdrv9TBeAAGP1/n6fz45rNpv7m3IapVatWvUL8dztPoddCAKMyUVgnDlNOUkacimlibwo32IwAYy0Ldll2QmtVusA003jUDyX4zndfW5v8ToHGGm3xNnTdJOkIdXpdA7Ki/F6AwlgZH27qqo/jvXcVNO471niuR7Pea97gJG13p5FkoZQ/IpYXoSvNYgARvK9dc7qfriHVFzdDxU5y1uZAIyka71diSQNsLzwrsi+bgABjIyHsn+uqurF+c/lJpm0dT+zvPua+Ofua8RaATAa4iy6wiSTpP5vmPfufvqe4QNQf9/P/luz2XyyCSbtvHiNxGul+5qxdgDUX5xJ9zbBJKlPTU5O7llV1WcMHICR+Km/F+ale6npJc2rpfHa8dOBAPUXZ9M4oxpdktTjZmdnl+WF9gLDBqDW7/V3mjfMlnpT9wPQTvPegQC1dkGcVU0tSephKaVzDRiAWro6r9Gvn5mZeaxpJfW+eG3Fayxea9YbgPqJs6ppJUk9Ki+saw0XgFrZUlXVx/Om97mmlDTQb4o+N1578Rq0DgHUylpTSpIWfwH4JgMFoDbuq6rqbxqNxiEmlDS84jUYr8V4TVqXAGrjTSaUJC2wvLl9tUECUAs/ymvyn3c6nSeZTlJ9itdkvDbjNWqdAqjFh4W82nSSpHmWUjo8L6IPGCQAQ7Uxb2bfMjk5+XiTSapv8RqN12q8Zq1bAEP1QJxlTSZJmmN5E9vOi+cmAwRgeJd/eQP75unp6ceZStLoFK/ZeO26DAQYqk1xpjWVJGk3xXvc5EXzdoMDYChuyo7zSb/SaBev4Xgtd1/T1jaAwbvdeyhL0i6K97XJi+V6AwNg8D/5l/3+5OTknqaRND7Fazpe234yEGAo1ns/ZUnaQWvWrHlCXiS/YVAADNS/ZX/i136l8S5e4/Fa777mrX0Ag/ONOOuaRJK07XepLzEgAAbm3uztjUZjH1NIKqd4zcdrv7sGWAsBBuNiv20hST9pSUrpgwYDwEA8VFXVu5vN5v7Gj1RusQbEWhBrgnURoP/izBtnXxNIUtHlxfAdhgJA/+UD/yezZ5k8kn5arAmxNlgjAQZyEfgOk0dSseWF8A2GAUDffT37VVNH0i72ZL/aXSusmQD99QZTR1JxpZQO9ysoAH0Vnwb6urzkLjV1JM2hpbFmTPkkYYC+vjVLnIWNHEnF1Gq1Gnnx+7EBANAXD2an+yQ6SQsp1o5YQ7priTUVoPd+HGdiE0dSCReAT82L3q0WfoC+iE9aP9S0kbTYYi3prinWVoDeuzXOxqaNpLGt0+k8MS9237LgA/TcjSmll5k0knpdrC15jfm+dRag574VZ2STRtLYNTs7u6yqqs9Y6AF6+74yeW39i/zn3iaNpH4Va0x3rfF+zgA9FGfkOCubNJLGbfN4jkUeoKeuTCmtMmEkDapYc2Ltsf4C9NQ5JoykcboAfJOFHaB3byadD+J/sIdP/ZU0nJZWVXW8D3kD6KkTjBdJ43AB+KLsYYs6QE/8c7PZfLLpImnYxVoUa5J1GaAn4sz8ItNF0ihvDlfnheweCzrAot2RUnqNySKpbsXaFGuUdRpg0e6JM7TJImnkarVaB+RF7CYLOcCiXZA3hPubLJJq/I3f/WOtsl4DLNpNcZY2WSSNTBMTE3vlxesKCzjAotyezZoqkkalWLO6a5c1HGDhnxj8v+NMbapIGonyovUhizfAot/7z0//SRq5uj8V6L0CARZ3EfghE0XSKHwH+CSLNsDC3wsmb/p+1zSRNAbfFP5d7w0NsCgnmSaSaltK6QifBAywMHkN/Uo+ND/DNJE0RheBz4i1zRoPsLBPDI4ztmkiqXblBWql7/YCLMiD+aB8yuzs7DLTRNK4FWtbrHGx1lnvAeb/WyJx1jZNJNWmdru9b16YNligAeZtfT4ct00SSeNerHWx5ln3AeZtQ5y5TRJJQ29mZuYxeVH6vIUZYN7+IVthkkgqpVjzumufGQAwP5+Ps7dJImnYm7kzLcgA83JfSulYE0RSqcUaGGuheQAwL2eaIJKGuYE7xkIMMC/fbrVav2SCSCq9WAtjTTQXAObldSaIpIHXfV+XzRZhgDl/+u8HV61a9XMmiCT9pFgTY200IwDmbLP3k5Y06O/cHpAXn1stwABzcn/2RtNDknZcrJHdtdLMANi9W+NMbnpI6nuTk5N75kXncgsvwJx833drJWn3dX/L5PvmBsCcXB5nc9NDUl9LKZ1twQWYk4va7fa+Jockza1YM2PtND8A5vRWM2ebHJL6+R3aoy22AHNyWl42l5ockjTvlsYaao4A7F6c0Y0NSf24AGzmReY+Cy3ALm1KKb3S1JCkxRVraayp5grALt3XarUapoaknjU9Pf3zeXHZYIEF2KUbbcIkqXfFmhprq/kCsEsb4sxuakhadLOzs8vyonKxhRVgl+/J8sVms7m/qSFJvS3W1lhjzRqAXbo4zu6mhqRFlReTtRZUgF16b7bcxJCkvu1Hl3fXWjMHYOfWmhiSFlxVVb+ZF5ItFlOAHXo4O9G0kKSBXQae2F17zSCA7W2JM7xpIWneNZvNp+VF5E4LKcAO/XveZB1pWkjSwL9JfWSsweYQwA7dGWd500LSnJuYmNgrpfRVCyjADt0an5huWkjS0C4Cm7EWm0cAO3yv6q/Gmd60kDSn8sLxHosnwA5dvXr16qeYFJI03GItjjXZXALYofeYFJJ2W0rpNRZMgB1/6tqaNWueYFJIUj2KNTnWZvMJYIc/Efgak0LSTssLxaHZvRZMgO18YHJyck+TQpLqVazNsUabUwDbibP9oSaFpO2anp5+XF4grrFQAmznnXmZXGJSSFJtWxJrtXkFsJ1r4qxvTEjaprw4nG+BBNjGw9kJJoQkjcx+9oTu2m2GAfyH800ISY+UUjrKwgiwjQeqqnq5CSFJo1Ws3bGGm2MA27w/4FEmhCTvAwiwvU35EPnrJoQkjexF4K/HWm6eAXh/QEndvA8gwHbuyjomhCSN/De6O9013WwD8P6AkvIicJ6FEOARP8hWmg6SNDZ73ZXdtd2MA/iJ80wHqcBSSq+wAAI8YkNeFydMB0kauz3vRKzx5hzAI+8P+ArTQSqodrv9i/nFf7cFEGCr6zudzkGmgySNZ7HGx1pv3gFsdXfcCZgOUgHlF/zy7AoLH8BP3hslO9B0kKSx3wMf6L2wAR4RdwLLTQdp/DdA77TgAfzkArDZbO5vMkhSGcWa7yIQ4BHvNBmkMa6qqufnF/oWix2AC0BJchEIULQtcUdgMkjju+HZaKEDmLqq0WjsYzJIUpnFDIhZYB4CTG30jXFp/FqSX9yfssABbD30rTAWJKnsYha4CATY6lOmgjRem5zjLGwAU//HBaAk6WcuAv+P+QgwdZypII1BKaVn5xf0Josa4D0A/aqDJGnbvEcgwFab4u7AVJBGuImJib3yi/lqCxrgAtAFoCTJRSDALlwddwimgjSi5RfxGRYyoHDXdzqdJ5kIkqRdFbMiZoa5CRTuDBNBGs3vaD7PAgYU7oZ8qDvIRJAkzfEi8KCYHeYnULK4SzARpBGq0Wjsk1+8t1jAgIL9a0ppwkSQJM2nmB0xQ8xRoGC3xJ2CiSCNSPlF+1ELF1Cwf8tWmgaSpAXupVd2Z4mZCpTqo6aBNAJVVfUqCxZQsHuzjmkgSVrkRWCnO1PMVqBIcbdgGkg1bvXq1U/JL9Y7LVhAoR5IKf2aaSBJ6kUxU2K2mK9Aoe6MOwbTQKpnS/KL9BILFVCoh/Nh7aVGgSSpxxeBL40ZY84Chbo47hpMA6lm5RfnCRYooGDHmQSSpD7ts48zZ4GCnWASSDWq0Wgckl+YmyxOQKHebhJIkvp8Efh28xYo1Ka4czAJpBo0Ozu7LKX0FQsTUOgbFv//e/gVBUlS/1sSM8fsBUoUdw5x92AUSEMuvxjfalECCr0A/MzMzMxjTAJJ0iCKmROzxwwGCr0IfKtJIA2xZrM5mV+Mmy1IQIG+lu1tEkiSBlnMnu4MMouB0myOOwiTQBrSdyJtQIBC3dRqtQ4wCSRJwyhmUMwi8xgo8RvxfhNHGs53IU+1AAEF+nFKaZUpIEkaZjGLYiaZy0CBTjUFpMFeAK7MHrT4AIV5uKqqF5oCkqQ6FDMpZpP5DBQm7iJWmgLSAPJrwEDBb0b8B6aAJKlOxWwyowG/FiypX99xPMWCAxR4AXi2CSBJqulF4NlmNVCauJswAaQ+ll9oh2b3W3CAwi4APzs7O7vMFJAk1bGYUTGrzGygMHE3cagpIPVpc5FfYFdaaIDC3DA9Pf3zpoAkqc7FrIqZZW4DhbnSN+ulPpRSeqsFBijMPVVV/bIJIEkahWJmxewyv4HCfmvnrSaA1MMajcYh+cW1yQIDFOYlJoAkaZSK2WV+A4XZFHcWJoDUm5aklL5oYQEK+47i2yz/kqRRLGaYWQ4U5gtxd2ECSIv/buIbLChAYReAn7CJkCSNcPFN/E+Y6UBh3mD5lxZ3AXhgdpfFBCjpg0AajcY+JoAkaZSLWeaDQoDCxN3FgSaAtPBLwAstJEBB7ms2m6ut/pKkcShmWsw28x0oyIVWf2kBpZReZgEBCvs14Ndb/SVJY7anf70ZDxS2p3+Z1V+aR91fH9hoAQEK8j6rvyRpHIsZZ84DBdno7X2k+X3H8FwLB1CQr8/MzDzW6i9JGsdixsWsM++Bgn4a8FyrvzSHWq3Wc/KLZouFAyjEPY1G4xCrvyRpnItZFzPP3AcKsSXuNqz+0i7KL5Tl2TUWDKCg7xIeZfWXJJVQzDyzHyhI3G0st/pLO78EPMlCARTk/VZ+SVJh+/33m/9AQU6y8ks7qKqqZ+QXyCaLBFCI70xOTj7e6i9JKqmYfTED7QOAQmyKuw6rv7T9dwUvskAAhdjcbDZXW/klSSUWMzBmof0AUIiLrPzSo6qq6lUWBqCg9wF8s5VfklRyMQvtCYBSxJ2HlV/KdTqdJ+YXxUYLA1DIBuBzeelbYvWXJBXekpiJ9gZAITbG3YelX8WXXwxnWRCAQvxo9erVT7HyS5K0xx4xE2M22h8AhTjLyq+ia7VajfxCeMhiAPg1AEmSysvbAgEFeSjuQKz8KrUl+UVwhYUAKMRHLPuSJG1fzEj7BKAQV+zhrYFUYimlYy0AQCFubjQa+1j5JUnavpiRMSvtF4BCPiTwWCu/Svtu337ZHRYAoBAvsvJLkrTL88GL7BeAQsRdyH5WfpU05M/zwgcKsc6qL0nSnM4I6+wbgEK8z6qvImo2m1V+wm/xogcKcKtfA5YkaW51fy34VvsHoABb4m7Eyq9xLz4M5CoveMCvAUuSpJ/NrwUDBblqDx8SonGuqqrf8UIHfBqwJEnaxUWgTwsGihB3JFZ9jeswX5Hd5oUOFOD2dru9r5VfkqT5FzM0Zqn9BFCAuCNZYeXXOF4C/rUXOFDId/SOtupLkrTwYpbaUwCF+GurvsZtiP9yfmI/5MUNFODze3hvD0mSFlu8l/jn7SuAAjwUdyaWfY1N+Ul9qRc2UIDNKaUJq74kSYsvZmrMVvsLoACXWvU1LsP7pV7QQCFOtepLktS7YrbaXwAliLsTq75GuomJib3yk3m9FzRQgGsnJyf3tPJLktS7YrbGjLXPAAqwPu5QrPwa5e/cneyFDJSg2Ww+z6ovSVLvixlrrwEU4mSrvkZ1WD85P4Hv8SIGCnCBVV+SpP4Vs9Z+AyhA3KEcaNXXKA7qdV7AQAE2ZQdb9SVJ6uvZ4uDuzLX3AMbdOqu+RqpWzgsX8GEgkiSphxeBPiQEKMGWuFOx6muUBvTlXrhAAW6YmZl5rFVfkqT+FzM3Zq/9B1CAy636GomqqvptL1igBHm9e7FVX5KkgZ41XmwPAhRy1ni5VV+1bnJyck/fnQMK8QWrviRJgy9msH0IUMJvHcUdi1VfdR7If+SFCpTwPh0ppSmrviRJgy9mcMxi+xGgAH9k1Vcta7fb++Yn6F1epMC4y4ePD1r1JUka6kXgB+1JgALcFXctVn3VcRCf7QUKFOC+TqdzkFVfkqThFbM4ZrJ9CVDADyCcbdVXrWq328/MT84HvUCBAobwO6z6kiQNv5jJ9iZAAR6MOxervmpTVVUf98IECnDHmjVrnmDVlyRp+MVMjtlsfwIU8EnBH7fqqxa1Wq3neFEChQzft1j1JUmqTzGb7VGAEsTdi1VfQy+l9BUvSKAAN09PTz/Oqi9JUn2K2Rwz2j4FKMDlVn0N+wLwZV6IQCHvBXisVV+SpFqeSY61VwEKOZO8zKqvoTQzM/OY/CT8rhciUIDrY82z8kuSVNtzyfX2K0ABvutcoqGUn3xv9AIECnkvwFdZ9SVJqm8xq+1ZgEK80aqvgTY5Ofn4/MTb6MUHFODavOwttfJLklTrlsbMtm8BCrAx7mQs+xpY+Ul3qhce4KcAJUlSXfLTgEBBTrXqayC12+198xPuLi86wE8BSpKkGuWnAYFS3BV3M5Z99b38ZDvDCw4o5NO3jrLqS5I0OlVV9Vp7GKAQZ1j11dc6nc5B+Yl2nxcb4BOBJUlS3fJJwUBB7os7Giu/+lZ+kp3vhQYU8lOAx1j1JUkavWKG28sAhTjfqq++VFXVs/IT7CEvMqAAN/kpQEmSRrM8x5fHLLefAQrwUNzVWPnVj2H6D15gQCFOtOpLkjTSZ5cT7WeAElRV9fdWffW0/KRqenEBhfjR5OTk4638kiSNbjHLY6bb1wCFXAQ2rfzqWSmlT3hhAYUM0D+36kuSNPrFTLe3AQp5P/NPWPXVqwvAw7yogII+YetJVn5Jkka/mOkx2+1vgEIuAg+z8qsXl4Cf9YICCvE+q74kSeNTzHb7G6CQS8DPWvW1qKqqmvFiAgoanM+28kuSND7FbLfHAQp6a6MZK78W852zy7yQgEJcYtWXJGkszzSX2OcAhbjMqq+FftfscC8goKCfAjzCyi9J0liea46w1wEKOtccbuXXQr5jdqUXEFCIG/Kyt9TKL0nSWLY0Zr39DlCIKy37mu93y/wUIFDSe2e8xcovSdL4FrPengfw04DSDvJTgEBB7s1WWPklSRrr882K7sy39wH8NKD00/wUIFCY91n5JUkq4iLwffY9gJ8GlLYdjn4KEChpOE5Z+SVJGv9i5tv7AH4aUPqPweinAIGSfN3KL0lSOcXst/8B/DSgtIefAgSKG4q/Z+WXJKmcYvbbAwF+GlAGop8CBMpyz5o1a55g9ZckqZxi9scewD4I8NOAKrr85LjMCwTwgSCSJGnMzz0+IAQoyWVWfm1TVVUzXhhAYd8RO8zqL0lSecUewF4IKEnc+Vj99ehB+EUvDKAg37XyS5JUbrEXsB8CCvIFK798Jwwo9acA/9TqL0lS0WegP7UnAvwmlEr8LthFXhBAQbZkB1v9JUkq+gx0cHdPYG8ElOIiq3/hNZvNygsBKMznrf6SJCn2BPZFQEniDsjqX3BVVX3cCwEozOus/pIkKfYE9kVAYR8Q8nGrf6GllJ7tR+CBwtw3OTn5eBNAkiTFniD2BvZHQElvjRR3QSZAmd/5WucFABT2Zrgfs/pLkqSfFnsDeySgMOus/uVdAMYb4T7oyQ8U9uPvLzcBJEnST4u9gT0SUJgHfFBied/xOtsTHyjMvdPT048zASRJ0k+LvUHsEeyTgMJ+Q+psE6CQms3m/t77Aihw0P2dCSBJkn622CPYKwGlvVd63A2ZAAWUH+zTPOGBAi8BjzABJEnSDi4Bj7BXAgp8q6Q/NwHGvO4nYP3IEx4ozN0TExN7mQKSJOlniz1C7BXsl4DC/CjuiEyBMS4/yCd6ogMFfpfr700ASZK0s2KvYM8EFOhEE2B8LwCXZzd5kgMFXgK+2hSQJEm7uAR8tT0TUKC4I1puCoznYHutJzhQoAeyFaaAJEnaWbFX6O4Z7J2A0n5g4rWmwPi1JD+413iCAwW62AiQJElzuAi82L4JKNA1cWdkCoxRVVW90BMbKNQbTQFJkjSHS8A32jcBhf404G+aAuM10C71xAZK1Gw2n2wKSJKk3RV7BnsnoFCXmgJjUkppyhMaKNQ3TQFJkjTXYu9g/wSUKO6OTIHxGGQf8YQGCvVOU0CSJM3j7PRO+yegUB8xBUa8TqdzUH4gH/RkBgr9VeBfMQkkSdJci72DPRRQqAfjDskkGO3vZJ3uiQwU6q6ZmZnHmASSJGmuxd4h9hD2UUChTjcJRrTJycnHG2BAwe9p8TGTQJIkzbfYQ9hLAaX+IEXcJZkEI1h+8P7QExgoVVVVv2MSSJKk+Zb3EL9rLwUU7A9NghFrdnZ2WX7gNnjyAgU72DSQJEnzLfYQ9lFAwTbEnZJpMFrfvXq5Jy5QsOtNAkmStIiLwOvtp4CC31rpZSbBaF0CfskTFyjY+SaBJElaxCXg+fZTQMFvrfQlk2B0LgCbnrRA4UPrVaaBJElaxJnqVfZUQOFnqqZpMBrftVrnCQuUrNVqHWAaSJKkhRZ7CXsqoHDrTIOat2rVql/ID9T9nqxAwb5tGkiSpMUWewr7KqBg98cdk2lQ41JKb/NEBQp3jmkgSZJ6cAl4jn0VUPgHhLzNNKhpk5OTe+YHaaMnKlD4e1e82kSQJEmLLfYU9lZA4TbGXZOJUMNSSkd5ggJMHWwiSJKkxRZ7CvsqwE8DpqNMhHoOqSs9QYHC3WwaSJKkHp6xbra/Agp3pWlQs1JKU56YgF8Frv7eRJAkSb0q9hb2WICfBkxTJkK9vkP1fk9MgKk3mQiSJKmH56w32V8BTL3fRKhJ7XZ73/yAbPakBHyHyneoJElS7/IbVwBbbY67J1OhHt+d+hNPSICp+2ZmZh5jKkiSpF4Ve4vYY9hnAd56qfpjU2H4Lc0PxgZPSABvWCtJknqfD2AE2GpD3EGZCkOsqqojPREBtn5n6t2mgiRJ6sOZ6932WgBbz1xHmgpDLKX0aU9EgK0D6WhTQZIk9eES8Gh7LYCt78H+aVNhSLXb7V/MD8IWT0SAqf/barV+yWSQJEm9LvYY9loAW22JuyiTYQjlL/5pnoAAW/377OzsMpNBkiT1uthjxF7Dfgtgq9NMhgE3OTm5Z/7C/9CTD2Cry0wGSZLUr2KvYb8FsNUP4k7KZBhgKaVXeOIBPOIck0GSJPXxEvAc+y2AR94b8BUmw2CH0KWeeACPOM5kkCRJfTx/HWe/BfCIS02GAVVV1bM84QC2+VCQ55gOkiSpX8Vew54L4D/E3ZTpMJjvQv2lJxzAf+h0Ok80HSRJUr+KvYY9F8A2/tJ06HPdDwS53ZMN4BEbTAdJktTvYs9h3wXwiNt9QEj/B8+sJxrANm9K+wnTQZIk9bvYc9h7AWxj1nTo7yXgJZ5kANs4zXSQJEkDOIudZt8FsI1LTIc+1Ww2n5a/wFs8yQC2+UnAY0wISZLU72LPYe8FsI0tcVdlQvTnO09rPcEAtpWHzrQJIUmS+l3sOey9ALaz1oTocbOzs8vyF/ZmTy6Aba1cufL/MyUkSVK/iz2HvRfAdm6OOytToodVVfVCTyyA7dxmQkiSpEEVew/7L4BtxZ2VCdHDUkof88QC2M5lJoQkSRrgJeBl9l8A271P+8dMiB7Vbrf3zV/U+z2xALYbNn9rSkiSpEEVew97MIDt3B93V6ZED6qq6nhPKIAdXgL+qSkhSZIGeAn4p/ZgADv8leDjTYkelL+Y3/CEAtjhoHm1KSFJkgZV7D3swQB26OumxOK/07TKEwlgpz8JeJhJIUmSBng+O8weDGCn57NVJsXihsxfeSIB7Fin03mSSSFJkgZV7D3swQB2egn4VybFAstfwOXZDz2RAHZok0khSZKGcE7bZB8GsENxh7XcpFhAVVUd6QkEsFPXmhSSJGkIl4DX2ocB7PR92480KRY2XC7wBALY6Y+af9qkkCRJgy72IPZiADv1jybF/C8AV2SbPXkAdvodpr8xLSRJ0qCLPYi9GMBOxV3WCtNift9dOtYTB2CXl4B/ZlpIkqQhXAL+mb0YwC5/a+tY02J+g+VLnjgAuxwsv2daSJKkQRd7EHsxgF3+wMaXTIs51mg0nu5JA7DbwfJCE0OSJA262IPYiwHsWtxtmRhzGyqneMIA7Fqr1WqYGJIkadDFHsReDGC3P7Rxiokxh/IX6zueMAC71ul0nmRiSJKkQRd7EHsxgN26zsTYTSmlKU8UgN160MSQJEnDKvYi9mMAu30f9ykTY9fD5HRPFIDd+oGJIUmShnhu+4H9GMBunW5i7Lyl+Qt0kycJwG5928iQJElDvAT8tv0YwG7dFHddpsYOSik91xMEYE4uNTUkSdIQLwEvtR8DmNOvBD/X1NjxJeC5niAAc/KPpoYkSRriJeA/2o8BzOkS8FxTY/shsjy73RMEYE7eY3JIkqQhnt/eYz8GMCdx17Xc5HhUKaXDPTEA5mytySFJkoZ4CbjWfgxgzj8NeLjJ8aiqqvqQJwbAnIfIm00OSZI0rGIvYk8GMDdx52VydJuYmNgrf1Hu9sQAmPMl4DGmhyRJGuIl4DH2ZABzdnfcfZkePxkgR3hCAMzrEvClpockSRriGe6l9mQA8zrDHWF67OFXgQHmq9lsPs/0kCRJwyr2IvZkAH4leF75VWCA+WvlHD8kSdKwir2IPRmAXwmeV34VGGD+2u32Mx0/JEnSsIq9iD0ZgF8Jnld+FRhgQT8JeIDjhyRJGlaxF7EnA/ArwXPOrwIDLNgKxw9JkjSsYi9iPwbgV4LnXErptzwBAObP0UOSJNXgItC+DGD+vxL8W6VeAv6tJwDAvD3s2CFJkmpwCfiwfRnAvC8B/7a4gTE7O7ss/+Xv8AQAmLe7HDskSVINLgHvsi8DmLc74k6sqIHRbDaf54EHWJDbHTskSVINLgFvty8DWNBPA/5aUQMj/4XP9sADLMiNjh2SJKkGl4A32pcBLOgS8OyS5sWS/Je+1QMPsCDfceyQJEk1uAT8jn0ZwILcGndjRQyLlNJhHnCABfumY4ckSarBJeA37csAFvzTgIeVcgn4Lg84gEtASZLkEhCg0EvAd5UyLK7zgAO4BJQkSS4BAQp13dgPina7/UwPNMCiXO3YIUmSanAJeLV9GcDCxR3ZWA+KlNJbPdAAi/qx8S86dkiSpBqc7b5obwawqLPdW8f9u0Vf9kADuASUJEkuAQEK9+VxvgDcL3vYgwzgElCSJLkEBChc3JHtN65D4hgPMIBLQEmS5BIQgK3nu2PGckjkv9yFHmAAl4CSJMklIABbXTh2A2JiYmKv/Be714ML4BJQkiS5BARgq3vjzmysBkRVVc/3wAIsXl5P/8WxQ5Ik1eCM9y/2ZgA9OeM9f6wGRP5LnemBBeiJbzp2SJKkGpzxvmlfBtATZ47bgLjegwrgElCSJLkEBGAb3xub4dBut5/pAQVwCShJklwCArC9uDsbi+GQUnqzBxSgZ77t2CFJkmpwCfht+zKAnn0A5JvHYjhUVfU5DyhAz9zo2CFJkmpwCXijfRlAzz4c5HMjPxjWrFnzhPyXecADCtAz/+rYIUmSanAJ+K/2ZQA980DcoY30YKiq6kgPJEBP3eXYIUmSanAJeJd9GUBPfxrwyFEfDOd4IAF6arNjhyRJqsFZb7N9GUBPnTPqg2G9BxGgtxw7JElSDc569mUAvXXDyA6FlNKEBxCg91atWvVzjh6SJGlYxV7EngygL58SPDGSg6GqquM9gAC9126393X8kCRJwyr2IvZkAH15X8DjR/US8JMeQIC+DIZnOH5IkqQhnvWeYU8G0Jez3idHbihMTk7umf/l7/UAAvReq9VqOH5IkqRhFXsRezKAvrg37tRG7TtDMx44gL59d2jG8UOSJDnvATjvDb2U0js8cAB9GwpHOn5IkqQhXgIeaU8G0LcPB3nHSA2F/C99pQcOoG+XgK91/JAkSUO8BHytPRlA31w5SheAK7KHPWgAffvO0B84fkiSpGEVexF7MoC+iTu1FaNyCfgSDxhAX38S8BTHD0mSNKxiL2JPBtBXLxmVgfBuDxZAX53p+CFJkoZV7EXsxwD6+ttfZ4/KQLjOAwbQVx9x/JAkSUM8833Efgygr66r/TDodDoHeaAA+u5ixw9JkjTES8CL7ccA+ivu2Go9DFJKR3mgAPrua44fkiRpiJeAX7MfA+j7rwQfVfdhcL4HCqDvbnb8kCRJQzz33Ww/BtB359d9GFzvQQLou/scPyRJ0hDPfffZjwH03fW1HQStVuupHiCAgb0/xBMdQSRJ0qCLPYi9GEDh7wuYUjrGAwQwMIc6hkiSpEEXexD7MICBeV1dh8E6Dw7AYFRV9euOIZIkadDFHsReDGBg1tX1EvBGDw7AwC4BX+sYIkmShnAJ+Fp7MYCBubF2g6DRaDzdAwMwUCc5hkiSpEEXexD7MIDBiTu3Wg2ClNJRHhiAwcnr7tmOIZIkadBVVfVuezGAgZ79jqrbIPgbDwzAQH8d+OOOIZIkaQhnv4/biwEM9BLw3FoNgvwvda0HBmCgvuYYIkmShnD2+5p9GMBAXVunIbCfBwRg4P7NMUSSJA3h/HenfRjAwO1XlyHwEg8GwOB1Op0nOopIkqRBFXsPezCAoXhJXS4Bz/BgAAzlvSFWOY5IkqRBFXsPezCAoTijLpeAV3kwAAr+bpAkSSoivwUGMDRX1WEI7J095MEAGMpPAr7ZcUSSJA2q2HvYgwEMRdy97T3UIdBsNn/FAwEwNGc5jkiSpEEVew/7L4DhiDu4YQ+Bkz0QAMNRVdVnHEckSdIAz38X2YMBDM3JQx0C+QD6SQ8CwNBscByRJEkDvATcYP8FMLQfAvnksIfAbR4IgKHZMjMz81hHEkmS1O9izxF7D/svgKG5bWhDoNFoHOIBABj6h4OsciyRJEn9LvYc9l4AwxV3cUMZAlVVHe0BABj6j4T/tmOJJEkawPnvt+29AIZ+/jt6KEMg/8Pf6wEAGLpTHUskSdIAzn+n2ncBDN17hzUErvbFBxi6DzuWSJKkAZz/PmzfBTB0Vw98AExPTz8u/4Mf8sUHGLpvOZZIkqQBXAJ+y74LYOgeiju5gQ6AqqrW+MID1MKD2XJHE0mS1McLwOXdPYe9F8Dw3xdwzaAvAd/iCw9QGysdTyRJUh8vAVfabwHU5hLwLQMdAimlv/OFB6iHvCa/xvFEkiT18fz3GnsugNqc//5u0N8Jut4XHqA2Q+BdjieSJKmPl4DvsucCqI3rBzYA2u32vr7gALW6BPy044kkSerjJeCn7bkA6iPu5gY1AA73BQeolR84nkiSpH4Vew37LYBa/SDI4QMZAFVVneILDlAvq1evfoojiiRJ6nWxx7DXAqjdh4OcMqjvAl3oCw5Qu+8EvdQxRZIk9brYY9hrAdTOhYO6BLzJFxugdt8J+nPHFEmS1Otij2GvBVA7N/V9ADSbzf19oQFq6SLHFEmS1Otij2GfBVA/cUfX1wGQUvoNX2iAWrrDMUWSJPXhEvAO+yyAWnpBvwfASb7IALX1nxxVJElSD89//8n+CqC2Tur3ELjAFxmgtu8L+FrHFUmS1Ktib2GPBVBbF/T7EnC9LzJAPaWUznVckSRJvSr2FvZYALW1vm8DoNPpPNEXGKDWrnFckSRJvSr2FvZXAPUVd3X9+i7Qc32BAWptS7bCkUWSJPXgAnBFd29hjwVQ398Ge25fhkBVVcf7AgPUfggc7tgiSZIWW+wp7K0Aav++8Mf36ztB5/kCA9Te2x1bJElSD85/b7evAqi98/r1naCv+uIC1N5lji2SJKkHl4CX2VcB1P43wb7a8wEwOzu7LP+Xb/IFBqi9B7K9HV0kSdIiLgD37u4p7K0A6m1T3Nn1dAiklJ7tCwswMl7g+CJJkhZxCfgC+ymAkXFory8BX+mLCjAy/ofjiyRJWsQl4P+wnwIYmV8JfmWvh8BaX1iAkXGV44skSVrE+e8q+ymAkbG210Pgn3xRAUbGw9kKRxhJkrSAs9+K7l7CngpgNPxTrwfB93xRAUZHVVVHOsZIkqT5FnsIeymAkfK9ng2BmZmZx/pOEMDIea9jjCRJmm+xh7CPAhit3wSLu7teDYHkCwowcm50jJEkSQs4/91oHwUwclJPhkBVVUf7YgKM5KdEPdtRRpIkzbXYO9hDAYzk20Ed3atLwL/wBQUYSSc6zkiSpLkWewf7J4CR/AGQd/VqEPxPX1CAkRwEn3WckSRJcy32DvZQACPpU726BLzBFxNgJG1etWrVzznSSJKk3RV7htg72D8BjKT/x96dQFlW1Yf+p5pRxTRGcBY1FgpXq/qe0+dWUbZoqXGIMYjGciSRRBxjEkM0ggMSB9SgiUOMPKP/AI4vxIAkUUjyEEQjxCgoRomgIDIIGASZobvXf//a0yy66eqa7nCGz2et72o17yl97t777H3q1r0/XPGNYHx8fNe1vhlYkur8bsDnOtYAAAuJPYO9kyTVtg3xDG+lN4JJF1KSav0Q8ATHGgBgEWe/E+ydJKnWZ7/JFd0I0n/JnAspSbXu2tnZ2Z0cbQCA+cReIfYM9k2SVOvmVvoQ8EgXUZJq/xOhJzveAADzib2CPZMk1b4jV/oQ8DMuoiTVvg853gAA2zn3fch+SZJq32dWejM410WUpNr3Y8cbAGA7574f2y9JUu07d6U3g5tcRElqRNOOOADANs580/ZJktSIblr2zWDNmjUPdgElqTG93zEHANjGQ8D32ydJUjOKZ3nLvRk8yQWUpMZ0aVraxxx1AIC7GIs9gn2SJDWjoihml3U3yPP85S6gJDWqxzvrAACbxd7A/kiSmlM8y1vuDeEYF1CSGnVD+LDjDgCwWewN7JEkqVEds9yHgCe5eJLUqK5Iy/sqRx4AIPYEsTewP5KkRnXSch8Cnu/iSVLjPiPi1515AIDYE9gbSVLjOn+5PxW6zcWTpMb9SvAJjj0AQOwJ7I0kqXHdusNSf/ur1+s91IWTpEZ2Y6fT2d3RBwDaK/YCsSewL5Kk5hXP9JZ0U8iy7AkunCQ19t2Ahzj+AEB7xV7AnkiSmlk803NTkCRt7nTHHwBor9gL2A9Jkjd9bL4pvN2Fk6TGtjG1tyMQALTyAeDe5V7AnkiSmtnbl3pj+JSLJkmN7q2OQQDQyoeAb7UPkqTmVhTFJ5d0Y8jz/GsunCQ1uh/vsNRvjQIA6m5V7AHsgySp0b8O/LWl/nToShdOkhr/E6JnOgsBQHvEvd8eSJIa35WLvjHMzMzcwwWTpFZ0suMQALRH3PvtfySp+cWzvcXeGPZ1wSSpFa3PsuxBjkQA0Hxxz497v/2PJLWifRd1c8jz/OkuliT5ghAAoDl8IYgktepzAZ++2IeAr3DBJKk9XxAyNze3o6MRADRX3Ot9IYgkteoh4CsW+xDwnS6YJLXqBvEcxyMAaK6419vzSFKrznjvXOwN4gQXTJJa1ZcdjwCgueJeb78jSa16CHjCom4QRVGc6YJJUuuacEQCgEY+AJywz5Gk1j0EPGOxN4mLXTBJal0fc0wCgEY+BPyYfY4kta6LF3OPWJX+H97hYklS67p5ZmbmVx2VAKA54t4e93j7HElqXXfEM76Ffkr0QBdKklrb4Y5LANCodwEebn8jSa3tgdu9SfQSF0mSWtuVnU5nF0cmAKi/uKfHvd3+RpLaWTzjW+gnRQe5UJLU6g51bAKARrwL8FD7GklqdQctdKN4jYskSa3ugh0W+uwIAKDq4rPeL7CvkaRW95qFHgK+20WSpHZXFMWBzk4AUF/pXv5sexpJan3vXugh4PEukiS1uzzPv+b4BAD1FfdyexpJan3HL/QTo393kSRJqcc7QgFALR8AHmAfI0mKZ3wLvRPQ50ZIkqJTHaMAoH7iHm4fI0kqP+99uzeM61wkSVL5a8H7O0oBQK3eBbi/PYwkqey6eW8Ys7Ozu7lAkiTvBgQA7wKUJNW/eNa3zRtGt9t9uAskSbprvcSRCgCqryiKKXsXSdJdi2d93jouSVpsJztWAUAt3gV4sn2LJGlRH/FUFMWzXSBJ0jbKHa0AoLrSIW+t/YokaeviWd98Pzl6lQskSfLZgABQu3cB+ixASdK2etV8Pz16m4sjSZrnJ0izjlgAUD1xj7ZXkSTN8+vAb5vvIeCxLpAkaZ6bx9ccswCgeuIeba8iSZrnHHfsfG8hP9EFkiRt5wbyLEctAKjUA8Bn2aNIkrbTifM9BPyKiyNJ2k7nptvFKkcuAKiEVXFvtj+RJG2nr8z3EPB7Lo4kaYF3Ax7szAUAlXgX4MH2JpKkBfrefA8Br3ZxJEkL9OOZmZl7OHoBwOjEvTjuyfYlkqQFunpb95Gx9H/Y6OJIkhbREY5fADDSdwG+yX5EkrSINsQzvy1uIlmW7eXCSJIW2S8mJyfv5wgGAMMX9+C4F9uPSJIWUzzz2+JGkv7DfV0YSdIS+hvHMAAYvrgH24dIkpbQvlvfSB7vokiSltD6LMs6jmIAMDxx7417sH2IJGkJPX6Lm0lRFAe6KJKkJXaa4xgADPVdgKfZf0iSllI889viZpLn+e+5MJKkpZbuH891JAOAwYt7rr2HJGkZZ7bf2/onSoe5MJKkZXTxzMzMPRzNAGBw4l4b91z7DknSMjps658qvdNFkSQt8+3lRzmeAcDgxL3WnkOStMx3Ar5z63cCfsSFkSQts1umpqYe4YgGAP0X99i419pvSJKW2Ue2fgj4GRdFkrSCTnJMA4D+S/fYk+0zJEkr6DNb31hOdVEkSSv8teADHdUAoH/i3mqPIUla4TntS1s/BDzHhZEkrbBL161bd29HNgBYubinxr3V/kKStMLO2foh4PddFElSH/qAYxsArFzcU+0rJEl96Ptb32Aud1EkSX1oQ57nax3dAGD54l4a91T7CklSH7p864eAN7gokqQ+9c25ubkdHeEAYOniHhr3UvsJSVKfuuGu95kxF0SS1Of+1DEOAJYu3UNfbx8hSepn8exv002m2+3u4YJIkvrczen+so+jHAAsXtw74x5qHyFJ6mfx7G/TjSbLsoe5IJKkAXRWus2scqQDgEVZFfdO+wdJUr+LZ3+b324+4YJIkgZRnuevc6YDgIXFPdPeQZI0oCY23WyKoljnYkiSBvVrwelQM+5oBwDbfQA47teAJUmDKp79bX4n4NNcEEnSAPvyDps/iBYA2Fp8UeOX7RckSQPsaZsfAh7kYkiSBtxhzngAcHdxj7RPkCQNuIM233Re6mJIkgbcrXd+DgUAsPksNlHeI+0VJEmD7KWbbjxFUbzSxZAkDaFvj4+P7+rIBwA77BD3xLg32h9IkobwmYCv3HTz8S1UkqRhle4573XsA4BN57D32htIkoZ0Dnvd5ncCHuWCSJKG1MZer/dERz8A2izuhXFPtC+QJA3pnYBH+QmUJGkU/XhiYuI+joAAtFHcA+NeaD8gSRr6b2Slf/NBF0SSNOSfRH3eMRCANop7oL2AJGnIfWDzQ8DjXAxJ0gh6jaMgAG0S9z73f0nSCDrOQ0BJ0ii7Nc/zSUdCANog7nlx73P/lySN8iHgyS6GJGlEXTA5OXkvR0MAmizudXHPc9+XJI2okz0ElCRVob9zPASgyeJe534vSarCQ8AvuxiSpFFWFMXvOyIC0ERxj3OvlySNuC9vuinleX6GiyFJGnG3pENS5qgIQMMeAGZxj3OflySNsnj2t/mdgOe6IJKkCvTDiYmJ+zgyAtAEcU+Le5v7uySpAp27+SHgeS6GJKkivxZ8Sro1jTk6AlBzY3FPc2+XJFWk8zY/BLzQxZAkVeit6m9ydgSgzuJe5p4uSapQP9j8EPASF0OSVKE2pJ7mCAlAHcU9rLyXuadLkqrSJR4CSpKq2s/zPB93lASgZu8AHI97mPu4JKmqDwEvczEkSRXse+vWrbu3IyUAdRD3rLh3uX9LkirYZZsfAl7nYkiSqpgvCgGgJnwRiCSpyl3nIaAkqQ69w9kSgCqLe5X7tSTJQ0BJklZYnucvcMQEoIriHuVeLUmqy0PAjS6GJKni3ZyadtQEoGLvAJwu71Hu1ZKkKrdh843LxZAk1aGrsix7mCMnAFUQ96S4N7k/S5LqkIeAkqS69d3UakdPAEb8DsDV5T3JvVmS5CGgJEkD6tS5ubkdHUEBGIW4B8W9yP1YkuQhoCRJg++jjqEAjOhdgB91H5YkeQgoSdLwOsJRFIAhPwA8wv1XkuQhoCRJQy7P80McSQEYhrjnuPdKkjwElCRpNN2eDmVPdzQFYMAPAJ8e9xz3XUmSh4CSJI2uG9PhbK0jKgADegC4Nu417reSJA8BJUkafVelHumoCkA/xb2lvMe410qSPASUJKkiXbRmzZoHO7IC0A9xT4l7i/urJMlDQEmSqtf5U1NT93V0BWAl4l4S9xT3VUmSh4CSJFW3c9atW3dvR1gAliPuIXEvcT+VJHkIKElS9Tt9fHx8V0dZAJYi7h1xD3EflSR5CChJUk3K8/wLc3NzOzrSArAYcc+Ie4d7qCTJQ0BJkurXpz0IBGAxDwDjnuG+KUnyEFCSJA8CAfAAUJKkWj8E3OhiSJIa3sfSLW/MUReArYzFPcJ9UpLU8DZsfgh4nYshSWpBH/UgEICtHgB+1P1RktSCrvMQUJLkQSAAHgBKkuQhoCRJHgQC4AGgJElNeAh4mYshSfIgEAAPACVJamSXbX4IeImLIUlqW3meH+tbgwHaI9b8WPvdAyVJLewSDwElSW3v0x4EArTjAWCs+e57kqS2PwS80MWQJHkQCIAHgJIkNbIfbH4IeJ6LIUlqeSd1Op1dHJUBmiXW9ljj3eckSS3vvM0PAc91MSRJWvv/Uvd0ZAZohljTy7XdPU6S1PbO3XRzzPP8DBdDkqRNnTMxMXEfR2eAeou1PNZ09zVJkjZ9KeIZm39C9mUXRJKkOzu/1+s9wBEaoLbvAHxgrOXuZ5Ik3dmXN98kT3YxJEnaooumpqYe4SgNUC+xdsca7j4mSdIWnewhoCRJ83dlURSZIzVAPcSaHWu3+5ckSfM/BDzOxZAkaZtdnw6VT3W0Bqj8A8CnxprtviVJ0jY7zkNASZIW7vY8z1/iiA1QTbFGx1rtfiVJ0sIPAT/oYkiStP3SIfMNjtoAlXsA+Ab3KEmSFuwDm2+c73UxJElaVB+am5vb0bEbYLRiLY412X1JkqRFvaHhvZtuoEVRHOWCSJK06P650+ns7ggOMBqxBsda7H4kSdLiimd/m98J+DoXRJKkJXVer9d7qKM4wHDF2htrsPuQJElLeifg6za/E/CVLogkSUvuinQzXetIDjAcsebG2uv+I0nSkt8J+MpNN9P0b17qgkiStKxuTh3kaA4wWLHWlmuue48kSUvvpXe9obogkiQtr42pt6Rb6phjOkDfjcUaW6617jmSJC2vgzY/BHyaiyFJ0oo7cXJy8l7O6wD9EWtqrK3uL5Ikrbinbbq5FkWxzsWQJKkvfbvb7T7c0R1gZWItTWvqd9xXJEnqy2cCrtv8TsAJF0SSpL71v6knOcIDLE+soeVa6p4iSVJ/mth0k82y7GEuhiRJfW19URR/soPPCQRYirFYO2MNdR+RJKl/xbO/zW+138MFkSRpMJ8TuG7duns71wNsX6yVPv9PkqTBFM/+7vyJmwsiSdLA+p9er/cYR3yAbYs1MtZK9wtJkgbTFr+hlP6DG1wUSZIG1o2pFzvqA2wp1sbUTe4TkiQNrBu2vvle7qJIkjTwPjI7O7ubYz/QdrEWxproviBJ0sC7fOuHgN93USRJGkrnpfb1CABo8bv/9i3XQvcESZIG3/e3vhGf46JIkjS8Xw/O8/wQjwKAtom1r/yIBPcCSZKG0zlbPwQ81UWRJGnofcq3BwNtUH7776es+5IkDbeiKL609UPAz7gwkiSNpAvTjXnKIwKgqWKNi7XOei9J0kj6zNYPAX0oryRJo2t96sjZ2dmdPC4AmiLWtFjbyjXOWi9J0mj6yNafzfFOF0WSpNF/Xke3293HowOg7mItW+tzxyVJqkLv2PqdgIe5KJIkVaIbi6J4pUcIQI1//feVa335hyRJVemwrd8J+HsuiiRJlepf1qxZ82CPE4C6iDUr1i7rtyRJ1SnP80O2/mndgS6MJLW2m12DynZduke/LN2qxzxeACpsLNaqWLOs2+71kqRqFc/8tv514Me7MJLU6G5InZ1uAP9f+vPw9Odvpz8nZmZm7pHn+Xj611e4RpXuX1N7e84AVE2sTeUaZa2ublfEvT7u+XHvL/cAh5d7grPLPYLrJEnN7fFb37z3dVEkqTFdmDb2n4sNftr0P6vb7T58oXeSxaEg9XPXrtL9Ir2eL/euQKAq7/6LNSnWJutzpYt7+8RCr2XsFWLPUD4cjD3Eha6dJDWmfbdY9bMs28tFkaRadmnatH82/XlYWsufkP5cvdzTXPrv2d+vC9Xi7fxnptdqP88fgFGJNSjWImty9X8FOO7tK3iX5+pyb3FYude41DWVpFq2591++pP+w40ujCRVug2pc9JG/C/Tn3NpY/6gfh/s0qHuqem/+3bXuvLdlnr77Ozsbh5HAMMSa06sPeUaZC2udrfHPb3fYyD2HrEHKfci55R7E9dbkip8htzmbxKl/8PVLo4kVe6h33+l3lf+is7qYRzy0qHheTb1tekHaWw82aMJYNCyLHtKrDnW3XrsH+JePoxxEXuTco/yvnLPYv8gSdXq6vkW8O+5OJI08uILOo5LG+oXTE1N3XdUh730z3Co16I+pfFywvT09P09pgD6LdaWWGOstbXq0FGNl9i7xB4m9jJrfemYJFWh78134PuKiyNJI3mA859FUby51+t1d6jQlz6kf643eH1q1fXxuU2zs7M7eWwB9OFXf3eKNaVcW6yx9dlTvKFCw2gs9jaxx4m9jtdHkoZffIbvfA8BT3SBJGko3ZE6LfXqNWvWPLjKh8D0z3i416t2/bdfEQZW+EOgJ8daYj2tXYdXeVzFnif2PuUe6A6vlyQNpRPnu9kf6+JI0kA/n+ffUy+bmZn51TodBtM/81Fev3re8FN7e5wBLOEHP3t7Y0Bt3+lxVJ3GWuyFYk8UeyOfIyhJA+2j8z0EfJuLI0l97+z4qffk5OT9an4wfI/Xspbdkjp6enr6VzzeAOYTa0SsFeWaYe2sX++p8/iLPVL5DsGzvZaS1PePiXjbfAe8V7lAktSXLovD1NTU1KMa9g4RDwLr29VxwPJ5gcBdlZ/79+pyjbBWegA4crF3Kh9IX+a1laS+vFP8ldtccNP/4dkukCQt/3P+0jr6+fTn09KSuqqpB8Y8zz/sta5130uv4bM8+gBiLYg1wbpY63d3fLjBQ3RV7KnKvZXPD5Sk5T8EfPZ8G4H9XSBJWnI/Tr01y7IHteTcOBafK+F1r/3B8Yxer/c4j0GgfWLuxxpgLWzEZzyNtWHMxh4r9lrlnstrL0lLa3qbi2u32324iyNJi3+Ikv48qMnv+tveg0DvCGxM/9zr9boei0ArHv51Y85b9xrzDsCxFg7jeHfgQR5iS9Liy7LsYdtcUWdnZ3dzgSRpu92WOs5Dk1/yGYGNaWNRFJ9Lh6pxoxqaJ+Z2zPGY69Y7nwHYsIfax5V7M+NCkuYpnvVt70B3nYskSXfrF+kQ9d705wNtu+923zja+GhM6+NA5WEgNOfhX/mQZL31rTEdbWTfbR/ywHKP9gvjQ5Lu1s8XWkQvcJEk6c6uKYrizd1udw/b7O3eOw43Vpr1MDCN+09mWdYxuqF+Yu7GHPbwr3EdbnTPL/ZqsWeLvZuxIkl39v3tLp5p4fx3F0mS1l6Z5/nrZmZm7mFb7UFg239N2MNAqNXDP7/26wFgq8XeLfZwsZczbiT5DNn83xY6xB3vQklqcT+LjXan09ndNnpZDwJfbQw19mHgKal1RjlUT8zNmKMe/jW2VxvlSxd7ufIHlD8zhiS1uOMXOsC920WS1MbP/Eu9xcO/lcvz/JB0LTcYU82sKIr/WNveb8WGKtn0LanlnLQ+NbMNcU811PvyMPAtPjNQks+S3fZDwNe4SJJa1O2pD2VZtpdtcl/flfLsdF1vNr4aXXyG8KHb/bYxoO9izsXc8zneje/mdC890Ijvn9jrxZ6v3PsZY5K8m7x8CHiQiySpJf196pG2xYPR6/WemK7v9cZZ44sPYD96enr6IUY9DE7MsbW//DZ2X3rQ/K6Pe6hRPxix9yv3gMaapDb8Fs+zFzq09VwoSQ3vvCzLnmAbPJR3BGYOrK0pvoX07/M8P8DIh/6JOVU+sPBNvy35wUrcO438obwz8AmxJzTmJDW5eMa30E9GHuhCSWrwxvqVc3NzO9r6DvUAO56u/cXGX6s6N73ur1i3bt29zQBYupg7MYdiLllPWtXFcc80A4Yn9oSxN/QDS0kNfgj4gIXWwviQ4TtcLEkNamPaVB87MTFxH9vdkf4a2/nGYuu6IfWxNP/WmgWwqB+arI05U84da0i7Ot/HKoxO7BFjr7jWN2xLatjn3++wmC/z844NSQ3qO71e73G2t6PX7Xb3SBvsM4zJ1vbN8p1Nq80G2GLfvbqcG9+0TrSzuDfGPdJsGL3YM8be0biU1JB+tKjFryiKM10sSTUvvlXvz2ZnZ3eypa2OTqezS3ptPm18trpb0oH3s6ln+NV82irGfsyBmAsxJ6wLre7TcW80K6oj9o6xh4y9pPEpqe4/ZFrsryKc4IJJqnFndbvdfWxjK2ts7S+/4dJY1ZWpY9Jh67GmBW0QYz3GfDn2rQE6Ou6JZkY1xV4y9pTGqaQad/xiHwK+08WSVMNuSuvX63ZYzOceMHLlr7/5tkvd+XlYqSNSjzQ7aJIY0+XY9rmo2tz6dA98udlRC6tibxl7TONWUg17x1IOZi6YpDr11ampqUfYq9buQeAz1voAfG3j8wNTr0/tbZZQ0wd/e5dj2Of8aetuiHufWVIvsceMvabxK6lmHbrYQ9nTXSxJNemOtGa9yWeL1frX47L0Ol5hLGuezo53UaV5vp/ZQsV/qLFf+Y6/s81bzdMVcc8zW+qp/CzPN8Xe01iWVJOettifXu7rYkmqQf+TZVlhW1p/6XV8UHo9/8uY1kJzPh3A3pvGy8wOfu2f0VsVYzHGZIxN81PbqyiKb8S9zrRpxJ6lMOcl1aR9F7WwzczM3MPFklTxPj45OXkvW9HmiHtP+U2ZxrcW009Tx6Ux84KJiYn7mEEMQ4y1GHMx9soxaC5qweLeFvc4M6g5Yg8ae1HjW1KVm52d3W3RC9ta31omqZrdmDbTB9t+NlZ8c/BbjXMtsQ2pr6eOLN8d7F2C9PPdfvGunyPLMbbBfNMSe+sOvgG4sWJPGntT41xSFT+CYqkL2tdcNEkV6/xFv6WZum+qn7vWN/Fp+V2bOqkoitemHmtGsRQxZmLsxBgqx5I5peV0U7qXPceMar7yo7TON+YlVayvLnUD9EkXTVKFPkvnk36VpnUH8fjCkEuNf/XjV4fTePpc+vNVvV7vMd4pyF3f6RdjIsZGOUb8iq/60aW+AKRdYo/q/CypYh9FccJSf6LxdhdOUgWKb2D7I9vLdkqH8wek1/8r5oH63HXpsPal1JvTv35S6p5mW2vesXPPeM3jtY8xEGPBfFCf+8r09PT9zbbWrjF/tNa3B0uqxptojlrSApbn+SEunKQRd1Wv13uiLWXrN9Q7pz5gPmiArU+dm/rbeEdY+RlwO5t99V87ytfyVeVre275WhvzGlQfsHYQe9fYw5oPkkbcS5e0eKVN0xNcNEkj7FtpE/VQW0k2K4riRT4nUEPstjTmvpH6P+lfvybP8wO63e4eZmI1xWsTr1G8VvGaxWsXr6FxrGF9/l/co8xE7vIg8KGxlzU3JI3w14EPWM7C5eJJGkUn+fU85nlnz0TqInNEI+zHqX9OHZ0O/b9TvtNstdk5tDVgdVzzuPbxGpSvxY+NS42wuCdNmJ1sY726Z7mnNU8kDb01a9Y8eKnr1io/QZU0gt6zgw/tZ4F3/KRx8k/miirWlXmen1G+C+1P0r8/qNfrdT0gXN6DvvLaHRTXMq5pXNu4xsaZKtY/eYcwizhTv8dckTTkbknrz9hyNmHnu3iShtTt6aD3+/aKLNJYGjNHpjaYO6pB18avheV5/g/pz/enDkvr3QvTn49PPXJ2dna3tkzc+LvG3zn+7uU1OCyuSXltvlVeK2NGVS/uPUcu64BFK8UeN/a65o6kIXX+cn8S6+3LkobRjekA+AxbRJYqy7KneHeQGtL/pv67fMfbienPY1PvXPvLb5p8cayRvV7vcekg+djyI1tG/g7D8h17Dy3/mR4X/4zxzxr/zPHPHn+H8u8Sf6f/Lv+OXmvV/l2/ce9xB2apyjXyRnNI0qBLe7PPL3dzd4wLKGnAXZU2RWttDVmuycnJ+6Vx9K/mklra9anLUpekvpM6r3zodnrq5Lv0qdRxC/Sprf7/nF7+d51X/ndfUv5vXe+6q6X9a9xz3HlZwYPAtWt9c7Ck4XzE1rIWqZe7eJIGWHyY9iNtCemD+Mydt6TWm1eSpD4X95a37OAzi+nPu6gfudaXnEka7DsBX7bczy6YdQElDepzCvw0nQFsrB9fvlPJHJMk9aO4pzzeHZYB/BbD+eaXpEHU6/WeuKzFKb5S2AWUNIDOmZiYuI8tIAN6ELhnnudfNM8kSSupvJfs6c7KIMReOPbE5pqkfpdl2YNWcpi6yUWU1MdOX7du3b1t/Riw+Pbg+EKFW805SdISi3vHH+3g238ZsNgTl5/hat5J6lc3rPQdFee6iJL69NkEp6Q/72nLx7BkWdZZ+8svNTAHJUmL6by4d7iDMsTfYLhnuUc2/yT1o2+tdFH6jIsoqR8PADudzi62egzb+Pj4rmt/+W33G81FSdI8xT3imLhnuHMybLFH9iBQUp/61EofAh7pIkryAJAG/KT9SamfmJOSpK2Ke8OT3CnxIFBSA3rrSg9Ncy6ipBX0Tx4AUhXdbnePtMH+nHkpSSp/UPm5uDe4Q1KVB4GxdzY3Ja3gvvbbK1qI8jyfdCElLbPTfQYgFX1XYPyA6xpzVJJaW9wD5twRqeAe5Z5rfVmIpOU/BHzsihah8rOUNriYkpbYOZ1OZ3dbOaoqy7K90jg90VyVpNZ1YtwD3Amp8DsCd4+9tLkqaYmt78tv4aX/oh+6mJKW0HdSq23h8K5ASZJ3/8Gy9ieryz21uStpsV3YrwXI5xJIWmw/8NN1vCtQkuTdf9CX/ckPzF9Ji/xV4FP6svjkef5eF1TSIrpyamrqEbZseFegJMm7/2DlYm8de2xzWdIiOrovC09RFL/rYkpaoOt7vV7XVo0GPAjcM3WcOS1JtS/W8j3d2ai72GPHXtuclrS98jx/Sb8ORLkLKmk73V4Uxa/botEk6Sb6ZL+CI0n1/GiSWMPdyWiS2GvHntv8ljRffXtTzuzs7G5rfUOwpPl7sa0ZTVTe/95h0y1J9fihZKzZsXa7g9HQ31Z4sXkuaZ76883Ad1lwLnRRJW2jI23JaLosyzpprH/VfJekyvbVWKvdsWjBg8AjzXdJ2+iCfi82J7mokrbqU2l5GLMdoyXG8jx/RRr315r7klSZro212X6ENu1HYg9u7kvaqhP7/RDw7S6qpLv+xL2vbzeG+vwEfs904Dw2/bnROiBJI2tjuRb74g9aJ/bgfkNB0l0riuKovi406Sb7AhdWUtklNt20XZZlRZoHX7ceSNLQ+3qswe5EtP2HkuWe3JogKR4CPq/fDwH3c2ElpW7q27cOQQN+JSfdH38vzYurrA2SNPCuijV3B7/6C5vEnjz25tYGSd1ud5++LjBzc3M7pv/im11cqd3Fu4JtueBuP41fnfpgar11QpL63vpyjV3tjgN3e7OO39iTdGNaDlYNYoH5TxdXanXvttWC7f5E/jFFUXzJWiFJffv1pi/F2uoOA9v9YeS7rRdSq++V/zGoxeVvXWCptZ0W7wi2zYJF3S+flvqOdUOSll2soU9zR4GFlb+196/WDam1fXQgi0tRFK91caVW9pO1vggElrMhPzT1U2uIJC26WDMP9YNHWPIPIPcs9+zWEal9vWogC0ue5we4uFLruj3N/f1trWB5Op3O7mkevcPn6krSdos18h2xZrpzwLLP6/vH3t16IrWrLMtmBrKoTE9P/4oLLLWuP7algr7cQx+S5tPfrfXlIZJ012JN/LtYI90poC/vCPxj64rUqjYO9Ado6X/gRy6y1I7yPP8HWyno+0/p94u5ZY2RZJ+R/0Osie4M0Pe9hn2G1J5+MOifLJzoIkut6McTExP3sY2CgW3Q0zRbe5q1RlILOy3WQHcCGIzYw8de3lojNb+iKD436IeAh7vQUvN/NSctJutsoWDw0lybTXPu69YdSS3o67HmWflhKPuLdT6CRGrFu+rfMOiHgE9zoaXG91ZbJxj6Zv3ANPfOtf5IamDnxhpnpYfhij299Udq/EPAJw90IcmybC8XWmr024nPnJub29G2CUZiLM3DgzwMlNSUh3+xpsXaZnmH4Ys9feztrUVSo1s9jJ8oXOpCS43sF1mWPcyWCUb/MDBt2p+d5uTZ1iVJNezsWMM8/IPRi7197PGtS1Ij+9Gw3lb8jy621MheaqsE1ZLn+TM8DJRUl4d/sWZZuaFaYo9vfZIa2YlDWUSKoniziy01rpNskaDyDwPPslZJqmBnefgHlX8QeJK1Smpchw/zIOKCS83pqvi8T9sjqL40V2fSnD05tdHaJWmExRp0cqxJVmaoxf4hPtv/KmuX1KjP8//1oSwgU1NT93XBpUZ1kK0R1O6dgfulPpHm7+3WMElD7PZy7dnXSgy1ezfgQdYwqVE/jFs9zAXkIhdd8jkCwMh/sv+gNI+P8aHfkgZcrDHHxJpj5YVaPwg80XomNaILhv0OhM+66FLtu8avAUMzdLvdPYqi+LM0ry+1tknqY5fG2hJrjJUWGvHDw/i14GusbVK9y/P8hKEuHmkz8CcuvFT7heMltkLQLLOzszule/TzfImIpJV+2UesJbGmWFmhWeIMYI2Tan+W/4NhPwRc58JLtf4Q0VNsgaDZ0lzPU8enbrPuSVpEt5VrRm4FhWaLs4A1T6r1eX5qqIvGzMzMPdL/8HoXX6plN6T2tv2Bdpienr5/nudvS/P+p9Y/Sdvop7FGxFphxYTW/KBw7/JMYA2UavhDu/Hx8V1HsXCc6+JLtXzr8OtsfaB9Op3OLmn+Pz+tA//PWigp1oJYE2JtsEJC+8SZwDoo1bJzRvXTg4+6+FLt+ubc3NyOtj3Q+o3/eFEUf5HWhKuti1KrujrmfqwBVkJotzgTxNnAuijVrg+NZNFIG4jfdfGlWrU+bfrX2vIAm8WvEqS14cVpbTjDGik1+rcAYo6/eCS/PgRU+YeCa33Ml1S7e/oLRrJgdLvdfbwAkp8YAM1QFMWjy3cHXm69lBrR5TGnY25b4YD5xBnBeinVqr1HuWD4NSKpHl05PT39K7Y5wELi14PyPH9G6rNp7bjF+inVqlti7sYc9vEfwGLEGSHOCtZPqRZdMep3Dfhqcakebxl+iS0OsIwf9q1O68crUl+zlkqV7qsxV2POWrmApYqzgnVUqkV/P+rDwRFeBKn6nwOUpuuY7Q2wEuXHgLw9dYG1VapEMRffHnPTCgWs0JjPB5Zq0WEjXSmyLHuCF0GqdHekedqxrwH6/I6B+CDx96Qusc5KQy3m3Ht80RcwgLN9J84O1lmpuqV5OjPShSL9Q9zTtwlJ1a0oir+ypQEG/M6B/WOtic8ose5Kg/n8nzTP/jLm2g7e2Q8MUHk/t+5K1ezW8fHxXUe+UKR/kHO8GFIlu9pnAwFDtCrP8wPSuvPB1I+twdKKijn0wZhTMbcsL8CQzvarffmnVNm+UpWF4n1eDKmSHWorA4zw3QRZWof+PPVt67G0qGKu/HnMHSsIMMLz/aHWY6mSHV2VReIgL4ZUub7pnQNAVUxNTT2iKIo/SZ2Z1qcN1mhpUxtiTsTciDlipQAqYlWcJazRUuW+8PMZVXkIuKcXRKrcZwGus38BKvpA8L5pjXpRWquOT/3Umq2WFWP+uJgDMResCEAVxVnCei1V6weHlfqor/QP8z0vilSZ/t7WBaiJsbRmxVcNvyU+58SXjamBrS/HdozxfAdf7AHURJwprOFSZTq3aj8p+D9eFKkS3eZXioC66na7e6Q9xfPyPD82rWc/sKarpv0gxnCM5RjTZjZQR3GmiLOFNV2qRB+q1AKRNjoHe1GkSvwa8F/YsgBNMT09/ZByj/Hx1CXWeVW0GJsfj7EaY9bMBZoizhbWeKkSzVXtJ/cP96JII+8a7zgAmiz2G3meH1J+nuBF1n2NqBh7x8dYjDFpZgINvu/uEWcM67402nq93gMqt0D4Cb008ncBvtZWBWiT6enp+6f176B4p0Ke519L//pW9wP1uVtjbJXvhjkoxpyZB7RJnDHcC6SRdkElF4f4pjMvjjS6dyV0Op1dbFOANot1MM/z/dOaeFjqxNSP3B+0xH5Ujp3DYiy5twLurZ1dvPteGml/U8nFofz1HC+QNILS/Hu+LQrA3cWvMqU18smpNxRF8bm0Zl7ovqGyC2NMxNiIMeIjNQDmPes/3z1DGtlv/D2vkgtDr9d7qBdIGkn/labgmO0JwOKkdXN1+WDwdeWXjpyd+oX7SWP7Rfkax5d3vC5e+xgDZgLAoo3FmcP9RBp+WZbtVeVNtbcJS8N/F+CT7UsAVq78orPfLIriz9LaekL6199K3eReU5vitfpWvHbxGsZr6Ys7APqj/AGKe4003L5b6YWh/Gm6F0oaXqfZkgAM1po1ax7c6/WeWBTFy9K6+5705+fTn9/2gHBkD/q+Xb4G8Vq8LF6beI2MVICBn/dPcx+ShvqrwH9d9Z8OHOyFkob61uDCdgRg5A8IH5c2aS+Md5/FZi11Slqjz039r3vVkotrdm5cw/JaxjV9YVxjD/oARivOHu5Tks8DvNP09PRDvFDS0DrZVgSg2iYnJ++V5/l+ac1+UjzMSn/+cerd6T/7ROqL6T/7Rvr3P0nd1uD7VfzdfhJ/1/g7x989rkFci/KaPCmuUVwrIwag2uIM4hwmDaWNU1NT963DovB9L5Y0+AUhy7KObQhAsx4Yxg9Ui6J4bFrnH5/n+W+lf/076V//YerI9O//Mv35sdRxcQgrH6idUT5IjF9PviR1Zeq6rVrsvWXr/39Xlv+d3y4f4J0R/5vlATD+GT5W/jMdGf+M8c8a/8zxzx5/h3jnngd7AM0SZ5A4iziPSQPvW7VYFOJXN7xY0sD7lC0IAAAwbHEWcR6TBv6rwH9RlwXhIC+YNNDW53k+bvsBAAAMW5xF4kziXCYN9CHgU+vyEHB1aoMXTRpYx9l6AAAAIzz3H+dcJg2sW1P3rNOCcLYXTfIuQAAAoHm8G1AaaKfXbUF4pxdN8i5AAACgmbwbUBpMeZ6/qVaLQVEUs144ybsAAQCAZvJuQGlgnwc4VavFoNPp7JL+wW/04kneBQgAADSTdwNKfe9/09RaVbvFoCiKU7x4Ut/amObUo20zAACACp37Hx1nFec1qW+/CvzZui4Gr/UCSn17O/DnbDEAAIAKnv0/58wm9e0h4CG1XAjKzwfwIkp9KMuyNbYXAABA1cRZxZlN6tvZ/0G1XQzSX+BHXkRpxT8J+IKtBQAAUFVxZnF2k1bct2u9EKS/wEe8iNKKHwLub1sBAABU+CHg/s5u0oo/Buwvar0QpL/AgV5IaUUPAM+wpQAAAGpw/j/TGU5a0fn/ybVeBNatW3fv9Be53YspLfsnAc+0nQAAAGrwEPCZznDSsruh0+ns0oSF4N+9mNKyOj9NoTHbCQAAoAbG4gzjHCctq5MasQrkef46L6a0rLcCH2wfAQAA1Oj8f7CznLSsDm3EIjA1NfUoL6a05C6dnZ3dyTYCAACoizjDxFnGeU5aWlmWPagxC0H6C13kRZWW1OttIQAAgBqe/1/vPCctqW81bRH4gBdVWvwHgqZW2z4AAAA1PP+vLs80znbS4np7oxaBoiie6kWVFv2NwH9l6wAAANT4QaA3AkmL/z6A/Ru1AIyPj++a/mI3enGlBVvf7XYfbtsAAADUVZxp4mzjfCct2DVpyqxq4k8C/tGLKy3YibYMAABAA54BnOh8Jy3Y3zVyAcjz/BAvrrTg24APsF0AAADqLsuyJzjjSQs+A3hOU38KsGdqgxdZmrdv2yoAAAANeg7wbec8ad5umZycvFeTF4CveJGleX8C8ArbBAAAoCmKonils540b//c6AUgz/M3eJGlbXZdo38CAAAAtE6cceKs47wnbfONQC9v9AIwNTX1KC+0dPeKovgrWwQAAKBp0nnnA8580t3a2Ov1HtCGBeD7Xmxpy7rd7j62BwAAQNPEWceZT7pbX2/FApDn+Xu92NIWnWprAAAANFU685zm3Cdt0eFteQi4vxdb2uJXgQ+0LQAAAJoqzjzOftIW7duW+T+W/rKXe8GlTV2c5sQq2wIAAKDBVqWzzyXOf9Kmvtuq2Z/n+Ye96NKm3mg/AAAANF2cfZz/pE29o1WTP8uyp3jRpbW3pva0HQAAAFrwEHDP8gzkLKi2fyRY1qrJPzc3t2P6i//Mi682l+f5Z20FAACAtogzkLOgWt4P2zr5P+HFV5uLd8TaBgAAAG1RFMWvOwuq5b2/rQ8Bn+XFly8EAQAAaI34gpCLnQfV4jcDzbRy5o+Pj++aLsD1BoFa2pHu/wAAQNvEWch5UC3tih3a/Gagoig+aRCohW1M7e32DwAAtPAh4N7lmcjZUG37QpC/avXkz/P8twwEtbBT3foBAIAWPwg81blQLfxy0P1bPfH9SrBa2pzbPgAA0OKHgHPOhWpZl6ahP9b6ye9XgtWyfhYPv932AQCAtirfEPQz50P5VuCW8SvB8hkAAAAA7RJnI2dE+VXgdv4EwK8Eqy1NmPUAAEDbxdnI+VB+FbidPwHwK8Fqw7sAv2G2AwAA3Pks4BvOivKrwC2T5/kzDAq14CHga812AACAX0rnpD90VlTTy7KsMNu3nPg7p64xONTg1k9OTt7PbAcAAPilOCPFWcl5UQ3uB2b6NuR5fqzBoQa/C/BLZjkAAMCW0nnpVGdGNbg/N8u3/RDwAINDDf4moIPNcgAAgLs9CzjYmVENbl+zfNtWxTemGCBqYDd1Op3dTXEAAIAtxVkpzkzOjWpg3zLDtyNdoGMMEjXwXYCfNbsBAAC2Lc5Mzo5q4LOAN5jd25/4aw0UNbDfNLsBAAC2Lc5Mzo1qWBt7vd5Dze6FJ/8FBosa1M/i26/NbAAAgHmfA+xcnp2cIdWUdwGeYWYvQlEUbzZg1KD+xqwGAABY8EHg3zg/qikVRfEys3oRut3uww0YNWjirzOrAQAAti/OTs6Qaki3pFab1Yuf/GcaNGpAF6fhPGZGAwAALGgszlDOkWpA/9d0XoI8z19u0KgBvcdsBgAAWJw4QzlHypeDtm/ir07dauCozvUSsxkAAGBx4gzlLKmad7UvB13eg8ATDR7VuEt38KvAAAAASxG/Enyp86Rq3AdN42UoiuJAg0c17v1mMQAAwNLEWcp5UnUty7LCLF7exN85dZVBpDqW5/kBZjEAAMDSxFnKmVI17btm8Mom/18aRKphV6Thu8oMBgAAWLJVcaZyrlQN+1PTd2UPAScNItWwj5i9AAAAyxNnKudK1aw7pqen72/2rnzyf9NgUs0+A+ApZi4AAMDyxJnK2VJ1qiiKU8zcPkgX8rUGlOr0deBzc3M7mrkAAADLE2eqOFs5X6pG3wvwHDO3D6ampu6bLuhtBpVq0sfNWgAAgJXJ8/wTzpeqSdfEl9uatf2b/P9gUKkmT/+fYcYCAACs+DnAM5wxVZM+YMb2UVEUzzSoVIN+7uk/AADAysXZqjxjOWuq6k2YsX1Ufh7ATwwsVfxdgJ81WwEAAPojzljOmqp4Z5upg/kpwNsNLlX8IeBLzFQAAIC+PQR8ibOmKv6twC8zUwcgy7KHpQu80SBTRdswMzPzq2YqAABAf5RfFLrBeVMV7YZ169bd20wdkHSB/9UgU0U7ywwFAADo+3OAs5w3VdH+1gwd7OSfM8hU0d5ohgIAAPT9OcAbnTdV0V8FnjJDB6jT6eySLvQ1BpuqVq/Xe4wZCgAA0F9x1nLmVAX7jtk5BOlCv99gU8W6xMwEAAAY2HOAS5w7VbH+0MwcgqIoHm2wqWLfCvxhMxMAAGAw4szl7KkKdVO3293DzBySdMFPN+hUoYeATzcrAQAABvYQ8OnOnqrQM4BPmJXDXQCeb+CpIt04Pj6+q1kJAAAwGHHmirOX86eqUJZlhVk5ROUXhFxl8KkCnWxGAgAADFacvZw/VYG+aTaOZgE42uBTBb4S/GVmIwAAwGDF2csZVBXoULNxBKamph6RLv5GA1CjrNfrPdRsBAAAGKw4ezmDasT9YnJy8l5m44jkef5Fg1Aj7AKzEAAAYDjiDOYcqhF+IciHzcIRKoriQANRI+xDZiEAAMDQHgJ+yDlUI/xCkI5ZOFqr0gtxscGoEX0e4IGmIAAAwHB4I5BG2OlmYAWkF+KNBqNG0Pp169bd2wwEAAAYjjiDxVnMeVQj+FXg55iBFTA1NXXf9ILcalBqyJ1l9gEAAAxXnMWcRzXkLp2bm9vR7KvOIvB3BqWG3JFmHgAAwNDP/0c6j2rIHWHmVUie52sNSg2zXq/3ODMPAABguOIs5kyqIXZblmV7mXkVk16Ysw1ODanrvRUYAABg+OIsFmcy51INqePNugrK8/xgg1ND6iQzDgAAYDTiTOZcqiH9FmDPjKugTqezS3qBrjRINYReY8YBAACMRp7nf+BcqiF8I/DXzLZqLwRvM1A16Lrd7j5mGwAAwGjEmczZVEN4CPh8s63CJicn7xcf2miwaoBdZqYBAACMVpzNnE81wC6dnZ3dyUyr/kJwnMGqAfYpswwAAGDkZ/9PO59qgL3RLKuBoigyg1UD7FVmGQAAwMgfAr7K+VQD6uaZmZlfNcvq8yDwTINWA2pfMwwAAGDkDwH3dT7VgD4L8FgzrF4PAX/bwNUAusrsAgAAqMyDwKucUzWAh4D7mV01Mjc3t2N64S42eNXnheAfzC4AAIBqiDOas6r63L+YWTWUXrg/NnjVz4qieK2ZBQAAUA1xRnNWVZ/P/b9uZtVQp9PZPb2A1xnE6ldZlq0xswAAAKohzmjOqupj55lVNZZewGMMYvWpa9OQWmVWAQAAVMaqOKs5r6pP7wL8HVOqxqanpx+SXsg7DGb1oZPNKAAAgGqJs5rzqvrQ5Z1OZxczqv4LwqcNZvWh15tNAAAAlTvzv955VX3ocLOpAfI8X2swqw+fB1iYTQAAANUSZzVnVq2wGycmJu5jNjVEekFPN6i1gm6Ym5vb0UwCAAColjirxZnNuVUr6ANmUoMURfFMg1or6HSzCAAAoJq88UcraH1qb7OoWcbSi3q+wa1ldrQpBAAAUNmHgEc7t2qZfcoMaqD4qmeDW8spz/PfMoMAAACqKc5szq5a5nl/0gxqoPTi7py61CDXUpucnLyfGQQAAFBNcWZzdtVSK4riS2ZPsx8EHmaga4ldZOYAAABU/rx/kfOrlvguwCebOQ3W6XR2Ty/0zw12LaHPmDkAAACVfwj4GedXLeFdgN8wa1ogvdDvMuC1hIXhtWYNAABA5c/6r3WG1RLO+s8za1ogy7K90gt+i0GvxdRLzBoAAIBqi7ObM6wW2ffTkFll1rREnucfNui1iOJh8c5mDAAAQLWVXwbqDT9azGcBHmLGtGtx2Dt1h8GvBfqq2QIAAFCbs/5XnWO1QJd2Op1dzJb2LQ7HGfxaoPeZKQAAALU557/POVYL9IdmSgvleb5fevE3mgDyQaEAAAD1F2c4Z1ltp6tnZmbuYaa0d4H4vEmg7XwpyEPNEgAAgHqIM5yzrLbTEWZJi2VZVpgEmqdrzBAAAIB6ibOc86y20XXdbncPM8QCcarJoG10qtkBAADgjK9GfNzXUWYH8dmA+5sQ2sYC8S6zAwAAoHYPAY92ptVW3Tg1NXVfs4PNDwLPMCm0VXNmBgAAQO0eAs45z2qr3mNmcKeiKGZNCm31TsBfMzMAAABqd77/NWda3fVdgKk9zQy2kAbFWSaHyq41IwAAAGp7vr/WuVZlHzAjuJs8z59hcqjsdDMCAACgtg8BT3euVeqW1APNCOZbKM42SZQ6xmwAAACo7dn+GOdaeRcg2+XdgCo/D/CFZgMAAEA9xZnO2da7AL0LkAV5N6DSDePRZgIAAEBtHwI+2tnWuwDNBBbk3YCt74Y0DFaZCQAAALW1Ks52zrfeBQgL8m7AVvcVMwAAAKD25/qvON96FyAsyLsBLRYAAADUV5ztnG+9CxAWu2B4N2A7O9ToBwAAqP2Z/lDnW2/sgUXxbsB2ll73/Y1+AACA2p/p93fGbV03excgy5YGz1kmUbvqdDq7G/kAAAD1Fmc7Z9zW9R4jn2UrimLWJGpVFxv1AAAAzRBnPOfc1nR9ak+jnhXJ8/zfTKZ2VBTFKUY8AABAM8QZz1m3Nef5o4x4VsznCLRq0XiXEQ8AANAMccZz1m1FP+t2u3sY8fRFnudfMKla8RDwRUY7AABAM8QZz1m3FR1utNPPhSMzqVrRhNEOAADQDHHGc85tfFdOTk7ey2in34vH/zW5Gt0dqZ2NdAAAgMac43cuz3rOvM3tj410+q4oikenwbXeBGts5xvlAAAAzZLOet913m1sl3Q6nV2Mcga1eHzcJGvs5wF+zggHAABoljjrOfM2tpca4QzM9PT0Q9Igu8VEa+RDwDcb4QAAAM0SZz1n3kb23fTyrjLCGag00N5nsjXyIeCzjW4AAIBmibOeM68zPCzL1NTUfdOAu86ka1bpdX2U0Q0AANC4M/yjnHkb9wDwP4xshiYNureYeM36ZuDZ2dmdjGwAAIBmibOebwhuVlmWPcHIZmg6nc7uaeBdafI1pguMagAAgGaKM59zb2P6FyOaUSwirzb5mlGe518wogEAAJopznzOvo1oY2rCiGboyrcU/49J2IjPE/gLIxoAAKCZ4szn7NuIN/B8wmhmZNIAfK6J2IiHgL9vNAMAADRTOvO9zNm39t2yZs2aBxvNjFSe518zGWv/04QDjGQAAIDGntsPcPat/Zt33mUkM3K9Xu9xJmTt29NIBgAAaKY48zn31rqfpVYbyVRCURSfNylr27VGMAAAQLPF2c/5t7b9kRFMZUxNTT0qDco7TMxa9nUjGAAAoNni7Of8W8su7HQ6uxjBVEqe5x82OWvZcUYvAABAs8XZz/m3lp/h/1yjl8qZmpq6bxqg15mktesIoxcAAKDZ4uzn/Fu7vmLkUuVF5U9NUj9VAAAAoFri7OcMXKs2ZllWGLlUVvyeehqoPzRZPQQEAACgOjwErFdFUXzSqKXy0kB9nglbqy6LX+U2cgEAAJqp/Piuy51/a9Mt09PTDzFyqYU0YL9q0taqk4xaAACAxp7RT3LurVXvMGqpjV5i0tbu14JfYeQCAAA0S5z1nHlr1eWdTmd3I5da8fXjtevmdHPYz8gFAABohjjjxVnPebdWnwX4u0YutZMG7wNTN5jEterc8fHxXY1eAACAeouzXZzxnHNr1TnppRszeqmlNICPMIlr1/uNXAAAgNqfx9/vfFu7j+na38iltsqfPPzIZK7d249/w+gFAACopzjTOdvW7hz+SSOX2svz/DkmdO26JsuyBxm9AAAA9RJnuTjTOdfWqpvWrFnzYKOXRkgD+nSTunZvQz5jbm5uR6MXAACgHuIMF2c5Z9ravQvwzUYvjZEG9GPTwF5vctduITrK6AUAAKjN2fsoZ9na9cPZ2dndjF4aJQ3sD5nctWtDr9d7otELAABQbXF2izOcc2zt3nxzoNFL46TBvTp1tUleu65I7WkEAwAAVFOWZa7a38AAAC4JSURBVHuVZzdn2Hp9DNcXjV4aqyiK3zfRa/mTiS+ll2/MCAYAAKicsTizObvWrtu63e4+hi+NXpzSQD/HZK/lTyjeZPgCAABUS5zVnFlr2buNXhovy7IiDfaNJnz9Ph+wKIpZIxgAAKAa0jntST4HsJZdNjk5eS8jmLYsVB8z6WvZT3u93gOMYAAAgNGKs1mc0ZxTa/mbdi8wgmmN+KKJ1M9M/lp+PuCZc3NzOxrFAAAAoxFnsjibOaPW8gHgvxnBtE4a+C+3APjsAgAAAJYmzmTOpfX8MpCiKB5tBNNG8SUhX7cI1LbfNIQBAACGK85izqO1/c26dxnBtFav1+umibDeYlDLrp2amnqEUQwAADAccQaLs5jzaC27eGZm5h5GMa2WJsIHLQa17VyLGAAAwODF2SvOYM6htf0swGcZxbTe9PT0r6QJcaVFobYdbxQDAAAMVpy9nD9r+2vApxjBUEoT4oUWhlr/ROMPjGIAAIDBiDOXs2dtuynLsocZxXAXaWKcanGobbenRW3GKAYAAOivOGvFmcu5s7a93iiGrRRF8Wtpctxsgahtl/d6vQcYyQAAAP0RZ6w4azlv1rbzZmdndzKSYRvSBDncIlHrzzk4M/25s5EMAACw4vPxzuUZy3mznm1Mr9+UkQzbWeRS51ssat1HjGQAAIAVn48/4nxZ6zfJ/LVRDAvo9XqPiyfmFo1ad6iRDAAAsDxxpnKurHVXTE9P/4qRDIuQ5/mxFg1fFAIAANA2vgikEe8C/G0jGRap2+3ukSbOlRaPWvfTNWvWPNhoBgAAWJw4Q8VZynmyvuV5/gUjGZYoTZznWkBqv/j95+zs7G5GMwAAwPbF2SnOUM6Ste4X3gwDy5Qm0D9aRGrf8UYyAADAguff450fa9+rjGRY/iL4wNR1FpLafx7CnxnNAAAA2xZnJmfH2ndWeinHjGZYAd+K1Ig25Hn+W0YzAADAluKsFGcm58Zad1tqX6MZVm4sLYpnWFRq3w2pCcMZAADgl+KMVJ6VnBnr3VuNZuiTbre7T5pUN1tYat8lk5OT9zOiAQCAtouzUZyRnBNr33mpnY1o6KM8z99gcWlEX+10OrsY0QAAQFvFmSjORs6HtW99nudrjWjos7m5uR3TBDvbItOIjjOiAQCAtoozkXNhI74E811GMwxuody3/MBNC079O8KIBgAAWniuPcJ5sBF9f3x8fFcjGgaoKIo3W2yaUZ7nzzeiAQCAtogzkLNgI9qQXsv9jWgYsNnZ2Z3ShPsvi04juqXX6z3OqAYAAJouzj5xBnIObETvM6JhSMqvUb/DwtOIrimK4teMagAAoKnizBNnH+e/RnRh6p5GNQxRmnRvsfg0pgsmJibuY1QDAABNE2edOPM49zXj14CzLJsxqmHI/Fpw4/pyp9PZxcgGAACaIs44cdZx3mtMxxjVMCJZlnXSJLzVQtSYLwo5Ib2sY0Y2AADQAGNxxnHWa863Ac/Ozu5mWMMIpUX1DRajRnW0UQ0AANRdnG2c7xrT+izLCqMaRmxubm7HPM+/ZlFqVK82sgEAgLqKM41zXXMqiuJdRjVURLfb3SdNzJstTs35sNW0yB5oZAMAAHUTZ5k40zjXNabzxsfHdzWyoULSxPxDi1Ojutm3LgEAAHUSZxhvUGlUt6XXdI2RDdUzliboaRapRnVNvMvT0AYAAKqu/A21a5zjGtUbjWyoqDVr1jw4TdJrLVSN6oe9Xu8BRjcAAFBVcWaJs4vzW6M6K76DwOiGCiuK4oUWq+Z9BkNqtdENAABUTZxVyjOLs1tzumFqauoRRjfUYxH+jEWrcd/GdObs7OxuRjcAAFAVcUaJs4ozW+POny8zuqEmut3uHmniXmbxalz/6O3YAABAFcTZJM4ozmmNewB4itENNZNl2VMsYI3s4+nlHTPCAQCAEYovpvy481njumpycvJ+hjfUUJrA77OINbJ3GN0AAMCo5Hn+TueyRr4L8DeMbqip8fHxXdNEPtdi1sjF+U+McAAAYNjiLOJM1sgz5l8b3VBzeZ7vlyb0zRY1H9YKAACwEnEGcRZrZN/1RZTQEGlCv8qi1sg2pOaMcAAAYAjnyrnyDOIs1qxuy7JsjREOzREf2vpPFrdGdrvPbQAAAAYpzhxx9nD+8lFTQA1kWbZXmuBXWuQa2c15nh9glAMAAP0WZw0fMdXYTksv8ZhRDg1UFMVT0yTfaKFrZNenm/NaoxwAAOiXOGPEWcN5q5FdNT09fX+jHBosTfR3W+wa2zWpCaMcAADow9lxojxjOGs1sDzPn26UQ/MX8p1TX7foNfdBYLfb3cdIBwAAlivOFB4ANrpjjHJoiampqUd4S3ejuyzP83EjHQAAWKo4S8SZwrmqsf1Xp9PZxUiHdi3sz7f4NbqfTE9PP8RIBwAAFivOEHGWcJ5qbDd4wwi0VFoA/tYi2Ogu8iAQAABYjPIB4EXOUY3+HMCDjXRoqZmZmXukheB8i2Gj+58sy/Yy2gEAgPnEmSHODs5Pje7jRjq0XFoI9k3daEFsdOd7EAgAAGxL+QDQm0MafiaMNwEZ7UB8PuDBFkUPAgEAgHbxALAV3dTr9R5jtAN3ircGWxw9CAQAANrBA8DWfA7gIUY7sAWfD+hBIAAA0A4eALam44x2YJt8PqAHgQAAQLN5ANia/ntycvJeRjwwrzzPX2Kx9CAQAABoHg8AW9ON6bXuGPHAgtKC8TcWzVb03enp6YcY8QAA0Hyx9493hzkHNb+iKF5kxAOLMj4+vmue5/9p8WxFF3kQCAAAzVY+ALzI+acVfcSIB5Yky7KHpcXjWgtoOx4Edrvdhxv1AADQPLHX9wCwNd8E/J/xph6jHliyoih+Iy0kGy2mreiydMMYN+oBAKA5Yo8fe33nnVZ0bbyZx6gHli0tJG+3mHoQCAAA1IsHgK1qY1EUzzTqgRWZm5vbMS0op1lUW9M1qQkjHwAA6iv29OXe3hmnHV8EcpRRD/TFzMzMr6aF5WKLa2v6eWrayAcAgPqJvXy5p3e2acfnAH4xveyrjHygb4qiyNICc4tFtjXdkG4mTzbyAQCgPmIPH3t555nW9KOJiYn7GPlA3xVF8bsW2VZ1c3rNDzTyAQCgFue1A2MP7xzTnvNalmVrjHxgYPI8/7DFtlXdnjYTLzLyAQCgumLPHnt355dWfQ7g7xj5wEB1Op1d0oLzVYtuq9qQ5/nLjX4AAKie2KvHnt25pVWfA/hhIx8Yil6v94C08Fxu8W3djeZNRj8AAFRH7NGdVVr3DsAz0587G/3A0KSF5/9v706gJC3LQ49PD5sgyCAicMUlsVEo7Z6qd96qou2L9lWjGBSR2KJxT/S6BIjLjSHRKFETiaISORhM1BC3RIlLTIxrFFGjuAeCmiiLCGEzOggOO+c+j/lMRmCWnumllt/vnP+p0XgMztT7vs/3TVd9vdh4rrcJj92B88b445+wAgAAYEVN5GzuGmXs+v709PTdvf2BZRcb0NNtwmP5E4Hv8DdPAACwYtdhOzUzueuT8eq6+HNfZwUAK3kAnWwzHss+Eu1mBQAAwLJef+3WzOKuScbvhzGeYgUAK2pubm7H2JD+yaY8lofQF9rt9hqrAAAAll7O3jmDuxYZy15vBQADodfr7R2b0oU25rHsX/v9/gFWAQAALJ2cuXP2dv0xlt/L/qn5+fkdrAJgYMTmNBVdY5Meyy6Jg+mBVgEAACy+nLVz5nbdMZZ9d2pqai+rABg4pZTHxCZ1i416LLu62+0+xCoAAIDFkzN2ztquN8ay9dFBVgEwsGKTOt5mPbbdWEp5glUAAADbL2frnLFdZ4xlt9RaH2UVAAMvNqt32rTH+jsrXmgVAADAdl1TvdC1xVj3YqsAGAqTk5O7xKH1zzbusb4R+EZfXgsAAAuTM3TO0q4pxrq/tBKAodLtdveLzetiG/hY98FoN6sBAAC2LGfnZoZ2LTG+fb7Vau1sNQBDp9PprPXE4LH/icCv9Pv9fa0GAADYtJyZc3Z2DTHWXRjX0PtYDcDQio3scE8MHvsuisOsZTUAAMDt5aycM7PrhrHu6lLKwVYDMAo3Ao+1qXu8fQw3D7MaAADgF24APixnZdcLY93N0SOsBmCUbgSeanMf+24spTzTagAAgFWrcjbOGdl1wtj3PKsBGCnNU64+aoNXvA9eG2+J1VYFAABjanXOxK4NFP2p5QCMpH6/f5fY5M6x0auU8netVmt3qwIAgHGSM3DOwq4JFP19/rCMVQGMrG63e8/Y7C614Sv6l+heVgUAAOMgZ99mBnYtoK9NT0/f2aoAxuFGYDs2vZ/Y+BVdXko5xKoAAGCU5cybs6/5X9H3o/2tCmCcDsHDmqcgOQR0ffTrVgUAAKMoZ91m5jX76+put/sAqwIYx8PwWQ4BbdSJvhMDAIBRkbNtzrjmfDXdWGt9uJUBjK1SyqsdBtqoj7Tb7TVWBgAAwyxn2pxtzffa6OGIz7QygHE3EZvhOxwK2qjvRAdZGgAADKOcZZuZ1myvn98AfIWVARBardbOsTF+3OGgjVofHW51AAAwZDcAD29mWTO9ft5fWBkAG5mdnd0jNsevOyC0UbdEx8fbY8IKAQBgwE3k7NrMsGZ5/bx/8L3nAHeg3+/vG5vkBQ4K3aYzWq3W7lYIAACDKGfVnFnN7brNR4C/HK+7WSEAm9Butw+MjfIqh4Zu03m9Xu9+VggAAIMkZ9ScVc3ruk3f63Q6+1ghAFtQa+3FprnBwaHb9JN4bzzWCgEAYECuWx6bM6o5XbfpylLKpBUCsJVi0zwsNs8bHSC6g17lezUAAFgpOYvmTGou1x10dVSsEoAFqrU+ySGiTfSxmZmZu1olAAAsp5xBcxY1j+sOurHT6TzMKgHYRrGRHucw0Sa6sBusEgAAlkPOnjmDmsN1B+VToeetEoDtvxH4SoeKNtEN0fOtEgAAlvia5PnN7GkG1x31PKsEYJGUUk5zsGgzvafVau1upQAAsJhyxsxZ07ytTVVrPcFKAVhEzZfvnuGQ0Wb6VrfbfYDVAgDAYsjZMmdMc7Y206lWCsASaLVaO9daP+qg0Wa6tpTyFKsFAIDtkTNlzpbma22md8dbZcJqAVgisdHuFp3lwNEWeuvMzMyuVgwAAAuRM2TOkuZpbeEjwB+O152sGIClvxG4Z/Q1h4+20Hk+HgwAwNZqPv57njlaW+gz+cMpVgzAMul0Ovv4fg5tRT+ttf6mFQMAwObkzJizo/lZW/gJwK/kD6VYMQDLrN/vHxAb8AUOI21F75qdnd3DqgEAYGM5I+asaF7W1nzSKH8YxaoBWCGllMnYjC9xIGkr+m6ttWPVAACQcjbMGdGcrK3oe/lDKFYNwArr9Xr3i035KgeTtqIbohev8hQvAIBxNpEzYTMbmpG1pS7pdDr3tmwABkRszFNuBGoBfTza38oBABi764b9m1nQTKyt6fL89JmVAzBgOp1OjU36ageVtrIro8OtHACAsbkBeHgzA5qFtTXlD5lMWTkAg3uw96NrHFja2kopp8zNzd3J6gEAGE056+XMZ/bVAro6f8jE6gEYcHHAPzQ27Q0OLi2gc+J9M231AACM3LXBdM565l0t5AZg/nCJ1QPgRqBG/6Ehq60gAICht9rDP7QNbai1zlk+AG4Eajw+HnxmvN7LCgIAGE45yzUznflWC7oBmNeQVhDAcN8IvNGBpgW2vtb6VCsIAGC45AyXs5x5Vm4AAoznIHCEG4Haxt7b6/X2tooAAAZbzmw5u5lftQ3dGNeMv2oVAbgRKF0aHW4VAQAMppzVmpnN7KptuQF4hFUE4Eag9N/F++ft/X7/LlYSAMBgyNksZzSzqtwABMCNQC12F0ePsJIAAFZWzmTNbGZGlRuAANwxTw3WInRqq9Xa3WoCAFheOYPlLGYelRuAALgRqOXqwuj/WE0AAMsjZ69mBjOLyg1AANwI1LL3Zt8VCACwdHLWypnL3Ck3AAHY3huB1zgQtb3fFRjvpUdaUQAAiz6vP9J3/2kR2pDXflYUwJiLA6EfXe1g1CJ0ervdXmNVAQBsn5ypcrYyX8oNQAAWVafTqXE4XOWA1CJ0eXSkVQUAsG1ylmpmKrOltrer41pvxqoC4LbDxpQbgVrEzoj2t7IAALZ6Ht+/maHMklqUG4D5qS8rC4A71Ov17hcHxSUOTC1S62utz4m31oTVBQCwSRM5M+XsZH7UInVVvKc6lhYAm1VKmYxD4wIHpxaxz8X76mCrCwDgdrP3wTkrmRe1iF2Wn/KyugDYKv1+/4A4OL7lANUidkMMua+YnJzcxQoDAMZdzkQ5G+WMZE7UInZx/lCHFQbAgnQ6nX3iEPmag1SL3LfivfVgKwwAGOM5+8H+wl1L0PfyhzmsMAC2SRwke0ZnOVC1BJ2eN5qtMgBgjG7+5V+yn24O1BJ0rtkagMW4EbhbrfWjDlYtQT8qpTw73marrTQAYIStzpknZx/zn5ags6empvayzABYFK1Wa+c4XM5wwGqJ+mKn01lrpQEAoyZnnJx1zHtaoj7d7/fvYqUBsKjm5+d3KKWc5qDVEnVz9PrZ2dk9rDYAYNjlTJOzTTPjmPW0FH3QQ/cAWFJx2LzSgasl7D9KKU+Ot9qE1QYADKGJnGVypjHXaamqtb49f0jDcgNgOW4EHufw1RIPNp+NAXraagMAhkXOLjnDmOW0xJ20yl+YA7CcYsB5UhxANzqEtcQfEX5TPqXaigMABlXOKs3M4qO/Wup+14oDYEWUUg6Lg2iDw1hL3JW11t9Y5W88AYDBMpEzSs4q5jUtcbdEz7LkAFhRMfj04kC6ysGspa6U8uXoEKsOAFhpOZPkbGJG0zK0Ia65HmvVATAQ2u32gXE4XeCA1jL17rVr197DygMAllvOIDmLmMe0TP2o1jpr5QEwUPr9/r5xSH3dQa1l6qfRy2dmZna1+gCApZYzR84ezQxiFtNydEm3232A1QfAQJqdnd0jDquPO7C1jF1USjl6le8LBACWxkTOGjlzmLu0jJ3X7/cPsPwAGGitVmvnGJTe4eDWMvf5qG8FAgCLJWeLZsYwa2k5+9zU1NReViAAwyL/xvTVDnCtwMND/rrdbt/HEgQAtlXOEjlTmK20Ap0xNzd3J6sQgKGTj7GPbnaYa5m7vtb62hjg11iFAMACbv6tyRkiZwnzlFag16/yFTcADLNSymFxoP3Eoa4V6IcxyB8zNze3o5UIAGxKzgo5M+TsYH7SCnRLdJyVCMBI6Ha77TjYLnXAa4X69xjsH7/K36wCAL9oImeEnBXMS1qhNpRSjrIUARi1G4H3jEPuHAe9VvD7Ar8c78OHWI0AQM4EORuYkbSCXRXvwwdZjQCMpH6/f5da60cd+FrhPhJD/7QVCQDjJ2eAnAXMQ1rhvhPXRb9sRQIw0ubn53eIQ+9UB79WuFvjIuAdnU7n3lYlAIy+PPPz7M8ZwBykFe4zU1NTe1mVAIyNOPyObb4E1yCgleyG6ORut7ufVQkAoyfP+DzrmzPf7KOV7vRWq7WzlQnAON4IPDy6xjCgAeja6MR2u73GygSA4Zdnep7tzRlv1tEgfD/171uZAIy1TqezNg7Fiw0GGpDWRy9rtVq7W50AMHzyDM+zvDnTzTYahK4rpTzB6gSAVf/1MY1a6z8bEDRA/TCGtRfMzMzsaoUCwODLMzvP7jzDzTEaoC6L65yeFQoAG5mcnNwlDsh3GhQ0aIObm4EAMBQ3/y4zt2jA+nq/3z/AKgWATYjD8ngPDJGbgQCAm38a4u//+9t43c1KBYAtiEPzMR4YogHtkui5nuoGACsjz+A8i6NLzSUa0F4Vb9UJqxUAtlIcnlPRhYYIDWj5MJvn+clAAFgeeebm2euBchrkB4DUWp9ktQLANuj1envHYfpPBgoN8seEoxd7mjAALI3mab8v9rFfDXg/KKWss2IBYDvMzc3tGIfqyQYLDfrThKOXtdvtNVYtAGy/PFPzbPW0Xw3B9/99od/v72vVAsAiiQP26dH1Bg0NeOujP47uZtUCwDbNfHdrztL15goNQX/hu6IBYAnUWnu+BFpD0rXNT7Dey8oFgK26+Xev5uy81hyhIeimuDY5xsoFgCXU7Xb3i0P38wYPDdGA+M7ogVYvANxenpF5VuaZaW7QkHRFvGfnrF4AWAb5I/ellFMMIBqyPhLv20OtYABYtSrPxDwbzQcapmqtX+l2u/e0ggFgmcUh/LQ4jK8zkGjI+mJc+Dwu3sKrrWIAxszqPAPzLDQPaAgfAPK2ycnJXSxjAFgh3W63HYfyhQYTDWHfi2Hyt6anp+9sJQMwyvKsyzMvzz7nv4awG6PnWskAMABmZmbuGgfzxw0oGtJ+FL1m7dq197CaARglebblGdecdc58DWP/0el0ZqxmABgg8/PzO8Qh/croVsOKhvhvmd9Va+1Y0QAMszzL8kxrzjZnvIb1479n5kMJrWgAGNyh81H+tlkj8KXTn41+bW5ubkerGoBhkGdWnl15hjnLNQKz2GvzhwysbAAYcJ1O596llC8bYDQCXRwd3+v19rayARhEeUblWdWcWc5uDXtXNw9wAwCGRT65Kw7xNxtkNCJdl0+k81FhAAZFnknR2/OMck5rRDqn3W4faHUDwJAqpTw5DvRrDTUaoT4X/Xqr1drZCgdgOeXZk2dQcxY5kzVKnR7tZpUDwJCLA/2g6FzDjUasK6MTa62/bJUDsJTyrMkzpzl7nMEaqU9bxPv7N61yABghMzMzu8Yh/1aDjkawW0sp/xg9xhdYA7BY8kzJsyXPmDxrnLcawb4TTVntADCiYpB9io8Ha4T7fvQH/X7/AKsdgG2RZ0ieJc2Z4mzVqPauVqu1uxUPACPOx4M1Bt0S/UN0ZLSTVQ/AFmajnZoz4x+aM8RZqlHt+ui5Vj0AjJHm48F/bhDSGHR5fo9TKWXSygdgY3k2NN/1d7nzUuPw8d9ut9u28gFgfIffJ8RAcLWhSONQvN/PrLU+bXp6+s5WP8B4yjMgz4I8E5yNGqP+0sd/AYBVvV7vl2Iw+KLhSGPUNXEB+PZoLpbAhF0AYORN5J6fe3+eAc5BjdPMk98JbgsAAP5b8104r/H0O41hF8ZF4Ql5M9xOADBacm/PPT73euedxrCvtdvtA+0EAMAdikH5V2JguMzQpHH9uHD07Kmpqb3sBgDDKffw3Mt93FfjXMz0b5ycnNzFjgAAbFan09knhoe/N0BpjLsh+mAM0I83QAMMvtyrc8/OvbvZw51lGteuiLXwKLsCALAgMUQ8N9pgmNKYd3Up5W3RQ2NZrLYzAAyM1bk35x7tIWfSz/rI9PT03W0NAMA2icH64BgovmGokn7Wf8SaOKXb7T5olQeKAKyEidyDcy/OPdm5JP2s66PjzCYAwHbLj9jEYHGSAUv6hS6OXh8XoocYugGW9sZf7rW55zZ7rzNI+p/+NdbHtG0CAFhUnU7nYTFoXGLYkm7XBdGJsUaqG4IAi3PjL/fU3FubPdZZI92+k+fm5u5kuwAAlkS73V4TA8d7DF3SZn9C8ORSyqGrfIcgwELkd/wdmnuon/iTNtultdaH2zIAgGURQ/rRMYD8yBAmbbYrY62cFh0Wv97JzgHwi3JvzD0y98rcM50b0uartf7N1NTUXnYPAGBZrV279h4xjHzcQCZtVT+O3t3cQN/TDgKM8Y2/PZu98N3N3uiMkLbc+lg3T7aDAAAraSKGkmOjDYYzaau7KQb5T+aT/Nrt9n1sI8Coy70u97xm77vJOSAtqE93u9172kkAgEEZ7g+Mwf4LhjRpm/qXWusfdTqdmfn5+R3sKMCwy70s97Tc23KPs89L29SGmK9/a5WHjgEAgzjwx6DyOzGwXG9ok7a5/4x19Ndx4fy06enpu9tZgGGRe1buXbmH5V5mP5e2vfzL9fxLdjsLADDQOp1OK4aXrxrgpO3u1ujsuKg+IV77fkoQGCS5J+Xe1OxRZzd7lr1b2r5uyL9Ud+YDAENjbm5uxxhiXuZ7f6TFfbhIXGy/P3pO9Mt2GmC55d7T7EHv91APadH7aqytB9ppAIChFMPMlJ8KlJas86M/K6Uc1W6319hxgMWWe0vuMbnXNHuOvVdagp/+q7W+NP8S3a4DAAy1HGhysMkBx5AnLVm3NDfcT4oL9ke3Wq3d7T7AQuXekXtI7iXNnnKL/VXy038AAAsSQ85B0ZcMe9KydHOz3k6MC/pHTk9P39kuBNxW7g25R+Re0ewZN9s/pWXp+lrrS/z0HwAwsjZ6gvAGw5+07DcFz25+uufI6G52JBg/ufabPeCkZk9w009a/vKG+0F2JABgLLTb7QNj+PmMIVBa0b5da31LKeUpHjQCoynXdrPG35Jr3r4nrWg/jbX4Qk/+BQDG0UQMQ8+K1hsKpYHoiuhD0e92Op0Hx+tutikYHrlmm7X7u81avsK+Jg1Mn+j1er9kpwIAxv2iZf/oA4ZDaSA/QpwPBnhzrfWpzUeXVtu1YCCszjXZrM03N2vVR3ulwes/SynPiDU7YdsCAGjEgHRUDEqXGRalge6a5qP8r4s1e7SPEcPyaD7We3SuvWYNXmM/kga+93W73f3sYAAAd6Ddbq+Ji5zTYmi61eAoDU0/yo851VpfGz0p1vDBvu8Itk3zAK2Dcy3lmsq11awxe400PF0c6/cIOxoAwFbodrsPigHqXEOkNLTlE8C/1NzUf268HjI7O7uH3Q3+R66JXBvNGjmteWLoBvuHNLTdEp3carV2t8MBACxADFE7Rce7IJJGqotqrR+O19eUUp4cTcfF0s52PEZZvsfzvZ7v+XzvN2vgIvuBNFJ9Ldb4OjseAMB2yO9BisHqY4ZLaWS7KTovHxAUF1CvjjX/tE6nU/3kIMMm37P53s33cL6Xm4deneeBHdJId230orm5uR3tggAAi3cz8IkeHCKNXT+Itf+pUsop8evfjg5vt9sH5k8K2xVZCfnea96Dh+d7Mt+b+R7N96r1Ko1dH4ruZWcEAFgC/X7/LjFs/amfqpDGvtwDLiilfDJeT621vjBej+x2u+3cJ+yWbO9Zk++lfE81761Tm/faBc4fSdGFsSc82m4JALAMmouzLxpCJW3micVfbz5i/IZ4Pa7W+tj8vqZ+v7+vXXTsb/Ltm++FfE/ke6N5j3ygec94Eq+kTXVj7Bt/FK+72UkBAJbXRFy4PTsGsR8aSiUtsBui8+Ni7rPx+u7oxPj1MbGnPCFeZ+N10kXe8Mk/s/yza/4M88/ymPyzzT/j5s/6/ObP3hqQtNA+HR1kpwUAWNmLvrtFfx7dakCVtMhdE/1bdFb03uZjoa+I1+fH69HRQ2utD+x2u/v5nsIl2d93yt/b/D3O3+v8PW9+7/PP4NTmz+Ss5s/oGu9XSUvQpflkbzsyAMAAyScyxqB2tmFV0gr2k+j70TeizzQfR35bvJ4UvSw6Nv71M6LH1VofHq+H5A2u2L/u3W6318zPz+8wKnty/m/J/035v625iXdI87/5cfl7kL8Xze/JSc3v0Qea37NvNr+HP/F+krTCT65/nSfVAwAMrom4yPyNGNquNLxKGuKHnqxvnoZ+UXRu3lQspZwZr59onkaZvSs6PWuennxy0x/GPnjCHRX/tz+I/+wLsvz1Zv5zf/jz/77mv/v0pndt9P//E80/0zeaf8aLmn/m9R6eIWmYax4E5KO/AADDIAa3PaM3uRCVJEnSVvb9WuvjTdIAAEMoP4LWfJGzwVaSJEl31HXRKz0QCgBgBOR3UMVgd4EhV5IkSRv1vna7fR/TMgDACJmcnNwlBr3f8wRJSZKkse+b3W73ISZkAIARFkPf/s0X3N9qAJYkSRqrrqq1PmeUnsYOAMAWdEMMgp83DEuSJI18N0avb7fba0zBAABjqtb6azEUnm84liRJGr1i1nt/vN7X1AsAwKpWq7VzDIcvjtYbliVJkkair5ZSDjXpAgBwO71eb+8YFk+JofEmg7MkSdJQdkmt9Wkx2q023QIAsKWbgfdrPjpikJYkSRqOro757aUzMzO7mmYBAFiQbrf7IA8PkSRJGuyHfuQnOTqdzj6mVwAAtksMlkfFgPlvhmxJkqTBKWa0v2232weaVgEAWDRzc3M7xrD5vOgyQ7ckSdKK9rlSyiEmVAAAlkyr1do9Bs+XeZKwJEnSsndOKeXRJlIAAJZNPkk4BtGTousM5JIkSUvahbXWp67yxF8AAFZKv98/IAbTt0Y3G9AlSZIWtSuiY1ut1s6mTgAABkKt9f7R3xjWJUmStrv82pWX59ewmDIBABjUm4GdUsrfGd4lSZIW3LXRie12e42pEgCAoZBPrIs+aZiXJEnaYvkdyyf3+/19TZEAAAylWutcDLWfM9xLkiTdrptKKad1u917mhoBABgJMeAeFoPulwz7kiRJP3ug2ukxH02aEgEAcDNQkiTJzT8AAHAzUJIkyc0/AABwM1CSJMnNPwAAGKCbgR4gIkmSRqEba61vd/MPAAA2IZ8mHAPzmS4eJEnSMN78y6f9xuu9THUAALAVYoA+JAboj7mYkCRJQ9B10clr1669hykOAAC2QafTqeH9MVjf6gJDkiQNWD+JTux2u/uZ2gAAYBGUUg7OL9bOj9m44JAkSSvcD2utL22322tMaQAAsATyO3ZKKac0H7txESJJkpazi6PfjnYzlQEAwDLodDr71Fr/KIbwH7sgkSRJS9y3SynPbLVaO5vCAABgBcQwvnsM5i9q/mbeRYokSVq0SilfqLUeESPHalMXAAAMgBjUd4oh/anxeq6LFkmStB3dGjPFh6NZExYAAAyuiRjafzUG+E+7iJEkSQsoHz721nwYmXEKAACGSAzxMcuve3d0kwsbSZK0qSf9xszw6m63u5/pCQAAhli/3z8gBvzXRetd6EiSpKZ/i57nSb8AADBimoeI/HZ0oQsfSZLG9mEfZ3rYBwAAjIH5+fkd4gLgqLgA+KyLIUmSxub7/v4qvyrEJAQAAGOo1tqJi4LToxtcIEmSNHJdEWf9Cf1+f19TDwAAsGp6evrupZRXxMXCZS6YJEka+r4ePb3Vau1sygEAAG4nLxZKKU+JC4cvuYCSJGmouil6b5zjh5poAACArZbfGxT+MrrehZUkSQPbZfmR33jd3/QCAABss16vt3dcXLzEU4UlSRqoPhfn8xPjdSfTCgAAsJhWx8XGEaWUf4wLjltdfEmStOxdE2fxWzqdzlpjCQAAsOR6vd4vxYXIH0eXuyCTJGnJ+2b0vNnZ2T1MIQAAwLJrHiTyhLgw+bQLNEmSFrUN0elxzh5i4gAAAAZGrfX+cbHy+ugqF26SJG1z55ZSXjAzM3NX0wUAADCw8qcD4wJmPvqE7w6UJGnrvuuvlPI2P/UHAAAMpU6nc++4sHll9AMXeJIk3a6zo2f5rj8AAGAkzM/P71Br/dVSyt/Gxc4NLvokSWNcfm3GydGUCQEAABhZvV5v71rrMXHx8zUXgpKkMemm6EPRkdFOpgEAAGCslFKmozfEBdEVLhAlSSPYOdGL+v3+vk59AABg7OVPRdRaj4jX90XXu2iUJA1xl8eZ9sZ4LU54AACATd8Q3LOU8uy4gPqsC0lJ0pC0IXpPnF2Pyu/BdZoDAAAsQLvdvk9cUL00Lqy+7QJTkjRg3VpK+WS8Pr3Vau3u1AYAAFgEcaEV11nrXhdd7MJTkrSCfSnOpBd0Op3/5XQGAABYOqvj4uvQ6LS4ELvKxagkaRn61+Yn0+/rGAYAAFhm+UCRUsphcWH2zvj11S5SJUmL2PnRa6IpJy4AAMCAmJyc3KWU8hg3BCVJ23nj78T8CgonKwAAgBuCkiQ3/gAAABiwG4KPjt4WF3k/dLErSYrOi14VFSclAADAiJmfn9+hlPLQ6JS48LvURbAkjU+11q/E6/HRQU5EAACA8TFRSjkk+pO4IPy2C2RJGrluij4dHRfdy7EHAADAql6vd79Syu/EheJZ0S0uniVpKMvvgX1v9OtTU1N7Od0AAADYpLh4vFsp5Rnx+oHoWhfVkjTQXZRf81Br/ZX49U5OMQAAABYsHyzSXFieHH3XxbYkrXg3x7782egl0QOdVAAAACy65mPDL4gLz0/FheiNLsYlaVm6Mvqr2H+Pbrfba5xGAAAALJvZ2dk9aq1HxIXpqdH5LtIlafF+2q/5jtaXdTqdGlvuaqcOAAAAA6GUMllrPSb6sO8SlKSFf7df7J9vib30qPj1nk4VAAAABl6r1do5Lmbn4mL21XEx+yVPHJak2/Xj6IP5lyf5VQtODgAAAIZe/lRLdGQ+wTJev+3iX9IYdn30T7EP/n6ttTc/P7+D0wEAAICR1u/3D4gL4afEBfFbo++5OSBpBMuHJ30+fyK61vrwmZmZXe3+AAAAuClYyjPigvn0/F4sNw8kDftNv/j1bnZ3AAAA2Ix2u32f/EnB6LS4kP6WmwuSBrCf5sd7a60nuOkHAAAAiyAuru+W3ykYnRSdHd3sBoSkZe6q6EPRi6P+3NzcjnZnAAAAWNqbgrt1Op0Hx+vv1Vo/HK9XukEhaRHLJ5qfE/vLW/KrCuL1/rH1TNh9AQAAYIW12+0D40L9aXHh/mfRN/y0oKQF9MPYPz4ary+PHjE7O7uHXRUAAACGQD6JMy7qZ6MXllL+2lOIJTVtiD3hC9EbYn94Yvzr+9oxAQAAYIT0er2948L/sLjwf2lc+H8gutgNEWmkuy6/RzQfMhQ9u9vttn2XHwAAAIyhTqezT378Lzo+OiO6wI0TaSi7Nn/CL17fVGv9jfj1tBt+AAAAwCb1+/27lFIOrbUes27dur+IX385P0LoJos0MH0/+vvoVbFOH9/r9e4XS3e13QsAAADYLvPz8zusW7fuoFLK0fH6yuiD0Xebp4i6KSMtTeujs/LjvPF6bLfbfUi73V5jRwIAAACW1dzc3J3WrVtX8snEpZQ/aX466Xw3B6UF9eNYQ/8cvT1+/aL8iP7atWvvYYcBAAAABtrk5OQu+Z1k69atm49eHr0n+kb0Uzd8NKbdGl0UfSw6OXpurXWu3+/va8cAAAAARk7+hFPe/Minla5bt+51zUeLz42ud6NII9APos8036f5O/Fef2y3231A3hi3+gEAAABWrVrd7Xbv2el0HlxKeUZ+92Ct9Z3NE08vc3NJg/IU3uic6EPx/nxjvB4X79FHx/u2NTMzs6tlDAAAALAd8gZL83CSR0b/N3p19I7ozPj3L4xucoNKi9AVtdavRO+P99YbohdER3U6nRrtYyUCAAAArKzV69at278b4vXI6PnRa6K/qrV+Kl6/0zxt1Y2u8Sw/bn5hPoAjXt/b/BTf/4vXJ5ZSDo1f3zcfdGMZAQAAAIyAvNHTbrfvU0o5JL+vLR/QEL9+RXRa/PqM6KzoW9GVnnI88OVN3X+Pvtg8mfqtzY3fY+PP8+hut/uQ+DO+f/zrPb3zAQAAANiUifwIaH4MOfrftdYjSinPjF+/KD+OHK+n5pOP49//aLyeHX07ujS6xg26rW5DdHn03eir8fv6yXh9X3NT9jXxe/uSfIhMvP5avD40Xh+YP/EZ7eTtCQAAAMBKm2i322s6nc69161bN1VrnY3XRzQfVX56/Ovn5PfNxesJ8fon8e+dHJ3e9KGmzzTfefiN6JvNT71d1HRJ85NwP28xfmrx1tv8d1660f+/7zX/DN/Mf6amv8t/zvxuxuaf+035xOf835Q3SvMj2fmQl+hx0WH50Jdut9vOn8ScmZm569zc3I7eJgAAS+f/A9WLVXAV5oV7AAAAAElFTkSuQmCC;" vertex="1" parent="1">
          <mxGeometry x="20" y="210" width="80" height="80" as="geometry" />
        </mxCell>
        <mxCell id="gXFku2u7cFtVppEHvoC2-40" style="edgeStyle=orthogonalEdgeStyle;rounded=0;orthogonalLoop=1;jettySize=auto;html=1;exitX=0;exitY=0.75;exitDx=0;exitDy=0;entryX=0.986;entryY=0.634;entryDx=0;entryDy=0;entryPerimeter=0;" edge="1" parent="1" source="gXFku2u7cFtVppEHvoC2-4" target="gXFku2u7cFtVppEHvoC2-28">
          <mxGeometry relative="1" as="geometry">
            <Array as="points">
              <mxPoint x="350" y="500" />
              <mxPoint x="288" y="500" />
            </Array>
          </mxGeometry>
        </mxCell>
        <mxCell id="gXFku2u7cFtVppEHvoC2-41" style="edgeStyle=orthogonalEdgeStyle;rounded=0;orthogonalLoop=1;jettySize=auto;html=1;exitX=0.5;exitY=1;exitDx=0;exitDy=0;entryX=1;entryY=0.5;entryDx=0;entryDy=0;" edge="1" parent="1" source="gXFku2u7cFtVppEHvoC2-4" target="gXFku2u7cFtVppEHvoC2-5">
          <mxGeometry relative="1" as="geometry" />
        </mxCell>
        <mxCell id="gXFku2u7cFtVppEHvoC2-4" value="" style="shape=image;verticalLabelPosition=bottom;labelBackgroundColor=default;verticalAlign=top;aspect=fixed;imageAspect=0;image=data:image/jpeg,/9j/4AAQSkZJRgABAQAAAQABAAD/2wCEABsbGxscGx4hIR4qLSgtKj04MzM4PV1CR0JHQl2NWGdYWGdYjX2Xe3N7l33gsJycsOD/2c7Z//////////////8BGxsbGxwbHiEhHiotKC0qPTgzMzg9XUJHQkdCXY1YZ1hYZ1iNfZd7c3uXfeCwnJyw4P/Zztn////////////////CABEIAPoA+gMBIgACEQEDEQH/xAAaAAEBAAMBAQAAAAAAAAAAAAAAAQMEBgUC/9oACAEBAAAAAOlRQCKAhQIUAAEKBFAAAhQAAAAigAAigAAABFAAAigIoAAEUBFAQoCFAigIUBFARQGGL9/YIUCKDxfEyephPN63YEUAAaHIdhoeB22Z4Gj02cigADw+e6/zvA630XgtPqgAADQ5GL1n2z5+W6kAAAePzWTqPj4be5y3UgAADT430+r8z4bW5y/UAAADT470ur8z4bW3y/UgABFMPE+j1fm/Da2+W6kCUBCmHiPS6tFct1IIoEKHPgNPrAigQoGH4B9ZxFAhQCUBCgQoAAEUBFAAAigNfYA0RgzfcxZcX2+vnfANPcAwa77mb4nx9pGfMAaW6BCgAAS6uzQigEoBC6e4EUAigEVq7QigEUAimrtEKAigEUAAAAAH/8QAFgEBAQEAAAAAAAAAAAAAAAAAAAEC/9oACgICEAMQAAAAAAAAAAAAAAAAAAAAAAAAAAAAAAAALmiWzOgAADWQzqwlAAAN4zolslAAAN4xuyWyUAAA1mUCUAAAAAAAAAAAAAQABQAAAAAAAAAAAAAAAAD/xAA7EAACAQICBwYDBQcFAAAAAAABAgMABBESBRMUIVFUkhAVIjFAQTVxczAyNFChICVCYGNyk0NhgIHR/9oACAEBAAE/AP8Ahcbi3BIM8QI9i4raLbmIusVtFtzEPWK2m25iLrFJJHJjkkVvkQfU3ulhETHAAW93qS9un3vcv1YVFf3sXlOxHBvEKD22lUyOojuAK7jl5hOmu45eYTpruOXmE6ahmls5y0Z8iVPBqtrmK6iEkZ+Y9wfT6SuDb2pKnB3OUVgTgB5kgCrawt7dAMgZ/dzWk7GIQmeJAuUjNSuyOrocGU4g1byieCKUfxqD22EEdwL+OQbjLRFzoq6+fS61b3EdzEJIz/6D6bTv3LX5vQxGBHmDiKt7+3njBMio3urGtKX8Lw6iJg5JGc9mifwEXzftjs9KQPMYJYlDvU1ppa4TJLNCwrRhkh0gsWbzJV/TaRtjc2rBfvocy0DR7ER5HVEGLMcAKju7G1RYDOAYhkO413nYcwOk13nYcwOk1DdQXBYRSBsvZZ/GB9aT097okTsZICFc+a0QVJB8wcKggkuJRFHhmPGrHR0dp4ic8vGpe6dY+s1OfMc1fuX+hX7l/oVamxxfZdX7ZsnZafGB9aT09+ty9s4tz4v1I7ND/jh9N+ySHRJkcyGHPmObFq1GheMHVWo0Lxg6qtUskz7Nk9s2U9lp8WH1ZPT31w9tbtIkZY/otMzOzMxJJOJNaH/HD6b9klnoxpHaTJnJJbGSth0Txj/y1sOieMf+WrWC0hz7Pl34ZsGzdlp8YX60np7iaKCJnlPhpyrOxVMqk7l4Vof8cPpv2SaKtJZHkYNixJO+u57Hg/VXc9lwfqq2s4LTPqgfFhjieyz+MD60np7gRGCQSrimUkijlxOXHDHdjWh/xw+m/wC3Z/GB9aT1GktG+c8CfNBUEMWi4dfPvnYYKld+Hlh1134eWHVXfh5cdVd+Hlh1136eWHXXfp5ZeutHvn0pE/F3PqZLeCU5pIkY8SAa2O05aLpFbHa8vF0itjtOXi6RWx2nLRdIrY7TloukVsdpy0XSKS2tkYMkEasPcL/Nk8jpkCZcTx+wuZXSWNTLqYyp8eAPip55I7uCMnFCgzfN9wNRTu93Km7VBTl+aHA1a3EksjB/J11kX9mOFQXM0gt8LhXeTHOgUYx1FtJnlRrjERlN2Qb8wp3mknaGNwgRQXbDEktRM5mEAm3qmd5MoxOJ3CpJ7lFliBUypJEFfiJKFw0xtxE2TWJLjiASrJQe6CXrmfHU6wAZB7CoJneZUE6zKYszEAeA1b3LvI+s3Rspki/tU1CbmZY5jKED4MIwoO6sLradVtPlEH+4v2V2CTF/3jQ/bmFwd0eqwK4HOCaFlgjIJP8AQSNDwKUbRwiiNwCIGj6jvNLZxxSQSQKEKHqUiorQxx2YxGeE7zxBpIik08mO6TJ+gwp4ZRMZoSoLKA6sNxwoxT51mUxiXJkcYHIRWyu2LO4Mjyxu3DBPYVs2F3r1OAKnMv8AuaNu2qvUzDGYueoVJbuTmiYIxgMRoWMUZhMKqpQ9SkYEVFFcwBIleNol3AsDmC1qztJmx3GEJh8jj9ldjExDDHHH8guSngzccR4SaHkPX3hGSNeLY/kF2zqiZcR4xiR+QXUTSBMqYkHecf5A/8QAHBEAAgIDAQEAAAAAAAAAAAAAAAERMBAxYCCR/9oACAECAQE/AOVSJNEs3YiB4kd33DsevDthkMhj6b//xAAdEQADAAEFAQAAAAAAAAAAAAAAAREwECAhMWCR/9oACAEDAQE/APKtkYuSI6yMotILN80WRd7FknJUVFQvTf/Z;clipPath=inset(25.6% 24% 12.8% 22.8%);" vertex="1" parent="1">
          <mxGeometry x="350" y="420" width="88.52" height="102.5" as="geometry" />
        </mxCell>
        <mxCell id="gXFku2u7cFtVppEHvoC2-93" style="edgeStyle=orthogonalEdgeStyle;rounded=0;orthogonalLoop=1;jettySize=auto;html=1;exitX=0.25;exitY=1;exitDx=0;exitDy=0;entryX=0;entryY=0.75;entryDx=0;entryDy=0;" edge="1" parent="1" source="gXFku2u7cFtVppEHvoC2-5" target="gXFku2u7cFtVppEHvoC2-28">
          <mxGeometry relative="1" as="geometry">
            <Array as="points">
              <mxPoint x="239" y="710" />
              <mxPoint x="70" y="710" />
              <mxPoint x="70" y="514" />
            </Array>
          </mxGeometry>
        </mxCell>
        <mxCell id="gXFku2u7cFtVppEHvoC2-5" value="" style="shape=image;verticalLabelPosition=bottom;labelBackgroundColor=default;verticalAlign=top;aspect=fixed;imageAspect=0;image=data:image/jpeg,/9j/4AAQSkZJRgABAQAAAQABAAD/2wCEAAkGBwgHBgkIBwgKCgkLDRYPDQwMDRsUFRAWIB0iIiAdHx8kKDQsJCYxJx8fLT0tMTU3Ojo6Iys/RD84QzQ5OjcBCgoKDQwNGg8PGjclHyU3Nzc3Nzc3Nzc3Nzc3Nzc3Nzc3Nzc3Nzc3Nzc3Nzc3Nzc3Nzc3Nzc3Nzc3Nzc3Nzc3N//AABEIAHcAfAMBIgACEQEDEQH/xAAcAAACAgMBAQAAAAAAAAAAAAAABAYHAwUIAQL/xABIEAABAwMBBAUGCQkHBQAAAAABAgMEAAURBhIhMUEHE1FhcRQiMjWBsRVCUnKRlKGywRcjM1VidJLR0hYkJTQ2VnUIJjdkc//EABoBAQACAwEAAAAAAAAAAAAAAAABBAIDBQb/xAApEQACAgEDAQYHAAAAAAAAAAAAAQIRAwQhMRITUWGBkaEFIkFxscHR/9oADAMBAAIRAxEAPwC8aKKKAKKKKAKKKKAKKKKAKTvFyi2i1yrjPc6uNGbLjiu4dnaeQFOVWP8A1CS3I+g0Mt+jKnNNL38gFL96BQFRa16TL9qaa51Up+Bb84aisOFG79sjeo/Z2CorAutwtr/X2+dKjOk5K2XlIJPfjjUh0x0eX7UkPyyKmPHinch2UspDnbsgAn24xWGdoa92+YuHNY6twjLDnFl8/JDnAKPIKx2ccZx6o3Vk9Lqy4+h7pLe1Gs2S+qSbkhJUw+AB16RxBA3bQ47uI8N9r1yPo6NPtGqtPT9hSAq5oYOcgoUFJC0KHI7Kh7D411xWRAUUUUAUUUUAUUUUAUUUUAUUUUAVS3/ULb7nJesjiVum0qc6p1KN6W3SdyiO0pJAPce2rpqL9JlulXPRNzYgI6yShKH228Z2y2tK9nHaQnFAfESMzCjMxYyA2yygIbSnglIGAKyHeMHh2UnZ7pFvNtj3CC6HGH07QI5HmD3g7jTtciV3udFcFbdNEZ5cC0fBrSvLnbgkNlgYcUsJOzgjfnPCrhsTMuPZoLFxd66Y3GbRId+W4EgKP05qCyHBddf2O2xPzirYpybNUng0CgpQk/tEqzjs31ZFdHBfZqylla63QUUUVuNZ5mtFqPWFj02j/FZ7aHj6EZvz3lnkAgb/AMKotV8mXG1N3e/327ES3SPJ2JC0tgkkBKUJ5YFKxJDcc/4FYlNrO4vyhse3flRrTLMlwi/j0EpV1Sq99t36InUvpA1ZMmidbIsWHBb9CBKTtOSBzK1D0D2AcOdTHTXSLZL0sRZDvwZchuVDmkIVn9lR3LG7l9FUz8ESpTglTZ74lp/RraOylruSns7c8a9kOzUtdTeLW3cmRweYSNr2oPA+BrVHUb82XcvwtKKaTj48+tce50rmvRXNtofZWVxrLdL3bFtt7ZYbkONhIz2HdV39HVylXfRVon3B3rZTzGXHMY2iCRn7KsRmpHLz6eWFJtpp93gSOiiisyuFeHhUR1L0k6Z08pxmROEqWgHMaGOtWMciR5qfaRVd37pN1LeobhsrLFojLbJQtR6x9Yxu3+inPtIoBsm6wdb6llaYZiu29qUhuRbSvYDrnVgrcQeCV59h354Vs5F/1HOR5PbbAqA8vcZU59BQ13hKSSo1G9KwbffLEzc9KyTa71FSESusUVJeVxIeB9JKt5CuP0YGe0Xe5a4ecgsPt2uKwn++LYd2nZGSR+aPJBwfO476rzxuUro3QmlGrJn0NtNN6bmBakuXBFxkNTZPx33ErOFKPgRU/rnR29osOrnI+gFNw2ojAallQ6xmSsHcCO0bxt5yTnxM1s/TJGaeTF1TbnIThGfKYuXmiO0j0k7+41YNJa1FIWi8229RhJtM6PLZ+Uy4FY7iOR7jT9AcrtH/ALW0+f8A32/vLqTuLbZTtOLQgcNpZAFR6QwYenYrSz6tuey6Ty2HVJ/EVuniiLdINxk2xq6w422H4LgztpUMbSQdxUnkDxrnZIKc0m63Z6rT5pYsEpwVvpjt5H1MlpjsoKEF511QQw0jep1Z4JT41kudsuNguVtiXG5MyZsxlTsqC01jyJPxfOB35O7f2Vt47mjdLtjUmn5KrpMkgt2i2uryYiz6e7ikDmTwG7O/NaSKw8HX5k54yLhLX1kl88VK7B2JHACpnjx4YNPds1afU6jXahSj8sI8i0f/AFQ//wAen75q4eiX/wAdWP8A+B+8qqcYcSL/AHCQSA3HhJStXYclXuFXP0WMrj9HtiQ4MExUrHgolQ+wit+n48kUfirVr7y/KJVVK9Kmr5lxu0jTlrkLj2+KQma60rC33MZ6sHkkc+05FXVXLaVl2TOeXvW7MfWs9pLhq0jkCFzbai2xxuO2lsLwjzE9vE9vDNOxbuw9KREjx5OQPSUjZCU441lpax7LLkmK7vkhe2XDxdSeB9nDFSwSXROmW75HmxIs5dvfiyOpmBpP+ahu+eEnsOQoBXIE91T7UejGbk3CNolKtEmK35Ml6OneYx3Fv8QeRqFaBmfB+uWUKUQ1coy2COXWI89J8cBQ9tWRq+6fA2mblcAcLZjq6vvWfNT9pFQQUk8YkSTdZVuinyND5ZYQ3vJaawgHvJwVHxNat+5sTJUF9ht9JC1IIWjAKVDHEbuOK3MFlMKAyycJDTY2jwAOMk/TmtXbAFuSJLSerjvLy03w3D42OWakkeiLk2yci42d8w57Z3OI3Bf7KxwUD31f2hdUs6p06zcClLEhKizJZ2v0bqeI8N4I7iKoKtO9qW6WOZJjW58NtLWHVJx8YpSD7hRoFk6/sbdo1PMafRi16gy42obgiRjz055FW5Q76jttluRnE2y5KCZaBhpZ3B9I4Ed/aKv/AFBY4OobU9bbmz1sd0cjhSCOCknkRVK6s01O08gx9RM/CFn28M3RtPnNdnW43pV+0Nxqpnw9W519BrezqLdNcXw13P8ATMKIkZqQuQiO0l5XpOJQAo+2sFyuLcFCUhJdku7mWE+k4fwHfSiGL00hDEJ9iXGcA6qa6rKm094Hp9x+mmbDaZEye5D01GNxuZ3Srg/+iZ+cvl8xPZ3VVjhcpbuzs5daseO0unx/ne/Y+LZZZNwej6dZc27jdXOtnOo3hlr46u4AeaO3210VGZbjR22GEhDTSQhCRySBgCo7orR8XS0Vw9YqXcpOFS5rgwpw9gHxUjkKkwroQj0o8vqc/aztbJbI9rllj0pP7099811NXLLHpSf3p775rZHkrmWlJzTn5uVG/wAwwcpHy080+0V9xH1PLkhQADbpQnHZgUxWZAG4BtiHeYeVGG+3JTsnfhJ85P0ZGKsDpZuKH4FmtrC8onPiQrG/LTYChnxKk/RVZI2YcxTLg/uc3Ke5DhHuNfSr2/IbZenJUV2uIi3Mp2s9YoKUdw7SNkeysCT7uzhlPC3NEgEBchQPop5J8T7qzgJQgAYShI3DkBS8GOphoqeO0+6rbdV2q7PAcK+bq51Vtkqzg7BA9u78ayIM0R8SY6HkpKQveAaimofWzvgn3Cpaw2GWW2hwQkJqJah9bO+CfcKMk7RzS8xcduI85LU2mMlCi6XcbARjfnPLFQzpHt2oprsFy1Ga7bGkr8rjW6WI8hat2yoKI84Df5uRmoZ8KXCXHk2QaoUTIZLLlq1PELLuCCDh1OCe4jPCtbaXJKVmGfG6PH7g6LPfLoiIteX7fa4zrjajxwlWx5oPMA/RUwtGtrFZYjcGBpfUEG3tDzXBa1BvvJ37We8ionZdOdIjfVx5GpGIURpIQjq20PKIG4YGyMjA5nNTKffrZp6My1eLs35QlCU+dvdePDPVpGck9g51Xlmp1FWblByXzPgUndL0BqA/Ng2G8yozTvVCSphLbKlbQT6RVkceBTnwpAdMy/8Aa8n623Ubnvok9Ft7fQFpS7fFrSlxOyoAyEneOR38KjVWkrNBZP5ZVf7XlfW26rCJtlta3W+rU4645sEg42lE8R41morJKgJW39JN/eVe4U7SVt/STf3lXuFO0RBhmNtuxXUvehskk9mN+a1NhadkoTJkHKUqUpGfjLPpKP2CtheDi1ySPkVkYcShwRUMrSlCAQrHm+Ge2n1JGKRve+3OA8CpH3hT1I3v1cv5yPvCjIHjxqH6h9bO+CfcKmB41D9Q+tnfBPuFGSdo0jdbPbbxHMe6wo8tr5L7YVjwzwp6isAQdXRnbW1FFvvN/t8Q4HkkacerA7E7QJHsNbuw6QsNgO3bLc0h871SHMuOqPetWT9tb2iooEKvPRbpS7GU4uE9HkyXS6uRHkLCtsqySASU7z3Vq/yMaf8A1rffrif6KsmipBW35GNP/rW/fXE/0UfkY0/+tb99cT/RVk0UBy/MtzNovt5t0dbq2o05baVuq2lqAA4nma8p3Un+sdR/8k57hSVZrggTvHqqT8z8RTKXEFQbC09YEg7Od4FLXj1VJ+Z+IphDLYX1wQnrCkAqxvIp9QZKRvfq5fzkfeFPUje/Vy/nI+8KMDx41D9Q+tnfBPuFTA8ah+ofWzvgn3CjJO0aKKKwAUUUUAUUUUAUUUUBy/rW5M27W+oWZCXNtU9axsgHcQMc60/9oYXyHv4R/OvaKlMC8+9xZMJ5ltLoUtOBkDHvr1F4gJkGRsyOsUgJI3YwO7NFFLBm/tDC+Q9/CP50tcb1GlRFNNId2ipJ3gciD291FFTYGjqKFn0Hv4R/OtVLjSLvKclwWVKaJCfOUkHIA76KKhsH/9k=;" vertex="1" parent="1">
          <mxGeometry x="217.52999999999997" y="607.5" width="85.97" height="82.5" as="geometry" />
        </mxCell>
        <mxCell id="gXFku2u7cFtVppEHvoC2-6" value="TRYG" style="text;html=1;align=center;verticalAlign=middle;resizable=0;points=[];autosize=1;strokeColor=none;fillColor=none;" vertex="1" parent="1">
          <mxGeometry x="250" y="690" width="60" height="30" as="geometry" />
        </mxCell>
        <mxCell id="gXFku2u7cFtVppEHvoC2-7" value="User" style="text;html=1;align=center;verticalAlign=middle;resizable=0;points=[];autosize=1;strokeColor=none;fillColor=none;" vertex="1" parent="1">
          <mxGeometry x="-10" y="200" width="50" height="30" as="geometry" />
        </mxCell>
        <mxCell id="gXFku2u7cFtVppEHvoC2-33" style="edgeStyle=orthogonalEdgeStyle;rounded=0;orthogonalLoop=1;jettySize=auto;html=1;exitX=1;exitY=0.5;exitDx=0;exitDy=0;entryX=0;entryY=0.5;entryDx=0;entryDy=0;" edge="1" parent="1" source="gXFku2u7cFtVppEHvoC2-23" target="gXFku2u7cFtVppEHvoC2-27">
          <mxGeometry relative="1" as="geometry" />
        </mxCell>
        <mxCell id="gXFku2u7cFtVppEHvoC2-23" value="" style="shape=image;verticalLabelPosition=bottom;labelBackgroundColor=default;verticalAlign=top;aspect=fixed;imageAspect=0;image=data:image/jpeg,/9j/4AAQSkZJRgABAQEAAAAAAAD/4QAuRXhpZgAATU0AKgAAAAgAAkAAAAMAAAABAAAAAEABAAEAAAABAAAAAAAAAAD/2wBDAAoHBwkHBgoJCAkLCwoMDxkQDw4ODx4WFxIZJCAmJSMgIyIoLTkwKCo2KyIjMkQyNjs9QEBAJjBGS0U+Sjk/QD3/2wBDAQsLCw8NDx0QEB09KSMpPT09PT09PT09PT09PT09PT09PT09PT09PT09PT09PT09PT09PT09PT09PT09PT09PT3/wAARCAHaAdoDASIAAhEBAxEB/8QAHwAAAQUBAQEBAQEAAAAAAAAAAAECAwQFBgcICQoL/8QAtRAAAgEDAwIEAwUFBAQAAAF9AQIDAAQRBRIhMUEGE1FhByJxFDKBkaEII0KxwRVS0fAkM2JyggkKFhcYGRolJicoKSo0NTY3ODk6Q0RFRkdISUpTVFVWV1hZWmNkZWZnaGlqc3R1dnd4eXqDhIWGh4iJipKTlJWWl5iZmqKjpKWmp6ipqrKztLW2t7i5usLDxMXGx8jJytLT1NXW19jZ2uHi4+Tl5ufo6erx8vP09fb3+Pn6/8QAHwEAAwEBAQEBAQEBAQAAAAAAAAECAwQFBgcICQoL/8QAtREAAgECBAQDBAcFBAQAAQJ3AAECAxEEBSExBhJBUQdhcRMiMoEIFEKRobHBCSMzUvAVYnLRChYkNOEl8RcYGRomJygpKjU2Nzg5OkNERUZHSElKU1RVVldYWVpjZGVmZ2hpanN0dXZ3eHl6goOEhYaHiImKkpOUlZaXmJmaoqOkpaanqKmqsrO0tba3uLm6wsPExcbHyMnK0tPU1dbX2Nna4uPk5ebn6Onq8vP09fb3+Pn6/9oADAMBAAIRAxEAPwD2Q5Bz270tFN+59P5UAOooooAKKKKACiiigAooooAKKKKACiiigAooooAKKKKACiiigAooooAKKKKACiiigAooooAKKKKACiiigAooooAKKKKACiiigAooooAKKKKACiiigAooooAKKKKACiiigAooooAKKKKACiiigAoopCc8D8aAAkk4H4mloAwMUUAFFFFACfd+lLRTfuf7v8qAHUUUUAFFFFABRRRQAUUUUAFFFFABRRRQAUUUUAFFFFABRRRQAUUUUAFFFFABRRRQAUUUUAFFFFABRRRQAUUUUAFFFFABRRRQAUUUUAFFFFABRRRQAUUUUAFFFFABRRRQAUUUUAFFFITzgdaAAk5wOtKBikAwKWgAooooAKKKKACiiigBv3P93+VOopv3Pp/KgB1FFFABRRRQAUUUUAFFFFABRRRQAUUUUAFFFFABRRRQAUUUUAFFFFABRRRmgAophmiT70iD6kCm/bLb/n4h/wC+xQBLRUYuYX+7NGfowNPBB6YP0NAC0UUZoAKKKKACiiigAooooAKKKKACiiigAooooAKKKKACiiigAooooAKKKQnsOtAAT2GM0AYH8yaAMf1PrS0AFFFFABRRRQAUUUUAFFFFABRRRQA37n0/lTqDTfunB6djQA6iiigAooooAKKKKACiiigAooooAKKKDQAUVhar4x0rSso8/nTD/lnD8xH1PQVyOofEHUrslNPhW1Q9Gxvb9eBQB6PLNHCheZ0RB1ZzgCsS98baLZEr9q89x/DAu/8AXpXmNzLeX77765klb/bYtj+gpgt1HYmgDtLr4mDkWensfRpXx+grJuPHeu3GfLaGAH+5HnH51iBAOgA+goxQBZl1/W7jPmalcc9lfb/Kqckt1LnzLqd89cyE0/FGKAIPKY9XY/U5pv2cev6VZxRigCAQ46Mw+nFPQzx/cnlX6ORUmKMUATRavq9vjydSuRjoPMJ/nWhD401+2xm4WZR2kjBz+VZOKMUAdVa/Ey5QgXmno47tE5X+dbll8QNHusCV5bZj/wA9U4/MV5zj/JpphU9R+VAHs9tfW16m+1nimX1RgasV4fHHJbuJLeVo3HIZSVI/EVt2HjbWtOwszrdxj+GUZP8A30P60Aeq0Vyul+P9MvsJdbrOU/8APTlD/wACH9cV08ciSoHjdXRhwynINAD6KKKACiiigAooooAKKKKACiiigAoopCew60ABPYdTQBj696AMe+aWgAooooAKKKKACiiigAooooAKKKKACiiigAoIzRRQA0fL16djTqCM0g+Xg9PWgBaKKKACiiigAooooAKM1navrllosHm3ku0n7qLyzfQV53rHi7Utcdobfda2h4KoeT/vN/QUAdjrXjbTtJLRRt9quR/yzjPC/Vu1cPqfiXV9cJDymCA/8soiVH4nqf8APFZ8VmkYGfmPX6VYxQBVjtUTGef0qYIB0/lT8UYpAMxRin4oIA5PA9TQAzFGKR7iJP4sn0AzUL3qjonHqTigCfFGKzZdahj+9PAvtnNVZPElsOPtJOP7iZqrNiubmKMVzp8T23Z5z9BUf/CTw+lx+lHKwujpsUYrmx4nt+5nH4ZqaPxLbH/lu6/7yUWYXRvYoxWVHr1u5AW5hJ9DxVyO/V8EKrD1Q5pWYyzijFMS5iPUlT7iphtf7pDfSkAzFGKfijFAED26P2IPqKmsL/UtFffp9yyrnJTqp+q/4UuKXFAHYaP8Q7a5Ii1SP7LJ/wA9V5Q/XuP1rsYpUmjWSJ1dGGQynINeNSW6S/eGD6jiptN1fUvD0u60lLQE/NE3KH8Ox9xTA9iornvD/i2x1vEefIu/+eTn73+6e/8AOuhBzQAUUUUAFFFFABRRSE/nQAE9h1oAxn1PegDH1PWloAKKKKACiiigAooooAKKKKACiiigAooooAKKKKACiiigAoNFFACAkcH86WggHimgkHB/A0AOoopkkixIXdgqKMlicAUAPrkPEvjiLT99ppu2e6B2s/VIz/U+1Y/iXxnLqTvYaMzJAeGmHDSeuPQe/esK2slhwxw0nr6UARtHcX87XOoSvLI55LHk/wCA9hU4QAAAAAdhUuKMUrgRYoxUuKgmuYoOCct/dHNAEmKhluIouCwJ/ujmsjUdejtwRJJtPaNOSa5y61+5myIAIUPpyx/H/CqUWxNo6u61dLcZd0iHbcck1h3XiWPJEKPMfVjtFc6SzkszMzHqSc0YFWoLqS5Mvza5eS8K6xqeyDH86pSSyy8ySO/+8c0JG0h2orM3oozV6HQ9Qn5Fuyj1c7f51dkhXZnYpcVvReFbl8eZPEn0BarCeE4uN9059dqgU7oWrOZxRiusTwtZDrJOfxFP/wCEY0/1n/77oug1OQxRiutPhexPR5x/wIGo38J25+5cyr9QDRdBqcrilQtGcozKfUHBroJPCco5hukb2ZSKpy+HtQiyREsg/wBhs0aMNUV4NXvYcYmLL6ON1aNv4lxjz4Sv+1Ef6VjS28tucTRPGf8AaGKj4qXFMd7Hb2evRXGAkyuf7r8GtOO8ik4OUPoa80x/9ar1rq93a4Xf5kY/hfn9e1S6fYpSPRcZAIxg96TFc1p3iOKQhd5hf+65yD9DXQQ30cuA/wAjH8Qazaa3K3JcUYqXFGKQFKayB+eE7JAcjHH/AOo103h7xzNZuLPWtzoOBcYyy/73qPesbFMmtkuEww57H0ouB63FLHPCssLq8bDKspyDUleTaJ4gvfDNwEbdNZsctET+q+h/nXpum6lbarZpc2koeJvzB9D6GmBcoopGbGPU9BQAE4+vagD160AY5PX1paACiiigAooooAKKKKACiiigAooooAKKKKACiiigAooooAKKKKACiiigApCARzS0ySRYY2eRgqKCSxPQUAMmuI7aF5Z3WOJBuZ2PAFeaeI/E1x4juTaWW5LFTznrJ7n29qXxF4km8Q332SyytjGe/Hmf7R9vQfjVeG1S2jCxj5T1J7/WlcCK3tlt02ryT1Y9/wD61S4qTFGKAI8U1ysaFmIVR1JpLm5jtUy/LH7qjqa5bWtfEblSRJL2jB4X60JNgaeo6wkMZbeIo+m49T9K5O+16W4JS2zHH3YnLH/Cs64uZbyUyTuWbt2AqOtlBIhvsHJJJJJPJJ5zS46e/A96vadpFxfkMoEcWeZG/p6101jpNtY4KJvlxy7jJ/8ArVd0Tuc7ZaDeXQDFRDGejPwfyratvDdnDgzFp275OB+QrWzRmpuMbFDFANsMaxgdAgxT6SimK46im5pc0BcWikzRmgLi0UmaM0rBcWkpM0ZpjuK4VwQ4DD0IzWddaDY3OT5XlOf4ojj9K0KM0BocreeGrmHLW7LOo5x0Yf41kSRtG5R1ZGHVSMYr0CoLqyt71NtxGr+jdx9DRcDhMVdstWubLC58yIfwOc4+lW9R8PS22ZLYmaIclcfMP8axyKLJgnY7fSdeS4AEbbgOsTnkfSt+GaO5Tch+oPavKQWjcOpKspyGBxiug0rxAwdUuW2SdFlHAP1rOULaopM7rFGKrWV+txhHwspHHo30q7isyiF4lkQqwBU9QahsL+88M34uLVi8DH94h6MPQ+49auYoMQkBQgEN1BouB6HpOsWus2S3Vo+4HhkPVT6GtADqT1PWvI7S+ufDGoC4s/nhY4kUn/WD0Pv6GvUNL1S31exjurVtyP1B6qe4PoaYF2iiigAooooAKKKKACiiigAooooAKKKKACiiigAooooAKKKKACiiigAooooAK848ZeJH1S5Ok6axMKtiV1P329PoP1rX8ceJTp0H9nWbn7XOvzsvWND/AFNctptgLWHcw/esOfYelJgOtbNbWEIoyTyzev8A9arAGPx6j1p+KMUhjCmMEcg/pVO+vVs02jDSkcL6fWpL6/WxTAAaVhwp/ma4TXtWaTclrIWRjiSXOSD/AHf/AK/ftVRVyW7BrOvsZHjt33SHhpeuPYVz/JyTkknJJ5zSAVLFC0pOMBVGWY8Ba3SSRDlcYAegGT2xW9pWhAgTXwOOqxev+9/hU2kaUkYFxIuSeUDD9f8A61bVNsQoAACgAAdABjFKDTaWpsFxaM0maKYrjqKSloEFLSUUALRSUZoAWikzRQAUUUUAFFJRQAZopKKB3DNZep6JFe5lhxHP1yOjfX39606KBnByxPDI0cilXU4KnqKYRXX6npqX8JxhZlHyt6+x9jXJyRtG5RwQynBU9qYbGhpmsNZkRTlmhzwc8p/9au603VUuERJHBDD5JAeGrzLFaGkX8trMIsF4WPK5+77j2FZyhfVFJnqWwk4FKcDgfifWs3StVjlRITIHUj5Zc/e9vpWrisSyKSJZEKOMqwwQar6Pqk/hTVQ/zPZynEijuPUe4/Wru2orm2W5hMTjg9D6GmmM9LtrmK8to57dw8Ui7lYdxU1ea+D9dk0XUDpV82LaVv3bHojHp+B/nXpWaYgooooAKKKKACiiigAooooAKKKKACiiigAooooAKKKKACiiigArN13V4tE0yS7kwWX5UTPLMegrSPSvLvEupP4l8Qi2t3P2O3JVSOh/vN/SgCnp8UuoXkmpXh3vIxYE9z/gOla2KckSxoqRrhVGAPSlxUsYzFVr66Syh3ty7cKvqf8ACrUrpDG0khARRkmuC8Sa42SwOJZBiNf7i+tOKuxMoa/rTvJJCjkyv/rHHb2FYMUhiJ4BVhhlP8VN5JJJJJ5JPOatWVm1y5JyI16n1roikkZt3H29gbgiRSfIz948Y9vrWjp1ul7cYVcWcBzj++3v7d6gu7kW6C2hXhhhlHHHp9fet6ztRZWcca8gDJbpkn+tMknzRmko5pAx2aWmijNMQ+lzTaKLAOzRSUZosK46ikzRQFxaKSigBaKSigBaSjNGaAuGaM0lFFguFFJSZoGGaM0lJzQAtY2v2Alj+1xj94gw+O4/xFbFJjzMrt3bhgj1pbDucOiM7hVGSegp8jqiGOM5B+8397/6wqxfQiyuZLZOQDy3qOo/AVTNMFoX9I1M2MgjkJ8hj/3yfWvR9I1EXSCKRgZVGVbP3h/iK8oNbfh/VWikS3dyGU5ib0PpWc431LTPUMUYqCwvFvrYSDAkXh19D/8AXq1isTQzNWsPtUG9B+9QZHuPSut8D+IP7VsPsly+bu2ABJ6unY/XtWLg1j3DS6DrEOpWnC7slR39V+hFNAeuUVWsbyLULKG6t23RyqGU/wCe9WaYgooooAKKKKACiiigAooooAKKKKACiiigAooooAKKKM0Ac1431r+ydGMULYuLrMaY/hH8R/L+dcnolj9lsw7DEsvJz2Hb/Gmapd/8JN4rdgSbS3O1fTap5/M1s4pMCLFGypcVS1a9FjZFwR5jfKn19fwpDMDxPqyRB4937qHl8fxN6fh0rzi5uHurh5pD8zHp6e34Vo69fG4ufs6sTHGcsf7zf/WrMjjaRwiglmOAK3grK5m2S2ts1zMFHCjlj6VtHZawEgBUQcCktrdbeEIOvUn1NVNWl4SIfxfMatakbEWnIbrVY2bnLbzn2rqkYjOeVbqPX/69c3oI/wBPY/3YziuhzQxJkhTGCDlW6H/PcUUiPjIIyp6j1/8Ar0rpswQcq3RvX/64oAKKKKBC0UlKKBXHUU3NOpiuLRSUmaLAOopuaWnYLi0U3NGaLCuOpKKKLDuFFNzRUjuFBpKTNA7i5oopvJIAGSTgD1oGLgkgAZJ6ClchMqpyT95h3pSRGCqkFiMM39B7e9RUmFzD8RRYkhlx94FT+FYxroNfANnGe4fj8qwKaC42k5BBHBHIIpxFJQNHZ+GNcOVkY/MvyTKO49a71droGUgqwyCO9eLWN41jdJKOVzh19RXqPhq/WaH7MWztG+MnuvpWE1Zmqd0bOyorq1W8tpIW6MOD6H1/CrWKMVBRF8P9We2uptGuTgkl4gT0YfeH49fzr0AV5Prccthe2+p2vyyIwyR2YdPzHFem6Zfx6np0F3F9yVAwHp6j88imhFuiiimAUUUUAFFFFABRRRQAUUUUAFFFFABRRRQAVg+MtVOl+H5mRsTTfuo/x6n8Bmt6vOPG9y+reJrbTIz8kIAbH95uT+QFAEPhyy+z6eJWGHmO76L2/wAa1dlPEaoAqjCqMAegp2KkZFsrhPF2sAPLJGcrF+7iHq3r/n0rsdavPsOmyODiRhsT6n/CvIteuvOvRCD8kQwfcn/Cqgrsluxmckkk5JOST3rV0y22J5zD5mGF9hWfa25uJ1Tt1J9BXQAAAADAHAFdBmGKxb2Qy3Ujds4H4VtE7ELf3Rmue5JJPc5pxJbNHRH23+P7ykV0Oa5S1l+z3UUnZW5+ldTn06dqGJMeKcj4yp5RuoqMUtIGyQjGMHIPIPr/APXpKEfGQeVPUf570EbfdexHemTcdSCkop2FcdRRRTFcWnUzNFMB9FNooEOoptFABSUZopAg4ooopWKuFNNFJ147nge9ILi8lgByTwAO9OJEYKqfmPDMO3sKQny8gH5j1I7fSo6RVxaTNFNNA7mZr7/uIl/vNn8qwq09al8y8EfaNcH6msw1SC+ohpuKdSGkNDTXSeFtTaIqgP723O5PdfT/AD61zlSWdy1neRzD+E8j1FRJXRcXY9yhkS4hSZDlHAYU/ZWH4TvVlgktt2dvzx+6n/DrXQ4rnemhqU72zW8s5YG/jXAPoe361J8OtSYC60qY4eMmSNT27MPwOD+NWMVz88x0Lxda368RSMC+O4PDf400I9TFFIrBgCDkEdRS0wCiiigAooooAKKKKACiiigAooooAKKKKAI5pVt4ZJXOEjUsx9hzXmHh/dqWsXupzZJLHBPq3+A4rs/G96bLwxcYOHnxCD9ev6ZrnvDVqLfRomx80pMh/kP0FJgaOKMVJikJEaF24VRuJ9KQzivGupCKQpn5LaPcR6sf8j868vJZ3LNyzHJPrXS+Lb9rgnJ+a4kLkeg7VzkMZlkRB/EcVtTVkZyepq6VD5cBkI+aTkewq/TUAQBR0AwPakllSFN8jYHb3rQhiXJxayn/AGTWEKtXN+8wKKNkZ4x3NV6pEth/+qt/TLrzrUKT88fB9/SsCrFncNazCRenQj1FOxNzpRS1FHIsqB0OVYZBp9Kwx9PRwMhuVPUelR0oNBNx7goR3B5BHeihJBgq+Sh547e4odChwTkEZDDvTEwp1MpaYrjqKbTqLE3DNGaKKAuGaKKKAuFFNozRYdx1NpM0enX8KBoOe36U84iyB/rOhOent9aQnyhgf609SOdv/wBf3qOk0O4ppKSm0hhUdxMtvC0jdAM/WpDWHqd59ofy0OYlPUdzQkO5RkdpJGduWY5JqM06imCGUlONNqSkNNIacabSKR2Pg3VfJMDseYG2MPVD/n9K9Sx6dK8O0GbytQ8snCyrj8Rz/jXs2iXP2zR7eQ8uq7G+o4/wrCaszVO6LWKx/FFn52kmQDLQtu/A8H+lbmKZNbrcW0kLDiRSp/GoRRqeEdQOo+HLWRjmSMeU5914/lg1t1wXw2ujHJf6fIeUIkAPb+E/0rvaoQUUUUAFFFFABRRRQAUUUUAFFFFABRRRQBwfxKuDI+n2K9WLOR6n7o/ma0YYRDDHEvSNQo/CsTxCft/xFgg6rDsUj0wNx/pXR4zzUsaI8Vl+I7j7NodwQcNIBGPx/wDrZrXxXLeN7jZBawZ6s0h/Dj+poWrA8p1ubzdScA8RAIKTSYt87Sf3BgfjVOWQyzySH+Ji1algVt7BpX6E5+tdKVlYyepaublbaPceWP3V9azI459RmLE8d2PQU6GKTUZzI+QgPJ9PYVrRosaBVACrwAKZLIBZRW8EgUbnKnLHnNZC9q6HGcj1GKwCCjlT1BxVIiQUopKdVEFqxvWtTtOTE3UelbaSLIgZSCpGQRXNirNtdSWx+U5U9VPf/wCvRYVzfzQDVe3uo7gAoee6ngip80Bcdmno+Btb7hOfpUVOoJuO/wD1UoptLmmDHUUlFFiWxaKKKLBcKKKKAuGaSiiiw7iU4OEGR989D6f/AF6ZSUDTCkzRmkpFBTc02SRYkLOwVR3Pesq8v2mykeVj/U0rXC9iS/v94MUJ46Mw71mGnU01WwXuNNNpxptIpDTSGnmmVJSEptOptSUhYpTDNHKOqMGFeweCbkSRXEGcjiRR9eP8K8dIr0X4f3n+lWmT/rI2iP1HT+VZ1FoaxZ6NijFPxRisCzmdJf8Asz4jBeiXBK4/3hkfqK9KrzHxRmy17Tb4cbSCT/ut/ga9NByAR0PNUthC0UUUwCiiigAooooAKKKKACiiigAo9KKDwM+lAHm2nH7X8QNRn6+W0mD/AOO11OK5TwaPO1XU5z1Jz+bE12GKl7jIsV578Q7krdSgf8srYD8T/wDrFej4ryb4hz5vdR/30QfhiiOrB7HADgVfcNMYLSPoqgsff/61URW3pFnJIMxozyy8j2FdTMTc0KPQoopE1n7aFUARfZgPx3Z716JbfDjQbq2iuIZb0xyqHUmQdDyO1eVSI0bMrqVdeCp7V75oH/Ivad/17R/+gis53WqKWp5pc2vgq0vZbaSbVi8bFGZcFcjg9qlb4W6Trlkb3QNWl+ckgSgMufQ4wQfzrl9X/wCQzff9fEn/AKEa774V+Z9j1HP+qMi49N2Of0xTd0rpkqzdmjyTVtJu9C1GSxv4vLmj9DkMOzA9xW94etvB97FZ22pvqiX8zBHMeBEGJwPw6Vv/ABma3Op6YFx9oETl8dduRj9c1weif8hzT/8Ar5j/APQhWiu43M3pKx6xefCvw3YWU11PPqAigQyORKOABk/w1xY/4QDIwdex6/LXsHin/kVNV/69JP8A0E18+aPpsmr6raWETbXuJBGGIyF9/wABzUQu022OpZNWR6N4f8HeDfEKM+l31+0kf3o2lCuv4FenuK5DWHXSdfvrD5nigmMaMTlsD19TTtLkk8JePI4/PDC2ufIlcDaHQnB/nmjxrGJPG2orbMsvmzKUKnIJKrx+ZrSKs99DOTTWi1NDw/o9z4juTHY7TGuPMlb7qfX3PpXUajo3hrwxGkeom4v7txkRq2PxwOg+ua6/w1ocHhvQoLSMAMq75n/vP3J/l9BXiWp6/cajrF3eSEP5spIB/hXPA+gAAqVecmlsVJKCTe7Otin8L6kwhe1utLdj8sol3rn3z2q/deDE0vwzqF3dOk1wpDQyITgLkc/U5PrXAR6jEcbgyn8673Q9ZXU/Amqae8gkltYiU7kp1H5EEU5RcbNExkpXTOYsPsn2yP8AtDzfs2Tv8r73tj8cV2eieF/DuvwSS2ct+BG21g7AEHr6VwYORkdCM16H8Mf+PTUP+uq/+g06l0rpio2crNFHW9D8M6BPHDdyagZJF3ARsDgdPSub0zS5dZ1X7JYg7SS25/4Uz1P4frXQfEn/AJDlr/17/wDs1XfhlGmzUJcfvNyLn2xmkm1DmG0pVOXoZ19D4a0KQ2skFxqV0nEh37FU9xx39ufrUVvb+G9ccW8Cz6XdN/qy7742Ppz/APWqj4i0O+0zU7h5oZHhkkZlmAyGBOefQ896xcg5wfbjtVJXjdPUmUrOzWh1ereEBonhmW7unD3glCgox2hScdPXvU3hLwlY65pL3V28yuJWQbGCjAx6j602519NT+H721zMpvIZFTaW+aQA8HHfjj8KSLUzpPw1Cq4SW8uGiVi2MAnn9AR+NZ+9az3NFytprawqaX4Rk1RLCO5vpJXfywyNlN31x+tbF74D0Kws5rq4lvBFChZiJAcAfh1rh9CDQ+IdLZlGxrqNQQc9TxXqPjNmj8HaqynDC3bBpTumlcqFmm7HJ6PoPhTXJDDa3N8swGRFIwViPbjmsfXbLQfDfiWSy1D7e1qbdZIzCQW3EnOfbArjLPU7mw1K3v45G823cODnrjt9CMiup+Kbrca9Y3afcubJXH0ycfzq+VqSTehHOnF2Wp0eleAPDXiTTYtRtbnUnhkzt3yBSMHGMY7Vz+taR4H0LU5NPupNZeeIDf5TKQM8jqK7j4Xf8iPa/wC/J/6Ea8x+Iv8AyPWpfVP/AEEVEbuTTZcrKKaRqaZpnw/1S6W2F7qlvK5wn2hgoJ9M4xn64qH4ieDLDwrDYy6e9wwnd1fzXDYwMjHH1rn9T8PS6ZoOl6jNKrLqKsyxAEFAPU989a3/ABPqp1n4daBNLMHuoJ2ikGfmOFIyR7gCqs01Z6CumndalDw3aeEr9LS11V9Tj1CZ9haIgRAk4X39BXd3nwo8NWNnNdXFxfrDChdz5o4A5P8ADXlOif8AIf07/r6j/wDQhX0F4t/5FHVv+vST/wBBNTNtPRl07Nao8hhh+HNxIEN3rUAY4EkgG0fkOla+q/B8PZC78P6l9pBXekU2MSDr8rj19/zrzHsPpX0H8NvNHgLS/NznY23P93ccfpRK8Ve4Rs3ax8+SxSW80kUyMksbFXVhgqRxj6imGuo+IzwP491M22NoZQ2P74Ubv1rlz3qlqrg1Z2Gmus8FXXkzQtn/AFVyD+B/ya5RwUOCMEDNbfhqQo9wB22sKmexcdz3cjk0mKfGfMhR/wC8ob8xTsVymhynjqHOm28v92Ur+Y/+tXdaTN9p0izmznfCjcfSuT8ZRb/D0jY+7IjfTnH9a3vCEhl8K6ex/wCee38iR/SrWwM2qKKKYgooooAKKKKACiiigAooooAKjuTstpW/uoT+lSVBff8AHhcf9cm/lQBwHgAb4798clk5/OuuxXK/DwZsr0/9NEH/AI7XXYqHuMYByPrXivjyTN5e8/euyPyr28DkfWvDPHX/AB9XJ7/a2/maqnuKWxyQ9PwFdTZ3D2bh4wCQu0qRkGuXT7y/UV2GlSMl/GoY7Wzlex4roZkV5pXmkkkk++3JGMV7tokix+HtOLMBm3jAz3+UV4hqf/H/ADfQfyr2nQ1I8O6e7f6x4Ilz/dBAqJ7IpbnCtpnhS61yVbm91CN5Jmz5ibELFum7HrWr4l1m/wDA+kiPRdDh+wKcC5MpdVJ7soGcn1Jx715deXSx+Lb97iRhGk8qrjkD5jXtujzQ+IfCNr5irJDexFHB7jGD+PBoata4k73SPBb28v8AW76W9unkuJ5Tlnxn8BjoB0xUmjo0ev6erqyt9pj4Ix/EK1Ne0i8j1yTRbCCSRrYMfLiHUDv9AMH8aPCx+2XVvDP8wjuIyjHnb8w/ka1v7uhlb3tT3LxAbc6DfJeSNHA0DiRkGWC45wO5rivh9p3hOK+abS7ue4v0Q7fta7GVe5VSB+fNdZ4kJfwnqMvSRLaTDDsQDXkCakmk6rpV++7EUoLbRnKkfN+OKygm07Gs2k02UvGKMfF2rPtbyzdMQ2ODUHhiNX8T6WjYCm6jB/OthdRPiHxDfrCrSRXMuYVdcNhuMEetS+NreDQPEumpZwpD9mt4nYouNzBjyfc461snpbyOZq7v5nsWpXKCwulBJYRP0Hsa+cgGAGQRzjkf55r6JiEWoWQmhVZoLiLKEHsRXgd8lza5sbuNlaKU4ZuvHH41NF2bRddXSZPpnh3VdYgeewsnniRtrMrAc4z3+ore0nwfrMEMz/YphMy7WAYDA9OveuXt7mazgMiTyRgk7FRyoZvUgdhXvmhuzaNA7MWka3jZiTkklAcn3qqk3HQilBSPEL7QtW0S3imv7aW2RztUlgcnGe1d/wDCW5/0DUvOk/5apjccfw15teXtzeTyG4uJZTvJG9ycc/pXpfwuna60XUEJzJHIoJ9eMj/CnVv7PUVK3tNDM+Kd0ya/aCNgQbbnA/2qxPC/i6fw9qRldPNtpBtlQDBPuPcfrmui8eypB4ktJAdsLWoBX1YtgVSHhuPU/C+o3UcZa+hcPAwJztAGVA6c8mhNciT2FJP2ja3PQ9M8VaNrCAWt7CXYcxSHaw/A1JqGgaPeoTd2VuSf4gu0/mOa8Jvbh5XEbPuWIBR7kdT9a29I1LUdM01rm1u5/NYEqpYsB+BqHRa1TNFiE9JI1fGXggaZaSahpc8z28fMsMmSUHqD3A9DXCPLI8axtIzRKSVUsSBn0HvXteg6sNc8Kpc3cAjlKvHcDGFYAEE/Q8GvGr+Bbe8dE+5gMoHOM1dJt3T6GdaCVnHqdF4fx9p0Qk9LqLr/AL1eneM50bwbqoUsf9HYZCnFeZeHwpm0cMM5uIgPY7v6V6l4lUwaBeFWYo0TKVJz2rKp8SNqXws+futLJLLLtEkjvsG1d7E7R6DPQVc1e3W3vfkGFkXdgdqoV0b6nNse3/DFwngW1LEACSTJJ/2jXPa9pnhS98a3EmrXd6szMm9NhWE8DA3AdDxW58Mx/wAURbytyEeQqD/vHn615z46Kx+P7wzM2xWjLEH/AGRXMotydmdbaUE2dL8X1iWy0RLYIIV8xUCdAAFx+GK8wSNpHwiMzY6KM11HijX7fXtP0izty5ltQUkZhhSTwMevArWudHi034YXVyIlWSWZAkm3DFQQOvoTmrXuqxD953OP0iKSLX9N3xso+1R9RjPzCvoLxF9mPh6/W9keO3aBxI0YywXHOB3NeFeEpWfXLa3k+eJ5EO1ucEMK9s8UZHhPV8k74reQq2efu5FTU3RrT2Z554X8MeCNYv8Ay4Lu/uZlXettdDyg4H4cgVc8aeN9e0JBp9ppcWnQFdsVyjeYNo4+TAABHv0rk/t39nX2lXxJ3xToc+x4bP4Zr2LxHpS6rotxanEmYjLFuGcMv+I4qXo9dRrVaHziS80hJ3SSMcknkn3+tPit3knWJlZSTkgjGBWgbe8hS7n06GQWtqwE0wAO0nsT6dq2Xi83RIrqRQJmx0GMZrS5KRzOpoEvDjoVBxVrw8T9qmHrF/WoNWH+kofVf61P4d/4/wCT/rmf51Mtio7nvunHfplo396BD+lWMVW0Uf8AEjsT/wBME/lV3FcxqYvipM+Grz2AP/jwq54Dct4Utgf4WdR/30ah8UD/AIpq/wD+uf8AUVJ4A/5FWH/ro/8A6FTQM6SiiiqEFFFFABRRRQAUUUUAFFFFABUN2N9nOvrGw/SpqRhkEeoxQB598Ov+Pa/X0dP5GuzxXF/D/Md7qkJ/hKnH0Yiu4xUPcZGByPrXhvj6PF7ef7N21e7Yrxb4kQ+XqWpjGMTq4/H/APXVU9xPY4JOox2Irr9MRjfxkKSFySQOnFcePX8a6SJ22KVZhuAPBroZkb40eLUr26Nxqdrp6rtCtctgPkdvpXpmm65pEek29smrWcr2qIjFZVG7b6fXFfP2o3TXM23czRocAE5/GqyExkMhKsO4ODScGw5rHZ+JvCttHcahqVnrlhch5WlW3BPmHc2cenGf0ro/ht4u0+y03+yr26jie2kLwvKdokVvvAH1Bz+FeXPNLIBvkZvYnNNwD/8AqquS6syOazuj2LxbqehaRPea5Zzrc6peWn2aLyX3KueNxx04xz7VzXg3RLS2tbbVL7WLO2RnV/Jc4kG09Oe5xXDRSvEMRuyZ7KcUru0j7nYsfUnNChpa4nPW579qOtaLqGi3ViNYs/MuInTKyhsbv/11weq+DYZooFPiDTEVScsST2rz1CUOVJU4xkHFP8xzkF2weoJpqm1sxOonuj1vwZoPh/Qbs3Z1q2vbkrgOGVUT6Dufc1yfxFuob7xaht5VkjWGNCyHIzuP8s1ySOyABWYKOgBxil3k4JZiR0JOcVSptO7ZEppqyR23hXxfceE5m0++86XTi2UZPmMX0B6j2/KtvxBpWneLI3u9I1Kz86VgdsrbAx9cHkHsfWvMkmkQkrIwLckg4zSOTI+5yWPTJOaPZ3d1oxe00s1dHaWvhiHSfLl8QavpyWkZ4hgIlkk77R9a6zwr4wbU9TvIZoRbWbDForqFI2jnPuf6Yrx8AA5wPbFSeZIf+Wjfmabpt7sSq8uyNC3tjqesi2nuILTezgyyDaq4yecevT8a9I8Gx6X4Vtplm1ywnknkBby5AABjHc+vNeTkl8liST1JOc0YHoPyqpU21a+hEaig72PTvGWl6f4g1CN7bXLC38oYdZJM5J5GMUnh3xBaaN4Pu7i5lWSa2uGREVsGVgMDHseteankktyTySec0dsZOM5x2pey0tcft9bpanYTaRoniZzc6PqEOnXUnMtndHau7uVb3/H8Kt2vhCb7AbS91PToAFI3iYNkew9a4Q4PXFMwMg45HII4xT5HayZKqRvdrU7jX/ENpZ6Enh3w7DM0YXbNcMpBbPLYPqT36dhXDyARkjcGwOSKkeaVxhpXI9C2aipxgo6IJT5nc7/QNJs4otJubjWbKN4jHcGEth+DnFdxqeraTrFhNaQ6pagSKQXEgIXjvXgx5OSST0BJ6U55pXTY0rle4J61m6Tbu2bRrJKyRu+KtNitTDPDqdneBiYwsDZK45yfbtUdl4XS7xv1S2tPlBLXBwpz6YrBwB0AH0FDuzgKzMyr0BOQKrldrXI5k3do9s8JXOk6JoEeknWrGeVAzF1kGDuOePYZxXJ+KfDVnrfiCfUI/EGnwGYLuilJJUgY4x1BxmvO+AcgYPbHGKe9xK42tK5HoWzWaptO6Zr7RNWaO00nwVosdysupeJrArGcmKKQLuI7ZPQV0PxE1TTb3wP5OlXFvKEljUxQuCVUew7DFeSEL6D8qEdojujYofVTihwbd7jU1ayR2fgnQLUzWusXes2dvEjbmhdtrjDe/HOM/jXpOpa3oeq6PfWn9s2iG7iZAVlDFcjGcfrXgUsjy/6x2b0yc4pgOw5U7T6jik4Xd2ylOyskdd4x0JdO0q1Md/bXmW2sLcklfl6mvSPBvjKw1jSbT7Rcxw3cEPlzpK23kYGQT1BxmvDY/tE5IRpGzwcE4rRtbLyQC7sxHRQcAUnG61KUmmdt4pbRtL0660nSS0sl9d/abg53KMchQfTOOBmsaaJ/7BjXY24YJGOetZRLEglmJXpk5xTjI/8Az0f/AL6NJKxV7mNq3+uj/wB3+tTeHh/pkx9Ij/Oq+rH/AEkD0WrfhtMzXBx/CF/M0S0Q1ufQGkx7NHsl9IE/lVvFJaxeVZwR/wB2NV/SpcVymhh+LTs8L33uoH5kVJ4BBHhS3z3dyP8AvqoPG7+X4XuP9t0X/wAe/wDrVe8GR+X4UsOMZQt+bGrjsDNyiiimIKKKKACiiigAooooAKKKKACj0oooA888NYsvHWqW2MBvMAH0bd/I12++uHvf+Jd8T1botwQfruXH8xXY7jUNajRPvryn4nW2dSuyB/rbdHHvj/8AVXp2+uK+Ilt5hs5uzo8JP6/1NOO4PY8WH861/tHl6Uj5+YrtH1rIKFCVPVTg1KZSYFi7KxNdW5ixtLTRTqpEMfRTRTxTJY4Uopop1UiWOpRTacKCB1KKaKUVVyWPFOptKKZLHU4UynU7ktDqXNNzS0ybDqM10GieC77WbI3zT29lZdBNcNgN9Pb3qvr/AIXvfDxje4Mc1vL/AKu4hOUY/wCP+c1Kmm7XK9m7XsY9FNoqiLBSUUlBSQU2lzSGkykIaQ0U01I0JTTTqaaTLQlIaWmk0i0JVrTo4pZisibmAyuTVU063k8qeN+wPNSykboAQYUAD0AxTacaQ1DLQlNNKaimmW3haRuijgetBSMfUX33snouBW74NtjNMigcy3CIPf8AzmuakcyOWbqTk16D8OrPfqGn5H3S07fh/kVFR2Ra3PZC4ycdM8Ub6h303fXMaHOfEO426HDHz+8nB+uAf8RXT6FB9m0Gwi7rAg/SuJ8dyG5v9Nsl5ZiSR/vMFr0OJBHEiDooCj8KuOwMfRRRTEFFFFABRRRQAUUUUAFFFFABRRRQB5/8QojaaxpuoKMcYJHqpz/ImulEokAcHhhkVR+INl9p8ONMBlraQP8AgeD/ADqr4evPtWh2rk5ZV8tvqvH8sVLGjZ3+5rC8Y2/2nQHcfegcSD6dD/OtbfUVzGt1aywN92VSh/EVKA+ftWi8nU5hjhjuH41VFbnie1aKSORhhkJjf6j/ACawhXVF3Rk9xwp1NFLVohjhTqZT6ohjqUUynimJjhSim04UyWOFLSUUyGhwp8aGRwo6n9KSNGkcKoyx/DH/ANanu6oDHGcj+Jum7/61Mmwn8R5B7ZHeim0uaaYrD6QkgH6ZpKH+430NMLHbePXMejeG7VSVg+x79g6ZwOcevWksJGuPhLqaTMXW3ulMQPO3lentyfzo+IP/AB4eGv8Arw/otTeG7G51L4Z6xa2cJmnku1Covf7v6VhpyJ+Ztq5teRw+aTNbereDNc0a1N1eWREC8s6MH2j1OOgrDzW0ZJ7GDi09RaQ0lGaYWCgodgfjaTjjtSZoSQxknggjBU96RSQw0lSyRgAOhJjY4Gex9DUNK47AaQ0tNNSVYQ0hpTTTQykIaQ0lFSy0b0L+ZBG3qozTqhsjmzj+mKdLKkKbpGCj+dQWhxIQEkgADJJ7VlSSG/ucDIgi+Y+9NmuJb+QRQghOw9fc1YuI1stPZF+83Bb1oGZRzLJgDljgY969g+H9mIpJ5sfLFEsK/j/+qvK9Ft/O1OPP3Y/nP4f/AF69r8K232XQ4iRh5iZD+PT9BWNV9DWK6nQbvrRv96g30jyrGhdj8qgk/hzWJRzTj+1PiRbxDlLdhn/gI3H9a9Hrz74fxG+1zUNSk5wMA+7HP8hXoNWhBRRRTAKKKKACiiigAooooAKKKKACiiigCtqFqt9YT2zDiWNk/MV5z4PuGha7sJuHjbcAe2OD/SvT68z8QRf2F43FwBthujvJ+vDfrzSeoHSeZR5lQb6PMqBnBeOtMzc3G1eJ181OP4h1/wA+9ecCvbPEtr9q03zFH7y3O8e47/4/hXkGrWv2PUHA4jf51/H/AANb03pYiSKgp1Npa1M2h1KKbSiqJY+nCm0VRDH07NMFOoQmOzTkDOQqjJNNQFyABknpUpcRqUQ5zwzDv7fSnckc8iohjiOQfvMP4v8A6386jpKKZLQ+lpgpc0ybD80jn5D9K6DQ/A+s6/ai6t4oobZvuyzvtDfTuR71Q13w7qPh2YRalBs3g7JFO5H+h9fbrUqabsVyNK7Ol+IP/Hh4a/68P6LVrwtqFxpnwy1y6tJDHMs+FcdVyFGR781T+IP/ACD/AAz/ANg/+i0/Rf8Akkmv/wDXwv8A7JWf2F6mn22/IX4b6nd3Hic6fc3Es9pdRSeZHKxYMQM5571LN4P8LW9+dLl8RSR6gz7QAg2Kx6Kfftyazvhh/wAj1a/9cpf/AEGud1Mk6xekkkm4kJJ5z8xot7zS0BP3FdX1LWq6Bf6Vq8+nPA800WCDCjMGU9GxWY6NG5R1ZGU4KsMEV6t498YX+gS2FrpflxyzW4kkmZAzEdAOfoTWB4hnTxL4Cg1+5hjj1GC5+zyvGMCUe/6H86aqOyuJ01d2exw9MopK1uZpEkchjJ4BVhhlPQ0kiAAOhJjY4BPUex96ZQkhQnurcFT3/wDr1JSG0hNPkQABlOUY4B9PY+9RmgqwU0mlNMpDFNMNOpppMpFpNRaKBY41AKjBYnNNit57197E7e7N/SrtnZRCFJGTc7DPPOKuVDZokQ29vHbIVQderHvWbq0u+YRA8KMn8a1JZFijaRuijNYAD3VyFHLytgfjQVY6PwlpzXJXA+a4kCD2X1/nXsSbY0VEGFUBR9BXG+DdOWImYD5IF8uP3J6n8v511u+uabuzVKyJ/MrL8R3v2bRpsHDy/u15x1/+tmru+ub18vqmsWelwnJLAED1br+QqUDOt8B2P2Lw1FIRh7ljKeO3QfoM/jXTVHBClvBHDGMJGoVR7DipKsQUUUUAFFFFABRRRQAUUUUAFFFFABRRRQAVynxA0v7bogukXMlq244HVDwf6H8K6uo5YUuIXilG5JFKsD3BoA8+0e++2abGxOZEGxue4/xHNXt9c7bxPoHiK406YkRs21Se/dT+I4rc31DQyYkEFWGVYYI9a8z8WaQ0ZlRRloTuQ46of8/pXo2+snX7P7TaiZRmSIcj1X/63Wqi7MHqeQClq3qtl9ivCFH7p/mQ/wBPwqnmulamLH0tNFLTJaHCnUylFNEsfmnoGchVGSTgAUxQzkKoJYnAA71M5WEGNCC5GGYfyHt79/pVE2FLrGCiHJP3mHf2HtTBTc0tBLQ6nUylpiHUHof85pM0Zo3FY734gzS3ei+H7yzkYaZJbBFiQ4VZAO+O+Mj8Kb4Q1hdfs5PCuuSGWC4U/Y5nOWicDgZ/UfiOlN8FzReIdBv/AApduBI4NxYsf4XHJH58/QmuOzc6bf8A8UN1ay854Kup/wARWaimmuqNG2mmtmdt8T7Z7FdAtpSpeGzMbEdMjAqPRT/xaXX/APr4X/2Ssrxj4sHiuaxl+ztA8EJSTJBDMeTj24rOtvEF3a6Bd6PGI/st04eQkZYEY6exwKFF8qTE2uZtG58MT/xXNt/1yl/9Brm9TP8AxNr3/r4k/wDQjU2h6zc+H9UTULMRtNGGUCQZBB4qlNK1xPJK+N8jlzgY5JyatL3mybqyR2/xY/5DGl/9eI/9CNQx/wDJGp/+wkP6Vz2veIbzxFcwT3ojDwRCJRGMcDn8zzXQR/8AJGZ/+wmP6VDVkkXu2zi80UmaStDMKKTNJQVYdHIVyMblbqvr/wDXokTZhlOUbo3+e9Mp0cmzIYbkb7y+v/1xSKQym1JLH5eGU7o2+6w7/wD1xUdIaQ00nXgd+KKnso/Nuox2U7j+FJlI2UGxFX+6AKdSH/8AXUF5crbQlv4jwo9akso6rc7yIVPCnLVZ8OWTSzm42kkHZGPVj/hWTHHJdTrGoLSSHAr0nwtpiRbJNv7qAbVz3b1rObsrFpXOm062Wxso4F6qMsfUmrO+od9G+sSySS4WGN5HOEQbj+FVPAdo+pa5datMMrHkLn+83+C/zrM8Q3hECWseTJKckDnI/wDrmvQvDelDR9Et7YgeZjfKR3c9f8PwpoRq0UUUwCiiigAooooAKKKKACiiigAooooAKKKKACiiigDiviHo5mtY9UgU+bb/ACyY7p6/gf51jafei7tVkz84+Vh6H/6/WvSpokuIXilUNG6lWU9wa8ou7STw1r8tnISYHP7tj3U9D9R0pMDW8yjf19+ue9Qb/ejf70hnJ+JdFDh41GA3zxN6H0/pXClGR2VgQynBB7V7BeQreQGNjz1VvQ1594h0pkd7hUxInEqjv71rCXRktGDSg00GlrVGTQ6nAFyAASScADvTRk4ABJJwMVMSIQVU/vDwzDt7CmS0OLiAFEOXIwzDt7Co6YKdTTEx9LmmUVRNh9LTaXNAh2aWm0ZpiLNjez6bewXlq+yaBw6HsCP6Hp+Ndj44tIdY0+08WaYmIroCO7QdY5Rxk/y/AGuGzXW+A9bgtrqbRdUw2l6mPLcN0RzwG9s8DP0NRLSzRUeqZyeaM1peIdEuPDutz6dcZPlnMb44dD0P9PqDWZmrTurohqzsOzRmm5ozQFha7VQY/gvKW/5aal8v6f4GuIJwuefw713PjAf2L4H8PaG3E7A3U6+hP/12P5VEt0i4LRs4fNGaSkzV3JSFpM0mabSGOpDRmkpFWHxy7cqw3Rt95f6/UU2WPZgg5RuVYd//AK9NpY5NmVYbkbqPT3HvSGMrT0qHZGZSOW4H0qlHatLMqKcq3IYen+NbJ2Qx9ljQYGe1S2WkEsixRF2OFUZNYN1ctcyF24HRR6VJe3jXL4GREDwPX3qbSNON7PvcHyYzlv8AaPpSbsrlWuavhrSXcrKV/ey8ICPur6/jXotvGltAkMf3VGM+vv8AjWZpNn9lj8xxiVxgD+6PStDf71zyd2aJWJ99I8yxozscKoyT6VDv96zNVuJLiSOxtgXklYAqO5PQUkM0vB9g+ueIn1CZf9HtiGAP97+Efh1r00VmeH9ITRNJitFwXHzSsP4mPX/D8K06oQUUUUAFFFFABRRRQAUUUUAFFFFABRRRQAUUUUAFFFFABXOeMfD41vTC0K5u4MtH/tDuv4/zro6CM4oA8e028MkfkyZ8xOOeMj/EVe31f8ceH2sLr+17JcRO375QPut/e+h/n9axYbhZow4PPcelJjLe+qOpWYuU8xQPMUcj+8Kn30b6WwHnOr6YbKQyxg+Sx5/2D6fSs0ZJAGSScADvXo2o2K3CMQgYMMMmM5rjNS05tIclMuHOBJ18v2+vvW0JX0Zm0UyRbgqMGUjDMOdvsPeohTacOenXtWpDQtLmk/zzRQS0OBp1Mp1MVh2aSiimKw7NLmmUUxWH0U3NLQFj0K2msPHvhm3tdT1CCx1jTiEW4nIAljPr6n+oz3qv/wAK5tv+hs0n8x/8VXCnBxkA49aTC/3V/Ko5WtmVzJ7o7v8A4Vzbf9DZpP5j/wCKpP8AhXFr/wBDZpP5/wD2VcLgf3R+VGB/dH5Ucr7hddj0TTPBOj6TqEV/qniPTrm0tj5rQxMNz45A68jPbvXJ+KNdk8Sa9cag4KxudsSH+FB0H17/AFJrGwvoPyooUbO7YN3Vkh2abRRVk2FzSUUlK5VhM0maKSkOwtIASQFBJPAA70oDOQFBJJwAO9Xo/KsFLPh5yPug52//AF6TY0i3apHYWx88jDct7emPcVm39xJK4/55HlMd/f61BcXElw5eQ59AOgqWxie8m+zhSyMcsemz/a9j/Ok2lqykrjbGzkvpxGnAHLN/dFd7oumxwxoduIo+FU/xH1qtpOjpbRhBzF94vj/WH/P5VuAgAAcAcADtWE5X2NErFjfRvqDfSGQICxOABkn0qCh9zdLbQlzyeij1NbXgLQmlkbWbtc5JEAI6+r/0FYWh6VJ4n1hU+ZbSLmVhxgen1NerxQpBGkcShI0AVVA6AU0IkFFFFMAooooAKKKKACiiigAooooAKKKKACiiigAooooAKKKKACiiigCOeGO5heGZA8bqVZSOCDXlHiDRJvDOpnbuezlP7tjzkf3T7j9a9bqlqmmW+r2ElpdJlHHUdVPYj3oA8pSVXAKnII4p2/p71HqemXPh7UGtboFo25jcDhx6j39qb5gQcH5j3Hb/AOvUjLPmeXwD854J9P8A69Zt9ZJMj/KGVh8ynvVjfRvpoDhNS0l7El4svAe+OV+tUAf8ivQriFZQcAZYcgjOa5fUtBZCZbRSR1MXcfStYzvozNoyQyv8r8Hs1DxtHz1HYio+ckEYI4OeKkimMfBG5fQ1oRYTNFWPJjmG6FsHutQvG8f3lI9xzTCwlLmm0UE2HZp1MozTFYfRTM0uaYWHZopuaM0BYdmim5ozQFh1FNzSUBYXNGaTNJSHYWiko5JwOT7UgsFA5bH9M1Klsx5YhRSPKsfEY57tQVYf5gtx8nysRy3Un/AVWJyTSE5yc1f07SJb4h3zHD/eI5b6VLaQ0rkFlZS302yEcA/Mx6LXYaVpcVvGFQEJ1ZiOWNOsrGK3jVFQJGOi+v1rQ3jt2rKU77GiVidHVAEwNnoO1BJBHcHkEd6g30qSdj90+nasyiXfUUUNxrF/HY2K7mc9ew9z7CoiJrqdLW1RpJZTtULzu+nt716d4W8NxaBZfNh7uQfvZB/6CPYU0hF3RNHg0TTktLcZxy7kcu3cmtGiimAUUUUAFFFFABRRRQAUUUUAFFFFABRRRQAUUUUAFFFFABRRRQAUUUUAFFFNyWOB07mgChq+k2+tWbW1wMY+5IB80beorynVNLu9AvWtrtcqTmNwPlceo/w7V7PgAY7VR1TSbXV7Nra7Tch5Ujqp9QexoA8d8wdQaPMq7r3h678P3O2UGS3Y/u5gMBvY+h9qy99KwE/mU19r9evrUW+jfSAz9R0eK8y3+rl7OB1+tc1d2M9k+JkIUnhhyDXa76ZIiSIVZQynqpGc1cZtaCaRw4coQVJB9QatxXvQTDI6EitS78PxvlrRvLbrtbkf/WrFuLWe1fbPEyeh6g/jWqkmQ00W/s8NwCYzg+3+FRPZSp93DD24qqjkHKkg+oOKsxX8iYDAOPfiqJsQlGThlIPuKQGtFL6CThvlJ67hmpPs1vMMqFPupxTuFjKzRWidNj7Mw/WmHTW7SD8RRcLFLNFWjpsvZlpP7Om9U/76ouKxWpKtf2dN6r+dOGmyd5FH0GaLhYp5ozV8aav8UhP0GKeLCFOSCfcnFFx2MzNSpbyydEOPU8VfMttb8ZQH0UZqvJqI/wCWafi1ILAlljl24HXHFI80MOQgBPtVWSaSX77E+w4pscbzOEjRnY9FUZoHYdLM0p+Y8dgKSKGS4cJCjO54AFa1n4fd8NdvsH9xTk/n2rct7aG1TZAiovt3qHNLYpIzLDQFjIe6xJIOiD7o+vrW7GipgnGR0x2qPIpd9ZNtlJWJ/M96PMqDfRvqRk+/3ojWW7nS3tUaSWQ7VVR1pbGxutUvFtbOMySt6cAe59AK9R8N+FrfQINxxLduMPKR+g9BTsBD4W8LJoVsJZiJbyQZZuyf7K/4966MYxkUuKaQQcj8RTAdRQCD0ooAKKKKACiiigAooooAKKKKACiiigAooooAKKKKACiiigAooooAKKKQ88CgBDzwOnenYAoHFFABRRRQBDdWsN7bvBcxLLE4wysMg15r4k8Ez6Yz3OnBp7TuuMvH/iPevUKD0NAHgZyOeopu+vUvEPga21PfcWG21ujyRj5H+o7H3FecanpF3plyYbuFoZB0yMhvoe4pWAqb/ejf71CdyHDDmk30AT7/AHoLq4KuoZT1BGc1Bvo30LQCtcaHaXGTDuhY/wB3kflWbcaDeQ5KBZV9VOD+Rrb304TMO/581Sm0JpHIyRyQnbIjIe4YYpASOhI+nFdgZlcYdFYeh5qCSw0+4zuhVT6r8tWqnclxObS8mj6Stj3OamGpzjrtP1Far+H7R8+XM6+gyDUL+Gm/guVP1Wq5kHKymNVk7xofxxTv7Wb/AJ5L+dTHw5ddpYj+Ypv/AAj15/fh/wC+jRzIVmRf2s3aJfxNMOqynoqD8Ks/8I5df89Yh+JNPHhqXjdcoPXCk0cyCzKD39w//LTH0GKgeV5OXdj9TW6nhyBMeZcufYACp49K06LrHvP+0SaXOhpM5kAucKpJPYDNXbfR7y45EWxT/FJxXRI8UIxDEqj2GKDcMe+PpUup2Hy9yhb+HoY8NcytIf7q8CtGJIrdNkEaovoBjNR7z3NG+pbbHZFjf70m/wB6g30b6kZPv96N/vUAJPA61Zt7WW4kWNEaSRjhUQZJ/KgBASelbWg+GbzXZR5I8u2U4edhx/wH1NdH4f8Ah8TsuNawB1Fsh/8AQj/QfnXeQxJBEsUSLHGowqqMACmBR0fRLPRbUQ2keCfvufvOfc/0rSoooAKKKKAGkEHI/EU4HPNFJjHI6elAC0UUUAFFFFABRRRQAUUUUAFFFFABRRRQAUUUUAFFFFABRRSEknA/E0ABJJwPxNKBigAAYFFABRRRQAUUUUAFFFFABVW90+21C2MF5Ck0Z/hYfy9D9KtUUAeda38OpI90ulP5ydfJkPzfg3f8a4e802a1maKSN4ZV6pIMGvfcZqnf6XZ6nD5V9bpMvbcOR9D2oA8BcNHwykUzzK9P1X4bBgzaXcDHXyZ+R/31/jXFar4YvNNJ+12ksOP4wNyH8RQBi+ZRvp72cqcrhx2waruWQ4YEH34oAl8yjfUO+jfSAm30vmHsT+dQb6N9AE/nN/eb86d9of8Avt+dVt9G+gCz5zf3m/Om+aT1J/OoN9G+gCbfRvqHfRvoAm30b6h30ByeByfbmgCbfR5lEdtNJztIHqa0LHRLi+kCW8Mtw/8AdjXgUwKIJc4AJPoOasRWruQGyNxwFHJNdxpPw3u5QrX0qWkfUonzOf6D9a7XSvDWmaOoNrbjzQMGV/mc/j2/DFAHAaH4Cv77bJcg2VueSXGXb6Dt+P5V6DpHh+w0SLbZwjeRhpW5dvx9PYVqYooAMUUUUAFFFFABRRRQAUUUUANPy8jp3FOBzRTT8vToeoFADqKB2ooAKKKKACiiigAooooAKKKKACiiigAoopCc8DrQAEnoPxPpSgYGKAMUUAFFFFABRRmk3CgBaKbvFIZRQA+iojLUZmoAs0ZqobjFNNzQBdzSbhVE3VMN570AaO4U1ijAqwBB6gisw3nvTTe+9AEF/wCEtF1Hcz2ixSHq8J2H9OK5y++G2cmxv1YdknT+orpze+9NN8fWgDze98A6nDk/YfNA/it3DZ/CsK50GW3JEkc8JHaSM17Eb/3pHv8AIwxyPQ80AeJnTZc/LIh/SozYXI/hB+hr2SaOwuM+dZ2759YxVOTSNGkyTYRD/dJH8jQB5MbO5H/LI/gQaT7Lc/8APFq9SPh/RSSfs7D6SGm/8I3o3/PKX/v4aAPLxZ3J/wCWTfjThY3J/gA+pxXp48PaL/zwc/WU1Mui6KmP9CU4/vMT/WgDy0adL/E6L+OasQ6O8pwpeQ+kaE16rDbabD/q7G2X38sH+dXo71YwAgVB2CgCgDzWy8Eajc4KadPt/vTHYP1rorH4bXBwbq7gt17rEN5/wrq/7Rz3/OnfbvegCrYeBtGtCGkje6cd5myPyHH866KCOC2jEcESRIOioAo/SskX3vThe+9AGxvWl3CskXvvTxee9AGnuFLms4XXvTxc0AXqKpi5HrThcUAWqKgE3vThLQBLRTBJS76AHUUmaWgAooooAb0Pseo9KdRTeR9P5UAOooooAKKKKACiiigAooooAKKKaSegxn+VACknoOtKBikAA/xpaACiiigBDSE07FNIoAaSaYTTyhpChoAhLmmFz61KYzUZjNAERkNRGQ1OYjURiNAEJkNRPIasGE1GYT6UAV3kNRtKanNufSozbn0oArGVqjMzetWDbH0NRvbH0oArGZvWozM3rVk2x9KjNq3pQBXNw1Rm4b1qybM+lMNm3pQBWNw3rTTctVk2Tehphsm9KAIPtJpPtR96n+xN6Un2E+n6UAQi6b1pRct61L9ib0pfsTelAEYuGp4uG9aeLJvSnizb0oAjFw3rUomb1pRaN6U8Wp9KAEEzetSCY+tAtT6VKLZvSgAEzetSJK1ILZvSphbNxxQAJKalEppotz6VKITQA4SGpFkNNEJ9KkERoAcJDUoc00RGniI0AODmpA5pojNSBDQAoJp4NIEpQKAFBp2aQCloAKKKKAG/c/3f5U6im/c/3f5UAOooooAKKKKACiikJ7DrQAEnoOpoAx/U+tAGPr3paACiiigAooooAKKKKACjFFFACbRSFBTqKAGGMUhiFSUUAQm3HpTDbj0qzRQBUNsPSm/ZR6Vdo4oAoGz9qabL2rRxRigDLNl7UhsfatXA9KMD0oAyDYD0pPsA9K19g9KNq+goAxv7PHpSf2cPStrYPSjaPSgDF/s4f3aP7OHpW1sX0pPLX0FAGN/Zw9KP7O9q2fLX0FLsX0oAxv7PHpS/YB6VsbB6UbR6CgDIFgPSlFj7VrbB6UbR6UAZf2H2p4svatLA9KMD0oAzxZe1OFmPSr2KMUAUxaj0pwth6VaooAgFuPSneSPSpaKAGCIUvlinUUAN2ClwKWigAooooAKKKKACiiigAooooAb9z/d/lTqKb9z6fyoAdRRRQAhPYdTQBj6nrQPvH6U6gBKKWigBKKWigBKKWigBKKWigBKKWigBKKWigBKKWigBKKWigBKKWigBKKWigBKKWigBKKWigBKKWigBKKWigBKKWigBKKWigBKKWigBKKWigBKKWigBKKWigBKKWigBKKWigBKKWigBKKWigBKKWigBKKWigBKKWigBKKWigBmSvHb1p1LTaAP/2Q==;" vertex="1" parent="1">
          <mxGeometry x="156.91" y="180" width="70" height="70" as="geometry" />
        </mxCell>
        <mxCell id="gXFku2u7cFtVppEHvoC2-24" value="" style="shape=image;verticalLabelPosition=bottom;labelBackgroundColor=default;verticalAlign=top;aspect=fixed;imageAspect=0;image=data:image/png,iVBORw0KGgoAAAANSUhEUgAAAOEAAADhCAMAAAAJbSJIAAAAflBMVEX///8AAABkZGT8/PzV1dVCQkL5+fna2to1NTXt7e22trZXV1dOTk6YmJjPz8/n5+esrKxgYGClpaWdnZ24uLjw8PBpaWl5eXmAgIDf39/BwcFvb2/IyMiJiYkhISEmJiYZGRkSEhKSkpI+Pj4tLS1JSUkLCws6Ojp+fn4yMjI+b0mbAAAIxklEQVR4nO2daVviMBDHLYVyCLRUy30rHt//C67IspI0bWaSiTPdh9/bfdT+t2kydx4e7ty5c+fOHSHERXe9fB4sl+M0ibkfhpgkHWwmu+iWl9lo3Od+LiLS5+lrZOY0Hzf+ZcbZsELdX/azMfcz+tCd1cu78JYX3A/qyPoRou+bTRM/ybZleeoaE+4HRtKfovSdybifGUWG1vdFZ8H92GD6uAX6wxP3kwNZOur74rERX+PGXeAXXe7Ht9PyEhhFz9wCLCQnT4HSP8ai5y0wikbcKmootgQCo+jIraOS5J1EoOCF6noMlhG63azIBEZRm1uMiZxQYHQQ6Gy0KQVG0ZBbT4lkZ39qFOLODJA3j0KY/bYmFxi9cGtSoV6jZ3JuUbc8BRAYRYICVEUQgdGMW9cPfi5hNSm3sCv9QALlvMRjKIWREMsm2QdTuOHWdmEQTGC0kxGZ8g9cVLPkFncmDSgwanGrOxPmtL8i4dSnCl2YEeDtB12kUbTi1vfw8BxWYcStL4RjqMKfkOoEVjjgFhjMJr3Cbpt2QyvscCsMaLJd2HIrDOdXXOF2EkNvpfzhb9+EqB3umqmQjsUFZvcirirKo4M5qBiHCJSqMCcTA0YwrjAnMOL/X2H4Vcr9HVIUX9TDXdFHl7uvgjsYha+yxMJ94s+DK+TOlI5CC3zjjux7lFrC2DELfFiEVshelEFUylYNf5Fb6OOC+7AIl/+9wh/WD1BncsueW9+XdxFWoYQcKbz3x4U1t7yHwPHEvYQkcNBlOudW901I45s7lHhhHE6glOq9l2AKub3fK06dahDepHQJk9cHX5FTJxzqJUp5hV+EcTAkldAG8YN7gl5hGNON32+6JUBVjYBKGgXSjplvJFikCtTrVIJToUJczS7BL9QhbXxij7AZITz3d/zRGSN0QSnuCpNKqHosuZMxNdBIlLeN3kBRQCT4DZ7x/xZlBC5q8DRuPrmTaQDGPuUZU3G2mom+uwEndtSAjmNieMed0EaQuuTc+DOFKAbYwEaLvygfSYLqFjoJPwTNJE9vQH3DRur7ZgnYVvcfjVufCoun+k1ntWzECVhPP5uZjYD34xguLyn6JSR5kcU6+xju9pcP87DtTY4D+OHXzaeVO/PrKhe1yL9eRNovUJHe7txqBe43okTiGE9s8i5MGrobF0B9Z6aSPkooyBoI9j4+NOh4AXsjH47YwXh/FJWtshA79aaeuB8bgaMX/cj93GCcoz0S8x1GDq4KheVVK/HI8oiohLPjk+Rpxjr1qndsQMTV0AO/WSexgWRt6Gj54H56EKq3NKo7ycvd5I34Em9Pi70lk9HW3atmGKg/J/6bNV2ql7rITJGXuNbl9gAbh1bhemiII7Vufe53Q1iFqeaGNMYdTvrQPUNbp79d8tfvjpfPg0F+3Gw28/lsNj+O8mzwvFx3U7JdTzXUf8VRTJLFMj9OO9YwUq+1ecq8laophAmFgmr6i/VodkKlSf17DtS9JtxmWoxzwFsrQeDUqaZ6J4iv385WruXeBF9jYIVF9wkR9itBMXQupMJu7ll3SfLRhFKYLFf+01tIKqCCKCwykuk77yQPQ68w9V2b/ygVmBSDzXyDzSoSK0xtF+Jh0JNs+SUDt8PtP6QKIZlrOAftt3/8+xdU9RCdwgX1HAzNwLr1fDFdT0QKkwF944gqI675t/AK0w1Bd9MqX6upeHVH0YahwiUSKGz7WC1/mVqPPj2qBJborXBJcPTNAOXpH/oPQSX6KYwHBG2wL6DIQrlSDCjRS2FGMVZvBvubhhEUsEPDXWGcQWvTagF/TwfHn3VWOKDp8IVHhkyd7xCJjgrXRG3omNJYU9YJINFNIdXwVVyQwk2ii0KXWggzSDfBSaKLQjIDDT0XwUWig0IyC9thtIWDRLxCutlILnEmvES8QrIRAlvDV5jYMBab1EpEK6S78KAUzl7Mhz0rnQNSIlohXZRCdyd8ettqzlWsQsL5Adoi9ZtHVC0Rq5BuzIU2Fd+3GbrSQcEqpGtZ1sIwvr+u0jzCKqS7FVYtUPKfKEWlkG56l7r/+W/RVS0MWIV01wGo/qu/wqoPkU+hukr9LaUqK55PoTpkJrb/QD2vVU/Mp/BT/cW+m3RlPRefQm3z87x9vbrGglGhVnVX+ARGhtW+NKPCkrmcfUJ+zBThq4uGMCrslX972rWxMFl3tVchMip0qqIzDQmf1D41p0KHCizTPWCWX8OpEP8STa0Itv8nVoWftr+mYXqD1utIWRUiGyAclii7QlSjjptAboWIT9EUP4HcmMutEC7REAJrQQLY7AqhcWHDGoWdNvwKoxkoP1OOBAMTVwIURlvIayxlS6C3VktQGEXvmbXTQ/cf6001cQrPT5zVz3fQLG64xSdG4Znt+/CHjuq1q3fvIkxaUQpVtGnBt5l10DEhX6F2nVPy4x+jnBLBCvVRpcm1fg7X2SNZYSl8tl6desM5cjidZIWmIx3fYiJZIc318KIVksxeF62Q5IJD2QoNAcf/TCHFnAfhCgm619Tssn0Qz28r9O/uUk12uzkU/oJYaolq5YF9e6arVADjN0G4UDM59nrU0Lc2mihVAxXZarIawewBrcbfviLoytrg6LvN9cuC9Hn3td9l7+wIfkGsAe2pfrpnALEoLe0Kadr0S0a7oB37t3VnNanfbxK9nBnyTaOmHJOg9Tsr8+heawPK61LHC+R2jMCXixpQN3g9uD+pSn3Ehn5PWIj111+iuqEYtrrt8LHE0FjKDLxcIdydhmZU29SnShMa3/nt7VQd0OVTHgb2qAPevWlCDd977APOrbWh6ah/3LndA9WClDqNEHVkq+Y0CsemOezURPrr4qrRYhmO+wD6oqg4/zXrRre8XSQenOJ26XI0m7aCMymFMlL0f26vIXPa/pEg3VRgr7EoMH0fbw0ZPqtTHmxZoa9hl9TcUOSAM+uUN2KgZyWLUaumZf4wlXX9gyNx0j4PJtR5XraTBm4vd+7cuXNHJn8ALlWUIQ6YbGAAAAAASUVORK5CYII=;" vertex="1" parent="1">
          <mxGeometry x="166.28" y="313.13" width="51.25" height="51.25" as="geometry" />
        </mxCell>
        <mxCell id="gXFku2u7cFtVppEHvoC2-26" value="LogIN" style="text;html=1;align=center;verticalAlign=middle;resizable=0;points=[];autosize=1;strokeColor=none;fillColor=none;" vertex="1" parent="1">
          <mxGeometry x="210" y="323.76" width="60" height="30" as="geometry" />
        </mxCell>
        <mxCell id="gXFku2u7cFtVppEHvoC2-27" value="" style="shape=image;verticalLabelPosition=bottom;labelBackgroundColor=default;verticalAlign=top;aspect=fixed;imageAspect=0;image=data:image/jpeg,/9j/4AAQSkZJRgABAQAAAQABAAD/2wCEAAkGBxERERAREBMSFxAQEREQFhERFxEYFhEXGBgXGBYWFhQZISoiGRsnHBcWIzMvJzgtPTAwGCE2OzYuOiovMC0BCwsLDw4PGxERHC8nIScvLS8vLy8vLy8vLy8vLy8vLy8vLy8vLy8vLS8vLy8vLy8vLy8vLy8vLy8vLy8vLy8vL//AABEIAOkA2AMBIgACEQEDEQH/xAAcAAEAAgIDAQAAAAAAAAAAAAAABgcBBQIDBAj/xABIEAABAwICAwoLBgQEBwAAAAABAAIDBBEFEgYhMQcTF0FRVGGTs9EUIjI0UlNxdIGR0iM1QpKhsRUWYuFDcrLwJCUzc8HC4v/EABoBAQADAQEBAAAAAAAAAAAAAAACAwQFAQb/xAAwEQACAgECBAMHBAMBAAAAAAAAAQIDEQQSEyExUTJBcQUUM2GBodFSkbHwIzTBIv/aAAwDAQACEQMRAD8AvFERAEREAREQBERAEREAREQBERAEREAREQBERAEREAREQBERAEREAREQBERAEREAREQBERAEWFHNIdKo6e7GDPLxtB8Vn+Y8vQpQhKbxFZZCy2Fcd03hEjRVJX6R1UxOaZzW+jESwD4jWfmtd4Q+98z78uZ9/ndbo+z5PrJfdnMl7Wgnyi2XYsqoqDSOqiIyyvc0fhec4Pz1hTjR7SuOpsx4yTeifJd/lPL0Km7SWVrPVfI0Ua+q17ej+f56ElRYBWVlNwREQBERAEREAREQBERAEREAREQBERAEREAREQEe0vxrwaKzD9rJcN/pA2u+F/1VXuJJJJJJJJJ2k8pW901qzLVyDiiAiHw1n9SVoV29JUoVp+b6nzOvvdtzXkuS/wC/cIi7aWmfK9scbS57jYAfueQLU3jmzGll4R1LLSQQQbEG4I2g8oVnYLopBDGBKxkkjh4znC4HQ0HYFAdIaaOKpmji8hrhbouAS34E2WarUxtm4x/c1X6OymCnLHPy7E/0QxrwmIh5+1is139QOx3xsfiFIlVWhVUY6uPklvGfjrH6gK1AuZqqlXZhdHzO3oL3bSnLquT/AL6GURFmNoREQBERAEREAREQBERAEREAREQBERAEREBTuPgipnvt3x/7r1aICHwtm+5ctnZc2zPqy3/X42Xp08oTHVF9vFmaHg9I1OH7H4qOLvQ/yUpJ9UfLWZp1LbXSWf8Apa+kGAR1TLWDZWjxHgbDyHlauOjeAMpW3NnSuHjSf+reQfutJoppWMoiqXAOGpsp2OHI48vSuzSjSxrW71TODnuBzSN1hg/p5XfsuZw788Hy+x2VfpmvefPH1Oel2k4iDoIHfa7HvH+H0D+r9lX5PGdp13PGhP66/wC6wupTTGqOF9fmcTUaiV8tz6eSPfgIJqYLbd9Z+6uJVhoJQmWqD/wwtLyek6mj9z8FZ653tCSdiXZHY9lQaqcu7MoiLCdMIiIAiIgCIiAIiIAiIgCIiALCyq73W9KJKWOOngcWzVAeXPG1kbbA2PEXE2v0FSjFyeEeN4WSXVukdHC7LLUwMcPwvkYCPhddH844bzym62PvVF4BodW1zXSwRgsDiDJI7KHu47E3Ljyrb8FmJ+hB1n/ytHArXJyKt8n0Rbv844bzym62PvT+ccN55TdbH3qoeCzE/Qg6z+ycFmJ+hB1n9k4NX6hvn2Lgx3DY62nAY5pJAkikGsXtqNxxEKrammfE90cjS17TYtP/AI5QpdueYZidEPB6lsTqXawtku+E8YAI1sPJxFSnGsDiqm2kFnjyZG6nN+PGOgqdGo4LcXziZNZo+Ot8eUv5KjRSmv0IqGE70WyN/K75HUtd/K9be28u+cdv3XSjqKpLKkjiT0l0Xhwf7Z/g067aWnfK9scbS57jYNH+9QUkodB6h5G+lsbfzO+Q1KZ4NgcNK20bbuPlSO1ud3DoCpu1tcViPN/Y00ezrbGnPkvudWBYayipyHuaDYySyHUL21m54gFwGmWG88putj71H90LC8TrR4PTNjbS7XudJZ8x4gRbUwcnGoFwWYn6EHWf2XOUYzzKcubO6v8AGlGC5It3+ccN57TdazvWf5xw3nlN1sfeqh4LMT9CDrP7JwWYn6EHWf2UuDV+ob59i5aLSOjmdkhqYHv9FkjCT8Lra3XzfpBodW0LWyzxgMLgBJE7MGu4rkWLTyKztyPSeSqilp53F0tOGlrztfG64F+UtItfkIULKVGO6LyiUZtvDLDREVBYEREAREQBERAEREAVLbuXndN7uf8AWVdKpbdy87pvdj2hV2n+Iiuzwk63KR/yum9s3aOUvUQ3KPuun9svaOUvULPG/Vk49EFwc4AEkgAayTsHxWJZA0FzjYNBcSeIDaV8+6caZS18r2te5tIxxEcbSQJANWd9vKJ22Oxe11Ox4R5OaiXmMfpM2TwiDPstvjO9bEEHWNh13HGvlDKORTLQHTSWimZFK9zqSRwa5jiTvN9Qey+wco2fFXS02FmLK1b3L+WVxY64BGw61yWUuMIovp5pWMOhjeI98kleWMaTZuoXJcfZ+6gvDJPzWLrH/SrI1TkspEXNJ4ZcSKnOGSfmsPWP+lZ4Y5+aw9Y/6VL3ezsR4sS4kVOcMk/NYusf9KsnRLHm19Myoa0szFzXMOvK5ps6x4woyqnBZkiUZqXQ1e6t911Pth7Rqgu4d53Ve7N7QKdbq33XU+2HtGqC7h3ndT7uO0Cuh8CXr+Ct+NF0oiLKXBERAEREAREQBERAFS27l53Te7HtCrpVLbuXndN7se0Ku0/xEV2eEnW5R910/tl7Ryl6iG5R910/tl7Ryl6hZ436k49EaXTIu8Arcl83g8trf5SvmgL6tlYHBzXC7XAtIPGDqIXzzptohNh8zzlJpXOJjmGwNOxj/RcNnTt6Fo0sksxZTcvMjSw/YfYVi4Ut0D0Plrpo3vaW0jHBz3uGqS2vIz0ifkBf2LXKSissqSzyReOjhd4JS575/B4c19t8gutkuLGgAAbALWXNck2Grx7Aqeti3qpZnYCHDW5paRxtcNYKjvBXhfqpeum71J8VxWGmjMtRI2OMEDM47SdgA4z7FpOEPCudM+Uncpxc8f8AnJFqPmePgrwv1UvXTd6cFeF+ql66bvXs4Q8K50z5P7k4Q8K50z5Sdynut7sjiHyPHwWYX6qTrpu9SnC8Oip4mRQMDI2CwaL/ADJOsn2rRcIeF86Z8pO5SGiq45mNkie18bxdr2m4cOgqE3N+LJJbfIjO6t911Pth7Rqgu4d53U+7jtAp1urfddT7Ye0aoLuHed1Pu47QK+v4EvX8Fb8aLpREWUuCIiAIiIAiIgCIiAKlt3Lzum92PaFXSqW3cvO6b3Y9oVdp/iIrs8JOtyj7rp/bL2jlL1ENyj7rp/bL2jlJMUrGwQyzP8mKN8h9jRe36KFnjfqSj4UaTS7TKmw5oEhzzPF2wstmI9J3ot6SothO6xTyhzK2Exgki7ftGEcQcLX2dCqjFMRlqZpJ5jeWV2Y8jeRo6BsC8y2R00dvPqUu155F1fxnRsHfA2kz7fNzmv7Mm1eTFd1qnjyso4S9oIuX/ZtA5GgAm/yVQIvVp4+eWecR+R9GaJ6XU+IsJiOWVls8L7Z2dPS3pCkS+XsDxWSkniqIjZ8TgSOJ7fxMPQRcfI8S+m6OobJHHI3yXta8ewi4WW6vY+XRltc9y5kY3Q9FX4jBG2J4bJE8vbnvldcZSDbYq94I6/1lP+Z/0q70UYXTisI9dabyykOCOv8AWU/5n/SnBHX+sp/zP+lXein7zZ3POFEpDgjr/WU/5n/SrS0MwI0NJHTl+dzS5znC9szjcho5FvUUJ2ymsMlGCj0Ijur/AHXU+2HtGqC7h3ndT7uO0CnO6t911Pth7Rqg24d53U+7jtArofAl6/grl40XSiIspcEREAREQBERAEREAVLbuXndN7se0KulUtu5ed03ux7Qq7T/ABEV2eEnW5R910/tl7Ry7N1CpyYZU/1tbF+ZwC69yj7rp/bN2jlttK8CZX0z6d7i3MWuDgL5XNNwbcYUW0rcvuSXhPmhZVncDs3Oo+rf3rPA5LzqPq3/AFLd7xX3M6rl2KwWFaHA7LzqPq3fUnA5LzqPq3fUnHr7jhy7FXr6M3PKnfMNo3cYiDD7WktP7KCcDknOo+rd9SsnRrBmUVNFTMcXNjBu521xJJcbcWslZ9RZCSWGWVxafMjW6zUVkdLGaMytaZLSvhzZ2tt4utvjAF20joVQ/wASxL1+IdZVd6+mViwVdd2xYwiU69zzk+Z/4liXr8Q6yq70/iWJevxDrKrvX0xYJYKz3lfpRDg/M+Z/4niXr8Q6yq71ee5/NVPoIXVmffjm1yeW5l/ELukjl1qSWCzZV2WqaxjBOENvmRHdW+66n2w9o1QXcO87qfdx2gU63Vvuup9sPaNUF3DvO6n3cdoFZX8CXr+CL8aLpREWUuCIiAIiIAiIgCIiAKn93KjfvtJPb7MxyQk8jgQ4A+0F35SrgWvxfC4qqF8E7A+J41g7QeItPEQdYKnXPZJMjJZWCsdzzT+kpaVtNVZ2Oic8te1jnteHOLvw3IIuVKeFDCvXSdTN9KjFbuOuzHeKkBl9QlYS4fFpAK8/A5Uc6h6t/etDVEnnJVmxcsEw4UcK9dJ1M30pwpYV62TqZ/pUO4HKjnUPVv8AqTgcqOdQ9W/vXmyjue7rOxMeFLCvWydTP9KcKWFetk6mf6VDuByo51D1b/qTgcqOdQ9W/vXmyjuN1nYmPClhXrZOpn+lOFLCvWydTP8ASodwOVHOoerf3rPA5Uc6h6t/1Jso7jdZ2Jhwo4V62TqZ/pThRwr10nUz/SodwOVHOoerf3pwOVHOoerf3pso7jdZ2Jjwo4V62TqZ/pThSwr10nUz/SodwN1HO4erf3rPA3Uc6h6t/evdlH6n/foN1nYmHCjhXrpOpn+lOFHCvXSdTP8ASofwOVHOoerf3rHA5Uc6h6t/emyjv/f2G6zsd+6Hp/SVVI6mpS95lcwuc5jmNY1rg78QBJJC47hlG8yVc9vsxHHCD6TicxA9gDfzBdlDuOuzAz1ILL6xEwhx+LibKzcIwuKlhZBAwNjYNQ4yTtJPGSdpXk5wjDZA9ipOW6R70RFmLQiIgCIiAIiIAiIgCIiAIiIDCysFQ/dHJEUNiR9o7YSPwqyqHEmo9yq+3hVueM4JgihFJj7aXD4fxTPa7I06+M+M7oH6ry6J4JJUSeFVBcWZszQ4n7V3pEeiP19is93xGUpPCXJfMo98TlGEI5bWXz6L5ssFFAt0DDHNc2oZms6zX2JFnDU12ro1fALd4LpAx9GZnnxoW5XjjLhs+er5rx0vhqcXnPL0JR1K4sqpLGOfqiRIq10WpJKyrdPKTkY8yO1mxcfJYOgfsF2aS45NUTmnpy4MDt7AYbGR3Hcj8PcrPdXv2J+WX8ipa9cLiOPV4S839iwt+bfLmbfkuL/JdirtugE2W++xZ/Rs+35v7KW6M4fJBTtZK4ukzOJ8YuDRfUGk8Vv3VdldcVmM8/RltN10pYnXt+eUzcIiKg1BERAEREAREQBERAEREAREQBERAEREBgqH7pH/AEYf+4f9KmCiG6JG50UOVrjaQ+SCfw9Cv0vxo+pl1v8Arz9CDsYYzFJNGXROs4NJIEjQTcB3Fr4unpVtYVWxzRNkitktbLqGS34SOIhaTB8KZPh0UMgINnEEizmOubEAqN4HNPQVLmPY4xl2STK1xaeSRur/AGFqta1CaXijn6ow0btK4t84zx5c08fwWFX0rJo3xPF2vblPx4x0jaqmraOWGV9Nckl7G2GyTX4hPz/VXC03APLrVc6QQPOJAhjy3fYTcNcR+HjChoZtSlHyxn6lntOpSjGXnnH0fUmWCYWKanEY8uxc93pPI1/DiHsUG0JI8OGfbaS1/S79qs9VxpJgM0E5ngDiwu3wFguY3HaCOTvUdNNS3xk+cl1fclrK3DhzgsqD6LsWOFlVyzTmqtl3qMv5bPv+VSzRiummhLp2Fr87trbZm7RYfp8FVZp51rMsfujRTq67ZbYZ/Zm6REVBqCIiAIiIAiIgCIiAIiIAiIgCIiAIiIDCwQuSIAsLKIDCLKIDCLKIDgIxyD5BcllEAREQBERAEREAREQBERAEREAREQBEWCUBlF5aWrbIZA3/AApDE6+rxgATbo8YJVV0cd98eG2jfKb31MZbO74XCA9SLrbIDYgjWL/BcKipZGxz3uAYxrnudyNAuSgO9FwDwdhGsXXS2raZHRDymMZIeSzi4Cx5fFKA9KLiXLGccoQHNFgFeCfFImSNie60j8thZxHjEhuZwGVpJa4C5F7G10BsEWpdj1Nk3wShzDI6IGMPfmc25cGhgJdYAkkagASj9IKcODS6QXBcH7zPvbgGF5LZcuRwygnUSgNsi1LsfpwGFznt3y9hJFOwgAgFzmvaCxlyBmdYaxrT+P032g3zXGbEBshLjmyfZgD7XxvF8S+vVtQG2RayPGYHFjWyAvkjfK1rQ4ucxhs45ALix1W231bVzw/FYpy9se+Zow0ubLFNERmvl1StaT5J2IDYIiIAiIgCIiAIiIAiIgC1GkVA6eHe2tjc4ODmiVxDQRscbNdmttsRr6Nq264oCJVmiz3GR7TEJJHyuL7EZw6OMMa6w2Z4wba7cV111Oi0k2+ukbTZ5o61hd4zt634MyFhLLuylp9HyrjkUyQICHyaLyOe92WJpfEWjJJKBCd6Me9tYGAOZck3Ntvkk6121ui+ffmRsgYyWkfT3IJJcW2b4mXxGh13XB18l9alXIshAQ6q0Xlkzhu8xZ7uEkZeXxDehH4O0ZW3iv417jb5IOtemLAJRNHMGwR5N7Hg8ZcYjYyZj5A8YZw5ptqItx3UoQICM4lgcsz5nWhBngEe+OLy+Bwa4FsfijMxxOvW07dtxbyO0Te9xc9sDQWy5YWZiyEvfAbRnKNRET7mw1v2KYFAgNTh2EiOIxuNmiokmYInOaGNMpkYzVbUNQI2bRsXCupZ31EZDITTMLXkOke15eCfHLRGQ7KNguNesnYt0sFARl2BzSMe2QRxPMxfHJDLKTG17cjwPEbry6gNmvitr9smEXzjLG6NtP4NFE4uy5SLPzkC4vZrdV9Temy3KBARE6PVBbKM0f8AxMMlO9jnyPFPG4kjenubeQjM/U7L5Q2Wsef8ty2Y1zmWpopIqdzXSBxLpI3iSQgeK5u9tFhfNd2sXspWsoDQwYTJDJStibG6KFr2vfJI8SuL/KdlEZDje7tZFy47FsMKpHRteZCDLJI6R7m3tc2AAvxBoa34L3IEBlERAEREAREQH//Z;clipPath=inset(7.94% 13.89% 16.09% 15.74%);" vertex="1" parent="1">
          <mxGeometry x="269.24" y="185" width="51.52" height="60" as="geometry" />
        </mxCell>
        <mxCell id="gXFku2u7cFtVppEHvoC2-44" style="edgeStyle=orthogonalEdgeStyle;rounded=0;orthogonalLoop=1;jettySize=auto;html=1;exitX=0.5;exitY=1;exitDx=0;exitDy=0;entryX=0;entryY=0.5;entryDx=0;entryDy=0;" edge="1" parent="1" source="gXFku2u7cFtVppEHvoC2-28" target="gXFku2u7cFtVppEHvoC2-5">
          <mxGeometry relative="1" as="geometry" />
        </mxCell>
        <mxCell id="gXFku2u7cFtVppEHvoC2-46" style="edgeStyle=orthogonalEdgeStyle;rounded=0;orthogonalLoop=1;jettySize=auto;html=1;entryX=0;entryY=0.5;entryDx=0;entryDy=0;" edge="1" parent="1" target="gXFku2u7cFtVppEHvoC2-4">
          <mxGeometry relative="1" as="geometry">
            <mxPoint x="230" y="471" as="sourcePoint" />
          </mxGeometry>
        </mxCell>
        <mxCell id="gXFku2u7cFtVppEHvoC2-86" style="edgeStyle=orthogonalEdgeStyle;rounded=0;orthogonalLoop=1;jettySize=auto;html=1;exitX=0;exitY=0.5;exitDx=0;exitDy=0;" edge="1" parent="1" source="gXFku2u7cFtVppEHvoC2-28" target="gXFku2u7cFtVppEHvoC2-48">
          <mxGeometry relative="1" as="geometry" />
        </mxCell>
        <mxCell id="gXFku2u7cFtVppEHvoC2-28" value="" style="shape=image;verticalLabelPosition=bottom;labelBackgroundColor=default;verticalAlign=top;aspect=fixed;imageAspect=0;image=data:image/png,iVBORw0KGgoAAAANSUhEUgAAAHQAAAB9CAMAAABES7fdAAAAolBMVEX///8REiQAAADe3t4aMj4AABeQl5zQ09Xv8PFNWWHn6eofNEAdMT7FyMunrbAAJTMAFyu7wMKBiI0AABwTLjvW2dsAABIKCyAAGiv3+PgLKjdfaXAAECQ1R1E+SlOus7Z4f4SZoKQuLzlYWGE3N0KBgoloaXEwP0oAAAk/REpveH4AHy5GUVpqcHZXYmoqMz0aJzUbGysiIzFLS1JRU1U5OT5jsjp4AAAEKElEQVRoge2aC3OiOhSAI5EAQYyEh4I8RaGioavs/v+/tsG33bbudIl3eiefVTAz8s1J4jE5BQCJRCKRSCQSieQR1vgDbF2UElYvL76vbt4Q+b7/4ozFOHVS2Rjr3mx4xwbpGHvzF1uIFE3wwa3eOd3oGKORBCKkZnY8ZiPzlu1xOG0FipCq6HSC7zgF6PmeUOm7SOk3lsI/OEpfREqJmcwSc1PMyInZ4YsK1yKlkRYYwMrAPDznh1kuQncnDWs0QqxKzWtWmuRvOry/oE9Sk5AhCd2Ne5t/nXuUvqVu6D4k6ltq/AVJ31Ltb+hbGoajR7hO39LZWMcPsHufSJPHSwRLtDRIEUXp/apBsFSvFdUMh6pS3y4HxUq1STyhcAjpLI5uZqxQqTdBKAEwhCBBKLrmPpHSYEu2JA88FwY52Ybby8CKlKYjmJGhmbiJaZIMjtJnSBMEUIOtPMwt3PDzS/ITKMUzCBhvwy5fhCMG4AaLl3oko1VDaeZmlDYVzcLzVBIqZVllZDVzWZ0ZVcbIE6Rvu9cjT+jebiLRRtfSMNX0+ZMmEhibmBJzZLr8EVI8umxRhSaHOKxIrnuup+ekCuOnJAegOTk1DmlwS3P1mnwFJ3wliRAeYhQlinVtFv3TxlSVj6jqsOf9tHHwmNarMb5rEy59j/6lm7H+iFTtW5pH5iMmn+5kvyIFmvWI/tbaD3bigniw/U/E1pHelyr/u0LHB0Ax0sign1A7YqTuuZ5CNpPZiUtTKEZ6rfO6sQeh5/EXvu49I0ZqXGo4m8sa4ab4O8OfffirpJPz9UPjvEjIN+c2wkQ4AZhPXJf3bWc915nJobDDm4krJFAOiq/DeuDy1qxFOfkQflhmEKaUSCQSiUTyfdF0YPG/QLNtG3i2fdw08SYAbRsDfG7plSYFCgKvlksRP2ToR1dTwf4cADejG5g1KOr/focxtZrG2+LKwzp41fR5p0AoweAHBIZNU1DT3qUwplY8rgNzzihYz1nFezNIPJqDams0ehY3ArapQRwCGqb6a1c2eoUg5x1rh6wgYGTrAahzXcR9HXUMLAXro3nNgjWjVcrHeQyCV2/UFRpqMbfNYN57/PKw+88h1rRuvevx4GDQvQIo7A4hiUQikXxj/ryHSzxA+Q8Ag3umgyfQSXfTAwP+9BfqwHEG6s7Z74VKnWJRtIu2KNbtckUZapma0Z9F+/WgnWMUKj+eTqeO46hTx1d5RAfpdFmwkrVt2RblAq1WqLF/obH69UCmRbtetst12S6XxXKx5OctK4qyKFb8oB6718nacl0su+a2RBRRys2//iHQoizrkpXFqlyVnLoui3LVXZ6tsvIkne7V5WKx2C/2g13r7wcLZb3b/cuQTp1uRjr8oQ4Ofcvf+Xzq7LqOHxylg5tJOz08Bc/ht1+Zp/Ab4Ql1AIGI/J8AAAAASUVORK5CYII=;clipPath=inset(14% 26.72% 15.6% 22.41%);" vertex="1" parent="1">
          <mxGeometry x="143.1" y="420" width="83.80681818181817" height="125" as="geometry" />
        </mxCell>
        <mxCell id="gXFku2u7cFtVppEHvoC2-37" value="Searches&lt;br&gt;&amp;nbsp;policies" style="text;html=1;align=center;verticalAlign=middle;resizable=0;points=[];autosize=1;strokeColor=none;fillColor=none;" vertex="1" parent="1">
          <mxGeometry x="190" y="375" width="70" height="40" as="geometry" />
        </mxCell>
        <mxCell id="gXFku2u7cFtVppEHvoC2-39" value="Request" style="text;html=1;align=center;verticalAlign=middle;resizable=0;points=[];autosize=1;strokeColor=none;fillColor=none;" vertex="1" parent="1">
          <mxGeometry x="245" y="450" width="70" height="30" as="geometry" />
        </mxCell>
        <mxCell id="gXFku2u7cFtVppEHvoC2-43" value="Selected&lt;br&gt;policy&amp;nbsp;" style="text;html=1;align=center;verticalAlign=middle;resizable=0;points=[];autosize=1;strokeColor=none;fillColor=none;" vertex="1" parent="1">
          <mxGeometry x="115" y="590" width="70" height="40" as="geometry" />
        </mxCell>
        <mxCell id="gXFku2u7cFtVppEHvoC2-91" style="edgeStyle=orthogonalEdgeStyle;rounded=0;orthogonalLoop=1;jettySize=auto;html=1;exitX=0.5;exitY=1;exitDx=0;exitDy=0;" edge="1" parent="1" source="gXFku2u7cFtVppEHvoC2-47">
          <mxGeometry relative="1" as="geometry">
            <mxPoint x="553" y="570" as="targetPoint" />
          </mxGeometry>
        </mxCell>
        <mxCell id="gXFku2u7cFtVppEHvoC2-47" value="" style="shape=image;verticalLabelPosition=bottom;labelBackgroundColor=default;verticalAlign=top;aspect=fixed;imageAspect=0;image=data:image/jpeg,/9j/4AAQSkZJRgABAQAAAQABAAD/2wBDAAsJCQcJCQcJCQkJCwkJCQkJCQsJCwsMCwsLDA0QDBEODQ4MEhkSJRodJR0ZHxwpKRYlNzU2GioyPi0pMBk7IRP/2wBDAQcICAsJCxULCxUsHRkdLCwsLCwsLCwsLCwsLCwsLCwsLCwsLCwsLCwsLCwsLCwsLCwsLCwsLCwsLCwsLCwsLCz/wAARCAERAQkDASIAAhEBAxEB/8QAHAABAAMAAwEBAAAAAAAAAAAAAAEGBwIEBQMI/8QARxAAAQMDAgMEBgcFBQcFAQAAAQACAwQRMQUhBhJxQVFhgQcTIpGhohQjMkJysfAVc5KywSRDUmOCFjNTYmSTwkRUg5TR0v/EABoBAQADAQEBAAAAAAAAAAAAAAABAgMEBQb/xAAtEQEAAgIABAQFAwUAAAAAAAAAAQIDEQQFITESQlGRMkFScaETFDNDgbHR8P/aAAwDAQACEQMRAD8A1oXym52HmUzsPNMIJUY7Uxcpnf3IAumdh5lM7DzTCCSownVEAXRMphBP5qMZTvRA3Tcpnoh22CAe4ZU4UbBEDdM9Ez0XCWWGCKSWWRkcUTS+SSQhrGNAuXOcdrIOZPdlQ57I2l8jmsY3dznkNaOpOyzrW+P5S6Sn0NgawEg1s7Lvf4wwvFgPFwPQKkVddqFe8yVtVUVDz2zyOeB4NafZHkFeKTKNtvdrGhNdyv1bTWu/wurKcH3Fy7ENVSVIvTVNPMBuTBKyTb/QSvz/AGHcFyY50bmvY5zHg3DmEtcD3gt3Vv00bfoS/Z2qfNZBpPGuv6c5jKiQ19KCA6Oqd9cB2+rnsXdL38lpmj63pmt0/wBIo5TdlhNBIAJoHHse2/uIuCqTWYTE7el4pk7JnYeaY2CqkPxUqMIgeKbkpm4TGyAVPYowiBvn4Kd/1ZRlTYIGLKMblMZTOcdgQNzucdiE32Hmmdh5phAwiIPFA8UTKIGNkwieKCfFRlM9E8BlAv2JhMBEBM9EzjCeAQCbLI+LuJZNXqX0dJIRpdM+zeU2FVK3Mrv+UfcHnk+zdeNtUdp2iyxRPLajUX/Q2EGzmxFpdK4eW3+pZCtKR81ZkREWqoiIgLt6fqNbpdXDW0cnJNEdwb8krCd45AMtPb78hdREG66Pq1LrNBT11NsJAWSxu3dDM23PG7p2d4IPavQwsp4C1R1HqztPe7+z6mwhoOG1UTS5pH4hzA9B3LVsrC0aleJ2dUzjCZ2GExsFVJjYJhOqICZTPRO6yAm/gmFPMPFBGdz5Id9h5pnYeanCCNgid908UDKZRSghFPVR1QEz07Uz0TGwCCfAZUbD+qmwCdUEJnomeiHbYZQD3DKbBLWRBmPpGqHO1LS6W/sQ0T5wO588pafgwKkK4+kNhbrdK/sk02G3VssoKpy3r2UkREVkCIiAiIg+9HUOpK3TqppsaaspZgfBkrSfhdb9novz0GOe6ONu7pJYY2jvL3taF+hcWHkssi0GNgmEtZSs1kJlMp4ICbJgJ4lAUqPyU2H6ugjCImcoHXCZTvT80DwRMJ4oCZTKeAQMWCWsmE8UEqM9Ez0TwCBjYJayYRATO3Z2pnYY7UxsEFE9ItA6Sk0zUWNv9FlfTTEC5DJ7OaT4Ai3+pZqt8rqKn1Cjq6KoF4amJ0T7ZF8Ob4g2I6LDtS06r0qtqaGqFpYHbOH2ZYz9mVng4b/DIWtJ6aVmHURQpWioihSgIiglrQS42AySg9rhehdqOv6RBy3jgm+nVG1wIqazxfq7lHmtstbPmqhwPoMml0MlfVsLK7UgxxY7Z1PSt3jiI7HG/M7qB91W/KwvO5XgTKZ6J0VUiYTCdUBPyTKX7BlA8BlPa7wmwTmCBlCinCCOiYTvTqgJlM9EvawCAdthlNgmEQEz07Uz0TFgEDGwymEwnVATPTtTOwwh22CBjYZTH9UwiAq5xdpGl6jplVVVJ9VPp1PNUQVLAC9oaOYxOHa12Ld+48bHnYeap3pA1AU2kw0DHWk1GcB4Gfo8BEjveeUe9THcZX3X2REXQzERXHhjg6l1uhbqNbVVUUT554ooab1bPWMidyF5lc1x3NxsBhRM67pjqpzQ9z4442PklkcGxxxNc+SRx7GMbck+S0ThbgmSGSDU9bY0SxlstJQkhwieN2y1BGxcOxu4Hifs27S9A0LRgfoFFFFI4WfM7mkqHj/mleS7yuvTWdr77LRB1TKZ6J4LNJ4JsmN08UDxTP6yn5JfsGUA9wymwTYAoO8oA7yp/WFGeimw/V0EIieKAmcJlD3DKBe2wTCYG6ICZxhM9E8AgXtsEwmE8UEqM480zsPemNggXtsEwmEQEzsPNM7D3pjYIHgFi/FWrDV9Yqpo3c1LT/2Sk3uHRxk80g/EbkeFu5X3jTXBpenGjgfau1Fj428p9qGn+zJL33P2W9SfurJVrSPmrIihStEIJDQXHABJ8t1uHDVL9D0DQoD9oUMEjx288o9c6/mVhzxdj2/4gW+/ZfoSGMRxQxjEcbGNHcGtDVndMOaZTPRFksdEwmEQEz+splCe7KB4DKbBNgg7z5IHiUymUv2DKB4DKe13psE5vAoCZTPRCbbBA8AmE2F06oCZ27O1M9O1L22CAdtgmEwiAvH1viLSdDjYat73TyNLoaaAB0z23tzEEgBviT32vZejWVUVFSVlZL/uqWCWok3AJEbS7lF+/CwmtrarUaqprap5fPUPL3new7Axt+wDYDwV612iZ0uknpIrS/6nSqdsd8S1EjnkdWtA+C9Ki9IulSWFdRVVM42HPCW1EfU/Zf8AKVmKLTwQruW5UXEHD2ocv0XUqV7jYCN7/VS3/dy8rvgvTN/LvX55Ntrr0aLWtc0/l+h6jVQtbuIxIXxeccl2fBVnH6J23W9tgujquqUWj0U9dVOPJHZrGC3PNK6/LEy/af6E4Czyi9Ietwlra2mpatg+05nNTzHzbdnyheDr2u12vVfr5/q4I+ZtJTNcSyFhzc9rj942+AsqxSd9Tbq6lqNXqtbU11U4GWd1w1t+SNg2bGy/YB/+9q6aItlRERBHay+OeMnoHBfobN+5fnh5sx5GQ1xHUC6/QVLKJ6akmG4mghlFu57A5Z5FofbwUKcKO26yWOqZ6fmmeiE9gygE9gymwTYJncoHifJMpnohPYMoBPdlNgmwQd5QPEqf1hR+Snb9EoIvaw7UwmEQEz07U3PRDtsEDGwymEx/VEBM4803KY2CCqceVgptBfTg2fX1ENMB2+rafXPPygHqslV39IlZ63UNOoWuBFJSumkA7JKh2D5NHvVIW9I1Ck9xERWQIiICIiAihSgIiIC2jhGqFXw7oshN3RU/0STwdTuMP9AsXXtaPxNreiRmCkfA6mMjpjBURB7Od1g4hzSHi9u9VtG0x0bWmeioNH6R6Z3K3UNOlj/xSUcjZG/9uTlPzFWSi4p4Yr+VsGowMkcP93VE07791pQAT0JWM1mFtvav2DKbBQ0tLQ5pBaQCHAggg9oIUgHJ8lCTxKZTKHuGUDwGUwmEscnyQPEplMp4DKB4DKn2lGE5vAoCZ27O1M9EvbYIGNgmExdEBM7dnamceZTGwQMbBLfFMLz9arf2fpOq1t7OgpZTEf8ANcOSP4kIMd1+t/aGs6vVg3ZJVPZEf8qH6lnwAPmvLTfbpZSumGYiIghFKIIUoiCEUoghSiIIUoiAoPipRB2qTUdToDzUVbU05yRDK9rT1ZflPuVp0zj/AFinexmpMZW09wHvY1sVS0d7S2zD0IHVUxFExEp23yiraPUKWCso5RLTzt5mOG2Ni1wO4IwQuzsFmno61CVlZqOlucTDNB9OiaSfYlic2N9uoLf4VpfifJYTGpWg8Sifkl+5QkPhlNgmE8T5IHiVKjKm36ugjGwTCY/qiAmdh5pnYe9DtsEDGwQbf1TH9UQMrqajp9DqtLJRVsbpKeQsc9rZHxnmYeZp5mEHYrt5Nh5lMbBBQqz0cUbuY6fqVREbHljq2NnZ/Ezlf+ardbwRxXR8xZTQ1jAPtUUrS7/ty8rvdda/JJHDHLLI4BkTHySO7msBcSvCouL+Fq71fLXsge/Eda11O4f6n+x8yvFpRpjtRBVUjzHV089M8bctTE+I38OcBfNfoBzaWris5sNRA8feDJYnDzuF4NbwVwpWFzhRfRpXb89A90G/4BeP5VaMnqjTHUV+rPRvUNu7T9UY8bkR10XKenrYdvkVcrOFOKqG5l02WVgv9ZRObUtsO3lZ9Z8ivFolGniIjvYeY3gskGWSAseOrXWPwRSgREQEREBERAREQEREFy9HdM6XWa6qseSk08xk2256mRvKPc1y1PKpvo8ovU6NUVjhZ2oVkrwe+GD6hnxDj5q5FYW7rx2L9gymEwmdz5KqTc7n3ImUvbCBfsGU9rwTYJzBATOw80zj3pjYIGNgmO1MXRATOw80zjzKY2CBjYJjtTCIK/xhWGj4f1RwdZ9SxtFH4+vPK75eZY0tC9I9bvo+nNJ2E1dKOz/gx/8Ams8W1OkKS7FLWV9E7no6qop399PK+O/UNNvgrFR8d8T0vKJpKesYNrVMQa+3g+HlPvBVWRWmIkabR+kXS5bCuoqqndsOaBzaiPqfsv8AgVZKPiDh3UCBS6lSuebWjkd6mW/cGS8rvgsOUbHI96r+nCdt9q6DTq5hjrKOmqG4tURMfboXC/xVbrOAOGajmdTCponnH0aUvjB/dzcw9xCzaj1rXNPt9D1CriaCD6sSF8W3+XJdnwVkovSHrkPKK2mpato+05odTzHzZdnyKvhtHY3Caz0d61DzOoaykqm9jJg+ml9/ts+IVcrdD4g0/mNZplXGxuZGR+ui6+sh5m/FaNR8f8O1PK2qbVUbzkyx+tiH+uG5+UKx0mpaVXtBoa2mqLi9oZWOeB/zMvzD3J4rR3NQwQFrr2IPfY3spW512g8P6hc1unUkrz/eerDJfKSOz/iq1WejrR5buoayrpHG5DJC2piHhZ9pPnUxeDTMUVrrOAuJ6bmdT/Ra1gvb1EnqZbfu5rD51XKuh1Ggdy11HVUx/wCoiexp6PtyfFXiYlDrooBBAIIIOCNwpUoFxcXBri0XdazR3uOwC5L1OHaL9oa7olMQCz6U2pmB/wCFTAzn3kAeaT0Gx6TRjTdM0uhAsaWkghdbteGjnPmbld7YJjft7UzufJczQzuURL9gygE22TYJi6Dfc+SBnc+QUqFNh3/FBGLAJhLWRATOw80zsPNMbBAxsEGyWt17UQMpnCZ2TGwQY1xlUvqeItUvcNpjFSRg9jY4wT7ySfNV9aZxXwdV6lVO1PTHRGola0VVPK71Ykcwcokjfa17WBB7r376FWaNrun3+m6bWQtH956syRf9yLmb8VvWY0pMOgigFpwQehupVkChSiCFKIghSCWuDgSHDDmkhw6EbqFKD2aPijieh5RDqU72Cw9XVEVDLDsHrbuHkQrJR+kerbZuoadFINgZKOR0Tuvq5OYfMFQkUTWJTuWwUfG/CtXytdVPpHnYNrYzGL/jbzR/MvfjlpKuIuilgqYXCxMbmSxuv2eySFgC+kM1RTPElPNLDINw+B743DzYQVSaeidtkreEuFq7mdLpsMUjv7yjvTyX7z6kgHzCrdb6OITzO07U5Gf4Y66JsjenrIuV3ylV6i404po+UGrbVRj7lbGJCf8A5G8snzK98L8Tz8QOrY5KBsDqOOFz5Y5S+N75S4Boa5oIOxOSo1ap0lQq3g3iui5j9CbVRj79BI2U2/du5ZPlK9v0e6bOzUdYramCWJ1JTx0bGzxPjeJJnesfYPAOwa33rScZTO58lE3mY0nRvk+SJlDthUSdMpjdLAJa+58kDO58giZTuQOie0mFN+qCEzsPNM7DzKY2CBjCYS2UQEzsPNNzjzTGEDCIiB3Jnb3plEHl13D/AA7qNzV6ZSyPP941gjmv3+sis74qt1vo50qTmdQV1XSuNyGTctTEPDflk+ZXnChTEzCNMjrOBOKaXmdDHTVrBc3pZQyQj93Py/BxVcqqOvonctbSVNM7/qYnxt8nOHKfIrf8ri9jHtLHta9rhYteA5pHiDsrxefmjT895x8FK2et4Q4UruZ0mnRQyOzJRF1O6/SIhvvaVW630bj2nadqbh2iKuiDx09bDY/IVbxwaZ4i9+s4P4rouYmgNQwffoXtmFu/kNpPlXgyMkheY5o5IZAbGOdjo3g/heAfgrbiUIREUoEREBar6PqMU+hvq3Cz9Rq5pwe+KL6hn8pPmspdzEWYLvdZkY73uPK0e8hb3plEzT9P02haBakpYINrbuYwBx8zdUvPRaHbzufJETwGViseHalrJhM7nyCBnc+SInTKAmEwnVAGVNvFRlLD9FA2FgEx1THVEDKZ2Hmmbj3pjYIGNgniURATKJ4IHdZMZTZOqAmUyl+5APcMpsE2CZ3PkgeJ8kyl7oT3IH5r41FJRVUZjq6eCojOW1ETJG+54K+2wTxPkgq9ZwJwtVXMUE1FIbnmopS1tz/lyczPgq1WejnU47uoNQp6hovaOqY6B/8AHHzN+AWm5S6tFphGmH1vDvEmn3NTpdVyAXMlO0VEdu/mg5j7wF5N23IuLjYjtHUZX6GwulV6To2ob1un0dQex00Ebnj/AFEX+KtGT1RpkXCmmy6prlA1sZdTUM0dZWvteNjYjzsY44u51rDuv3Lasr4UtJRUUQgo6aCngBuI4I2xsucmzRlfcm1gFW1tpiNHgMpsNymw3TO58lVJnc+SJlCbICbBMBM7oGdymUz0RA8Et4phTc/oIGVF73A96Zx5psEDYbJhMXumUBMp+im3YgeCbDdcZJIoWSSyvayONpfI95DWtaNySTsqbqnGZ5nxaVGCBcfSp2nfxjiP5n3LbDgyZp1SGObPTDG7yubnMa0ve5rWt3LnkNaB3knZeRU8S8PU3M11ayVwv7NM10x6czBy/Ms2qq6vrn89XUzTm5IEjiWj8LB7I8guuvWx8qj+pb2eTk5pPkr7r5PxxQN2p6Gpl8ZXxxD3DmK8+TjfUjf1NDSM/eOlkPwLVU0XZXl+Cvl25Lcfnt5lidxjxC69nUjPwwX/AJnFfE8V8THFYwdKeD+rSvDRbRwuGPJHsynic0+aXuf7V8T/APvW/wD16b/+FybxbxI3NTC/8VPF/wCIC8FFP7XD9Eex+5zfVPussfGmuN+3FQydYpGn5Xruxccy4n01h7zDOW/B7D+apqmNkkzxFDHJLKcRwsdI/wDhYCVlbguHnvVevGZ47WaHBxnocpAlbVU5OTJEHsHnESfgvapNT0qtt9FrKeVx+614Enmx1nfBZf8AsfXuXmOl19v3Lr+7PwXTfHLE8sljkikblsjHMe3ycAVx25dhv/Hb8xLsrzDNT+Sv402fr5BMrLqDiTW6EtaKg1EIzFVkyC3c1/2x71eNI4g0/VvqmXhqw0udTyEEkDLo3DYjyv4Lzs/BZcPWesPQwcbjzdO0vZvbYZTYZQWG6Z39wXE7TO58kROiB4BMZTYIgJlM9EQOiYTYIB2lAHeVOyjPROUeKBjCeKIgZ/omUzdPBA6JhMJv2oKVxvWzh1BQNJbC+N1TKAf944P5Gh3gNz5+Cpa07iHRf2xTs9UWsq6fmdA52zXh32o3nuO1j2LNqinqaSZ9PUxPhmblkgsbd7ewjxC+k5dkpOKKR3h85zDHeMs3ntL5G9jbPYrjo2h8IVkMJdWSVVU5rTLE6c07mvIuWtiYQ7bqVTk7j2jB7l2Z8VsldVtMfZy4Mtcdt2rEtFm4N4fkbaJtVA7sdHO9/vbLzBeDW8GarDzOo5oqpg+676ma3dZxLD/EF5tFxDrtDyiKre+MW+qqfrmW7gXe0PIqyUfG9O7lbX0j4jgyUx9Yy/eWOs4e8rzJpxuCd1nxQ9GLcHm6WjwyplTS1lE7kq6eaB2AJmFoP4XfZPkV8VrVPqGjaowshqKaoDh7UT+Xn84pBzfBefVcJ8P1Tw8QSU5vdwpJDG1w7iw3b7gFanM4rPhy11KtuXTPXFbcM0uLtH3nGzWi5cT3ADdexRcNcQV3K5tL9Hid/e1pMe3e2OxefcFoVJpWj6YwupqWCANF3zOAMhHe6WS7viulXcVaDR8zWTOqpRcclIA5t/GQ2Z8Sq25hkyz4cFVq8Bjxx4s1nRouCtNi5XV00tW/YmNt4YPNrDznzcvfazSdJg9ltJRQNyfq4Wm3edrlUit4x1eo5m0jIqOM/eb9bNb8bxy/Kq7NPUVMhlqJpZpD9+Z7nu97iqxwfEZ+ue2kzxeDB0w12v1bxlpMHM2kZLVyDBH1UP8AE8c3uaqdq2sVmsTRy1DYmCJrmRMiaQGtcbm7nHmP623385F6GDg8WCd1jr6uHNxeXNGrT09Bco5JYXxzQvdHNE4SRvabFjm7ghcSQASSAALm5wvZ0Th+s1iSOSRj4dNDgZZngtdO0ZZCDvvgux1K3y3pjpNr9mGOlslorTu0egndV0VBVPbyuqKaCdzRgOewOK7K4sY1jGRsaGsY1rGhuwa0CwAC5L46ZiZ6Pr671GzGyY3TCZUJPFM9Ez0RATCYS3aUDxKZ6JueinogjwCnfv8Agowl/AoCZROiAmN0xuiBncp+SZTwGUA93autWUGn10fqqynjmZvbnHtNPexw9oHoV2cJnc+SmJmJ3CJiLRqVNrOCIXcz9PrHxXvaKqb6xg8A9tne+68Cp4Z4jpub+x+vYPv0kjJLj8Bs/wCVajlD3Lvx8wzU6TO/u4MnL8N+sdPsxqWGopzyzwTwuHZNFJH/ADAL5BzThwPQgraiGke0Ljtvv+a6cml6TPvNQUchO/twRE9b2XZXmv1V/LktyufLZkQyHC9xgg2I6Fd+PWddiaGx6jWBoAABmc4Adw57rQ38NcNPNzplOPwc7P5CF8ncKcMH/wBCR+GoqR+T1eeY4LfFWfwpHL89fht/lnVRW6hV2FVVVE4G4bNK97R0aTb4LrrTP9kuGBv9Df51NUf/ADXNvC3DA3/Z7T+OWd38z1aOZYKxqKz7R/tE8uzWndrR/wB/ZmC487CeUOBPc03PuC1iPQOHY/saXRbdroWv/nuu7HTUkG0NPDH+7jYz+UKk81r5arV5XbzWhk8GmavVW+jafWSA4d6lzGfxyco+K9ml4N1yYtNTJTUjL7guM8tvBrLN+ZaLjKDfc+QXLfmeW3wxEOmnLcUfFMyr+n8JaJRlkkrH1kzSCH1fKWNPe2Jo5PeCrAALAAWA227OiJ4Lz8mS+Sd3nb0MeOmONUjRhMJhMrNoZTPREQOiYTCeKAB2lM99kyiB4BMJsEHeUADtKm471Geico7kEoiICIiAiIgIiICIiAiIgIiICIiAiIgIiICIiAiIgIiICIiAiIgIiIClEQf/2Q==;" vertex="1" parent="1">
          <mxGeometry x="513.83" y="431.25" width="77.66" height="80" as="geometry" />
        </mxCell>
        <mxCell id="gXFku2u7cFtVppEHvoC2-48" value="" style="shape=image;verticalLabelPosition=bottom;labelBackgroundColor=default;verticalAlign=top;aspect=fixed;imageAspect=0;image=data:image/png,iVBORw0KGgoAAAANSUhEUgAAAOEAAADhCAMAAAAJbSJIAAAAwFBMVEX/////mQD/lgD/lQD/nQD/kwD/mgD//ff/+Oz/26z/+/b/7Nb/t2H/nAn/3bn/79r/5cj/u2z/woL/pTn/1qb/s1b/wH3/oi3/rlP/9+r//vr/+vL/8uL/r03/z5T/4b//6dH/0Zv/wHP/qkH/yYb/xoD/4bj/79X/6sz/vGX/1Z//rUb/z5f/pjH/pyL/tFz/oCD/iwD/s0r/rTn/pBj/yXv/tT7/qUP/rDX/wmX/1JT/wXD/3rH/yI7/vXP/uVl+5kMWAAAPJElEQVR4nO2daWPiutmGYwmB2WIzMeF4AYPZt4QJnJ60A8n//1eVvEpGNjYwxtPq/tC+78QVuqxduh/56UlISEhISEhISEhISEhISEhISEhI6I+QuVBuS8CYN437ZOW3SFf/ruxt/foETGXw9ray7peje8qwtM4bhBJAu069cU0K5ux1LCGcQPV9ZZWuIO3THiAgeQKo0qrL+RJYjLpVBEGQAFiPbqzu99Rc+wBh5kJItNey5lF5XlYROkvgcFr81nxnk2U722qMLsgjbI8HyqXaJg8n+zbgJiBBqTcdmoVw8GUqm/cdgNzMhdW1P1ASG2VNry+3EuLjBZAvj4I0Zz+2IDVzASRYD7jVdXHqV7MkANF2ahdMJ8825y0vDRK9TZgmZSy0ViV7AhJEFWdWZEkqP7bxjuEyJPg7SsDc9LOUPy2E0L+uGoOuVK05Wac3ILYMpH8mTaYMDH3VbWdPAMCto+Ycf+4BuZWyVDQobSfDGicFRftI6kVZPLBbFomnTefh/z3fHC5UV9yCpmET1Dc/8H82l7MwAau+v5AArs1LOyj+2rFVAOEKD8VUv6GMxjApj5AetBXtE6F3QgiQ5NhhoZr1bmKXikebr/B1yLNviKRCCEnF2w/CJYBhDXhtEjedqRo8Y9XXpEICUgTNqlvxHDVsmDLpWc8TQIfOMehcdHu5IzW6XRAhyX+1PwqnxzVlMGZmNgD0foUEcv297f0xJCQFDMbTqHlauONhEoC793qwSDFVZ+c32OII3XcsdVdRB9A8bYHPAatRz9A4dqLyoQnJc3BPTQYUbR8mIH3UwyXU4vUtKuBCCV1I9KFFq7n5Bo+TSOrMgqKpzVpM/WUJXRb0Noh6LqvexQmgj7D0ntQpnhlQVbdoQjePYB+97ydlcAyqrvz8HZ+TnxF6CbwNmmEC5moV4NUwXnw0eQCh12a69djCXrZ/9c7HOh6hm0B1PIitec3h9EU6n9U/hpDkEbU7x7BvbNhfPe4AkEDoJlD9axC+JQNPmQB3NvEwQi+PrSF5wJoeEse3REI3AdCvu3yjz8RZ+SMJsdAreeA5+YFUQizYI32UnDLLeTAh+OESJufvEqH0QgjN5L8LQkEoCAWhIBSEglAQCkJBKAgFoSAUhIJQEApCQSgIBaEgFISCUBD+XxGObiBEf+G/D1OOli4RAlAAoTXlOEOyEAIkdYi7xkw5HkwlJK6BYwGEWPYXHzKF0DVGh94SZbJFXF9qMiGAYL26wSOfV+axxfHdJRLCan+lM+f0lEUmCyEA44nC88b9TlmrfdxJwCcEoDcZcszQ+vN3O15buYSuc+8xPuH5hDW7cAhJ41MTvd6W9sYa984JSeN7zmxMVLTT/PJTKbJmJ5utKwvalhAnJHgzbkJUnjaf1FuKERLzgpa19HTV2VaB6/W8rsDl4WDdxgnsfqlMg2/MQlsXQ0gCQzLlzhhOt0FtZQghGA8yhs80rFFrF3nGxtO8tbqmH53QVA9BrzNj6o2ueX5fipDjAUqRqXrOQ4oQgG1Wk35t9mPMmqqJmew1h/t9MYib6nHf36kzP6+MtjhZjxACeOD2LWnSjx+4DHxC1/uXDW8x+oDc4RUQ93uG7lepJ5jqcQ/QrTN1aH6qfLmEwLkueEDXPneen6abzZhvPS/bfOtUUJTV71laPdft6Vt6AlIs8sdNTb/BUu9W7EaWgV0eTvq8ETWeR7DrHrmQpqJ979LwAsh2f3Mx8ufeash1J1M4i5dH1G6t2PHGMO3JOEs4i5+A1L8c3nRXwH///Jk33AP0TxTkf2DuBND2RzM5S/fXrJM4/edn8PB1ZJr24vSWI2bHtSUWHfiJh+FdNkiAel/2eR0zFpMxTAtLoxKotI4FzhqjBUbg30/NHcAzlKB+yhr+3xpa2KTMocNz6bIJwHY0Zph2ERGREC/DwheKIc9m73Tuqsvn4IUYx04FkKb0D+qPwgpXW0wOyR0qO1qo0+1PrQDCNq41sHUM+w3D5rdJ3HSWoefcmC1x1wkqJLd/Adxv0EG4CW2SPKXFLPWoXgih93K/nyPTtP11OJ90HYMJjWwvfUu9Tyh5BnxqLJ9P9pCBdEMtwuIfOgevyRZHKHmrRjssSXPm9KI46XYrdNbLKmWpjwi9FtaPJgO14SRskyRcJpxV15qTcdhYCyV0c9Jz1HDq6XU8JN9hCIiBmw7dXzKEwbsIG7U5nPbwugKvv8KQJ0NhI56KJnTzeHiN+jdcHz+jCBe3fTFPxwklb6Q7RmPJYkqFu1qjeGTdAwi9NueoZ48tYsE2SYRuAvD7fBthPno7Dxx8DCHJIxvWXsNrau44xyeU/EZNTfiV1Zgbg/8wQokEDI6n3sRRoXqGrISSO/VxvKmPOUoM4H0kodvBk3WbnjKZSyMkbwm5tX2ZnMBjCTEAIZR7KQ+kE0rAJeykHEsIQkEoCAXhwwgtW5t+f2AtJ5p927lCGQmVwb4t4aWJK/zf1d6yfsuOR9kIVc5dAuSurITdAMO01KNW146qlbQxUi5C2UmYHkDA2ZozZpPuASBP0luLf+RbKkK7krTNA9Znm192p4piy2zQ4lxOVCZCjdkIAxL1/6EJm+1a/cA9HIHTsyOCEhEeowchrGxfXl627fCEji0cdZy03QXX8V6pPITN6Ch456iKbpqmrgy15Y6U5pg59pJ3yZuWsBdbm5aG0HgJNnykFYNjqA5AJzbXTkAY9DNUkYJxSQkHvnUKjs+7/do01oM0vRth0KEzmilYs1E/asOxNlsWwuB3wDiLj6KxBhKsdGyqW1FaUc1lmmJZCI9+EYJsdyduUDterk+jMNlpGQm7fp/JZC5ZyifnTWwCj+ALXQ9KQljb+f9y01lNN/gpegJUEsJ54CG9BfBJRfF0y0No+//ydhNh4+ClAunetCyEvi/qNsKwNZeXUKrcRvhVXkI1+Jfbjr99QjQqH2HQ09y2c2P0AfXD5SIMRgswvsVo06h4qezoSU1JCJ++/afQLUf7dW+0AO/0P5aFMLwOC1zvrjf9vCLGCFgWQjNYPElgcC2hP/cGXaamJ+f/MmG1eSshVSWPYeAJ7F61eWgsgwUmO2X9Tr63Np0QwGqX7G1Nkm1GFwihtKVnodHqB1Qm+e/InY8DY0S8mlta0r21KYTENRyc8JvP3wkJpBECVGEvtH6SK5SFoTLNFwxit4JVPlpx/kwsBJyNj0RCiD7ZO8Vr9S7PvZlIiPFezxcROoWIf+Pj+ZIluaFYlqXMbW0ZGjxgJcFubDQn27PdKz4huQx3cT5o6YP+2WE4n5DYj2ZcW7CypYPAANhN0htkHbSxqtEF0wC1UoretDs7FpJDiH+1ZSe0kVqT+GcuEcJKX0vMt95iXxJqO2lL/nosKq66fk59I679nb5wO07oWrtiuTNVujTM0BDGJ4TgMEg3zq5i3RaUnOROJ0a4zeSHJ/1OkEeGEPctn5sY3mL0QRxCjE++NouaJEt43rfwpHdiXQIEvK6DRyhV+1qmYC7l9OL9CEUI0PbE1pfI2A+g1K3TfzQ1H5IiBKj9dSneJ/h9J3YVNlonVNU4Ic5KZZBpnGkMnR4AwCcErt+NLie5OekzbZb4YjUq4sW9sRuCgBD/mfJ3XpY1eWFPMNrnJi2iY7vX6+12FfqNwF7G2A3ZXrZ9P027S/cthq59bTkmWVwHu/TnbGpDZwfdjLXAOrlvSZCp4gZNJS5xs92wdCxLGdaXvfAYB2Sf9ekaITSZ3C1O68Qr44mhbb2hzqRrM7d21a87plZOVboSXkjEUCNjUvycKrPmWkLAENMQ7vk5m1V0nAh2Fxf/Vj94I+iKubtOvn+T5cMLkjvdvNeXXuROiAidy49vwgzy222yjv02zBFN4fr+HJU7bckrLUo0Q2VfBZPv8eVnGcnqKTVii4OIwP4+ldUOSjFLIT5NA8RLkxuOFgOOA5YvN9b1biEj4box090BwbOfOX4hivlWRuvL8V+urT8YNPR7RP4EhxGZjjRGfiGiHIuv/naqhB81sc6iQ1k8uIuGdtnutEdJqebQwk8cZUlM8Xdl8uxKdnEns56EoT9G/NsbER6gAn4a9usOgZs2zkJt/fRfczwMT5cfDUQqCR7m9tS0ez46+x4O+TBc5M2ypwd3agvvQujvv4BMH8XxdyVBJ3v6fjMg39HaUN8HWVGTGxIzGX7cz6C+oXEfwoG/hfZ++dGnp195Xoen8NSR7D1R8U2G3ybd7yuGH3gZTnaU0ec+hBpvnzdJuQrcU5eZ5cNKhPPUwG2yvY4Cfs5s/fch9C+4yZbp7tW1lGpxlRZ19UFYppj2bFZwH0LfPJOtp+ld19PEhBcR3SMz4Ci8iJh7EY79I7PEtT6lcGjJM1rwtzsh+Hj2+05lw1sw3o0wuCYKZVmFBdM2lGOuwSeU3PHPncKfkj8XdxdCJ8fxsBxM8Q45fiCREL8od377muKiuwPhInCDZXHavAcbw5scv5BCCD3ClAeyEzoJ+1RKeDhGbUdZCRV2EhRhO8+ZQDGEcht98hjtajDvphdPDuLtFJutcJGfpwgLIrQBuWBmEPuwo7IMUgI9qlSMHhu47PEdd+Eca53rDqxiCL3uBFb/cepN2SSSm6P3aL8N0JttrjWFHDCMhrJZwzJldfpCHc7l+7pzMYSVIHcQocrbfr/fVugBll2kBP5ZPFeubPtYW+ZKHDDMBVgM4Tz29Tl20yu+CoOxZ9mHq3mvFCmEcJB8tyIuwC27up/9TNloQP3c9+wVQtgY9BLN99Vp/EBA7UsJD6PdKv9FewWNh3J9zdmQxfOmJWf+ZahLjv2AHKlec1FiQYRP5BKt74pru/dEIn2+j0lZ1o9L6mHcP6HKL/u6Db7iCN2Mz7TTV+v9/b3zOjpe6vTJw5139+FV6hVd6SqW8BEShIKw/BKEgrD8EoSCsPwShIKw/BKEgrD8EoR/PmEn+e7cC4QASVeYr4qX6RqG8xPmuyj/wZJZC34GQgAP01vvdypY5rF/bg5OIASoeuVF+Q+WvurHjut5hIxz74+ToUzGAKYQkvt0tfxhZ6WSqf6KovFihO59uo/O4D0kP3f9oz2akDS+Iu4fL0g1rU+8tCEhxvv6I/uWNFmDNfDdJoi+1v1/SbXmt+uemF6IEvyTpbvdpnWXsAMhISEhISEhISEhISEhISEhISEhoQfrvwHZW5vU0kPvAAAAAElFTkSuQmCC;" vertex="1" parent="1">
          <mxGeometry x="-220" y="437.5" width="90" height="90" as="geometry" />
        </mxCell>
        <mxCell id="gXFku2u7cFtVppEHvoC2-51" value="Uploads&lt;br&gt;&amp;nbsp;document" style="text;html=1;align=center;verticalAlign=middle;resizable=0;points=[];autosize=1;strokeColor=none;fillColor=none;" vertex="1" parent="1">
          <mxGeometry x="50" y="364.38" width="80" height="40" as="geometry" />
        </mxCell>
        <mxCell id="gXFku2u7cFtVppEHvoC2-52" value="For &lt;br&gt;Document storage" style="text;html=1;align=center;verticalAlign=middle;resizable=0;points=[];autosize=1;strokeColor=none;fillColor=none;" vertex="1" parent="1">
          <mxGeometry x="-235" y="545" width="120" height="40" as="geometry" />
        </mxCell>
        <mxCell id="gXFku2u7cFtVppEHvoC2-54" value="Claim &lt;br&gt;Adjuster" style="text;html=1;align=center;verticalAlign=middle;resizable=0;points=[];autosize=1;strokeColor=none;fillColor=none;" vertex="1" parent="1">
          <mxGeometry x="517.6600000000001" y="390" width="70" height="40" as="geometry" />
        </mxCell>
        <mxCell id="gXFku2u7cFtVppEHvoC2-58" value="" style="shape=image;verticalLabelPosition=bottom;labelBackgroundColor=default;verticalAlign=top;aspect=fixed;imageAspect=0;image=data:image/jpeg,/9j/4AAQSkZJRgABAQEAYABgAAD/2wBDAAoHBwkHBgoJCAkLCwoMDxkQDw4ODx4WFxIZJCAmJSMgIyIoLTkwKCo2KyIjMkQyNjs9QEBAJjBGS0U+Sjk/QD3/2wBDAQsLCw8NDx0QEB09KSMpPT09PT09PT09PT09PT09PT09PT09PT09PT09PT09PT09PT09PT09PT09PT09PT09PT3/wAARCAE8ASwDASIAAhEBAxEB/8QAHwAAAQUBAQEBAQEAAAAAAAAAAAECAwQFBgcICQoL/8QAtRAAAgEDAwIEAwUFBAQAAAF9AQIDAAQRBRIhMUEGE1FhByJxFDKBkaEII0KxwRVS0fAkM2JyggkKFhcYGRolJicoKSo0NTY3ODk6Q0RFRkdISUpTVFVWV1hZWmNkZWZnaGlqc3R1dnd4eXqDhIWGh4iJipKTlJWWl5iZmqKjpKWmp6ipqrKztLW2t7i5usLDxMXGx8jJytLT1NXW19jZ2uHi4+Tl5ufo6erx8vP09fb3+Pn6/8QAHwEAAwEBAQEBAQEBAQAAAAAAAAECAwQFBgcICQoL/8QAtREAAgECBAQDBAcFBAQAAQJ3AAECAxEEBSExBhJBUQdhcRMiMoEIFEKRobHBCSMzUvAVYnLRChYkNOEl8RcYGRomJygpKjU2Nzg5OkNERUZHSElKU1RVVldYWVpjZGVmZ2hpanN0dXZ3eHl6goOEhYaHiImKkpOUlZaXmJmaoqOkpaanqKmqsrO0tba3uLm6wsPExcbHyMnK0tPU1dbX2Nna4uPk5ebn6Onq8vP09fb3+Pn6/9oADAMBAAIRAxEAPwD2T8aPxoooAPxpfxpKKAD8aPxoooAPxo/GiigA/Gj8aKKAD8aPxoooAPxo/GiigA/Gj8aKKAD8aPxoooAPxo/GiigA/Gl/GkooAPxo/GiigA/Gj8aKKAD8aPxoooAX8aT8aKKAD8aPxoooAPxo/GiigA/Gj8aKKAD8aX8aSigAooooAKM4opG54oAM4paQDFLQAUUUUAFFFBNABRSZpQc0AFFFFABRRRQAUZwKKQ9MUABYfWlpAMUtABRRS0AJRRRQAUUmaUc0AFFFFABRS0lABRnFFITxQAFhjPWlBpFXFLQAUUUUAFFFLQAlFFFACE+lAHr1pQMUtACUUUUAFFFFABQRRS0AMxzTgKKKACiiigAooooAQnHSgDuetG3BzS0AFFFFABRRS0AJRRRQA3FKKWigAooooAKKWkoAQnFAHc9aNvOaWgAooooAKKWkoAKKKWgBKKKKAClpKKACiiigAooooAKKKKACiiigAooooAKKKKACiiigAooooAKWkooAKKKKACiiigAooooAWkoooAKKKKACiiigAooooAKWkooAKKKKAClpKKACiiigAooooAKKKKACignFITigBaKiuLmG1t3muZY4Yoxl5JGCqo9ST0rirj4jS6rcvaeDdIm1eVTta6b93bofdj1/SgLndA0Vwg8N+NdZw+r+J006M8/Z9Mi5HtvOD/Onj4VadKd97q+uXcndpLz/AAFPQVzuKK4Y/CjSozutdU1u2cdGjvDx+YpD4T8XaTltG8WyXSjpBqUQcEem/k/pQFzuqK4NPH+o6FKkHjPRJLFWO0Xtr+8gP164/Mn2rtLC/tdTtEurG4juIHHyyRtkH/6/tSsFyxS0lFAwooooAKKKQnFAC0UUUALSUUUAFFFFABRRRQAUUUUAFLSUUAFFH4UfhQAHpTcmnUmKAFFFIOKX8KACij8KPwoAKKKQnFAA3p61k+IvEVh4W0p7/UZCqDhI15eRuyqKvX97b6bYT3l5II4IEMkjnsBXDeF9Mn8Z6yni7XYyLZT/AMSqzcfLGmf9YR3JPQ/j/dwxMSz8Nar47nTU/GHmWunA7rbR42KjHZpT1z7dee3Su9tbSCxto7e1hjggjGEjjUKqj2AqbFFIEgoo/Cj8KBhTaranqlno9k13qFxHb26kKZJDgZJwP1NWcUANlijuIXimjSSNxhkdQQw9CDXCal4Nv/DN3JrHgiTyyTuuNLckxTj/AGR2Pt+RHQ98BilIzRcTVzC8K+LLPxVYNLbhobmE7bi2k+/C3ofUcHB/kQRW7XC+MtAuNKvv+Et8OKF1C2GbuAfduov4sj1wP0z1ArqtB1q18QaPb6jZtmKdc4PVD3U+4PFMF2NCiikJxSGDdMUKuKAO560tABRR+FH4UAFFL+FJ+FABSZpabigBRS0gFL+FABRR+FH4UAFFH4Uv4UAJRRRQAUUUtACUUUUAFFFFABQBiig0AcB42L+KPFGm+D4XItj/AKZqRU/8slPyp+J/mDXexRpDEscaqiIAqqowAB0AFcN8OlOq6j4h8SyjLX14YICeoij4A/X/AMdrRu/iNoem6zNpuqNdWMsTlBJcQMI5PdSM5HvTEdVRVWx1Kz1OLzbC7guY/wC9FIGx+VWqQwozRRQBwvxIzqN74a0Ici+1FZJB/sR8t/P9K7quFb/ia/GhRj93o+m5/wC2kh/+Jb9K7qmxIKrX2pWemW/n393Daxf35pAg/WrNeVRaBp8fxNu7PxZC18+oZm024nlbYRzmPbnGR0HpgYHIoSBux6lHKk0ayRMro4DKynIYHoQfSuC0VP8AhDfiHcaIvy6XrCm5s1zxHKPvIPwB/Jahe11X4ZzNcWAm1Pwwx3S2xOZbPPVlPdf8nH3qf49vbXWfBtn4n0WZZm0u5juY5F6gZAZSOoP3cj2oEeh5pAOc1HbXCXdrFcRcxyorqfYjI/nUtIoKKKKACiiigAopaSgAooooAKKKKACiiigAoHFFLQAlFHNHNABRRzS80AJRRzRzQAUUc0c0AFUdcuDaaDqNwpw0VrK4PuFJq9zWZ4mRn8Lasq/eNlMB9dhoAx/hjbC1+HmkLjBeIyt7lmJ/rXS3Vpb3sJhu4Ip4j1SVAyn8DWB8OpBJ8P8ARSO1sB+RI/pXS03uJbHG33wu0CeUz2CXGlXPUS2MpTB/3eR+WKrf2P470PH9na1aazAv/LK/j2Sf99Dr+JFd3Rii4WRwg+I9xpJ2eKPDmo6bjgzxL50P13Dp+tdHpHi3Q9dC/wBm6nbTO3SPftf/AL5ODWwRkYIBB7Vzmr/D/wAOa0We50uFJj/y2g/dPn1yuM/jRoGpkfDr/iY6p4n108i71AwxMf8AnnGMD+f6V3VZvh/QbTw3pMenWAk8lGZsyNuZiTkkmtLmhggrnvGfhkeJtEMUTeVf2586zmHBSQdOewP+B7V0PNFIZzfgrxKfEejsLtfK1OzbyL2EjBWQcZx6HB/HI7VznivwDdWcN/d+FMJHeRMl5puB5cwP8SA8Bh1A/LHQ2fF9vN4S8QReL9NjLW7Yh1SBB99DwJPqOPxA9TXS6h4r0XS9Njv73UreO3mjEsRLZaRSOCq9TT9CbdzK+HGu2upeFrOxWb/TrCFYLiBwVdCvy5weccdf611kkiRRtJIyoijLMxwAPc15JqVxc+M9ct9V8FaHe213EwzqsreRHIPQr0f68nHBB7dFH8PL3WpFn8Za5c6iQd32O3PlW6n6Dk/pQwTLeqfEvRrS6+xaYs+sX54EFim8Z926Y+marf8ACReO7r57XwhbwRnoLm9Xd+QxXWaXo2n6LbfZ9Ms4LWLusSAZ+p6k/WrUkiQxtJI6pGoyzMcAD60XQ9TzVvipqWnat/ZuqaDHLeDhodPuvOkHttAPPtmvQrHUra/UiGRRMiqZYCw8yEsMhXUE7T/hXjuoQ6Np+r3lppniXV74XcryPY6RCPMYk5w0wzuGT6Gum+HnhW+07XZtVfSzo1k1r5Edo85lllJYHzJD68Hjjr0HdtCTZ6PRS80nNSUFFHNHNABRRzRzQAUUvNJzQAUUc0vNACUUUUAFB4opG54oACQMUtIBj60tABRRRQAUyaFJ4XikGUkUow9iMU+g0AcT8Kpmj8MT6VNxPpd5LbOp6gbtw/mfyrtq4yNI/DfxGkISKO115AdxlILTr2Cnjv8A+PV2YOabEgooopDCuZ1/4g6H4cvDZ3U0s12uC0FvEXZRjOSeAOOetdNXn3ilD4O8ZW3imJf+Jfe4tNTUDhc/dk/QZ+nvTQmdnpGtWOu2CXmm3Mc8DfxKeQfQjqD7Gr2cCuH1XwRLaXh1rwVdJp98w3PB/wAu9yOuCOgz+X0PNQ2/jTxNqJFlaeE5o7+P5bmW5bbAh/2T/Fnr1/OiwXO8Z1VSxICgZJJ4Ark9X+Jeh6dP9ksnl1W/PC21ghkJPuw4/LNVD4E1PX8N4u1ya4j72Vl+6h/E9T+QPvXU6RoOl6Db+TpVjBapjny15b6nqfxNGganHTW/jfxhG8VwLXw7pkwKvHgTXDoeoPYfp9K09C+GXh3Q2SU2pvrpcfv7vDkfRfuj8q6HU9Z07RbczanewWseODK4BP0HU/hXEah8W7Wa7isfDdhJqF1O4jieVvJjZj0xnk/jijV7C0R6GAAAAOB0FYWueNtB8PBl1DUIhMv/ACxj/eSZ9No6fjisA+FPFfiTLeJdf+w2rdbLSxt49C5/+vWZpXhjS9K+LNnp+l2+2HT9Oa4lLsXLSsdoJJ74YUWQ22aZ8V+KvER2+GfD/wBjtm6XuqHYMeoTr/OnR/DeXVpVn8Ya5eas+c/Z42MMC/8AARz+WK7nNKDRcLFPTNG07RbcQaZZQWseMYiQDP1PU/jV2iikMWkpaSgAoopCeKAAsAKUU1VwKdQAUUtJQAUtJS0AJRRRQAhOKAOc96AMd6WgAooooAKKKKACg0UUAYninQE8QaSYeVuIXWe3cHBWRTkc9s9Cfeq/g3xQviHT5IrhTDqlm3lXkDLtKuO+PQ8/iDXRnmuN8WeGL1dTj8SeGSsesQLiWI/du07q3vgfoOhAIYmdlRXP+FvF9l4mt2CBra/h4uLOXiSI9Dx3Ge/54NdADSGFVNU0231fTLmwvF3QXCFHH9R7g8/hVujtQBxPw/1G5tBd+F9VYm+0ltsTn/lrB/CR9Mj8CtdlJLHBC008iRxoMs7sAqj3JrnvEvhF9Yu7fUdO1GTTNUtxtS4jXcGX+6y9+p/M5zWXH8NF1KcXHivWr7WZAciIsYYV+iqf6inoLUsal8TtFt7g2mlC41m96CGwjLjPu3THuM1S2+PvE33mtfDVk3Zf31wR/IfpXZabpNho9uINNs4LWIfwwoFz9cdfxql4l8Uad4X077VqMuCeIoV5eVvRR/XpR6B6nG614Y8N+CtMk1fV1m1vVHO2D7c5laaU9AE6Y9etZGq+Hp/DXhHTNZ1HB1aTWYL27YADYDnCcdh7dyfaun8OeH9R17W08UeK4/LlT/kH6cfu2q9mYf3/AOXU84Au/FO2+0/DvVcfeiVJV/Bx/TNO4rXOu9a4bwj/AMTD4ieL9SP3YpIrJD/uD5h+YFdbpl4tzotpeM3yyW6Sk/VQa5T4URtJ4ZutRkB36jfz3BJ6kbtv9DSGdrg04UUUhhRRRQAtJRRQAE4pAO5oxzmloAKKKKACiiigApaSigAooooAKKKKACiiigAooooAKKKKACggHqKKKAOZ8SeCLPXLhdQtpZNP1eP/AFd5b8McdA4/iH6+9Y48V+I/Cn7rxVpL3tonTUrAbsj1dOMfp+Nd9RincVjC0nxt4e1pQbLVrVm/uSP5b5+jYNbisGUMpBB6EHNYmqeCvD2ssXv9JtZJDyZFXYx/4EuDWG3wk8PqSbaXU7YHtDeMAPzzRoGp3B4GTwBWPqni7QdGQtqGrWkJH8HmBn/75GTXPj4SaC2PtFzq1wPSW8Yg/kBWvpvgHwzpLB7XR7bzB0eVTK35tmjQNTDfxxrHiT9z4M0aVkbg6jfL5cKD1A6t+v0q/wCHvAcVhqH9r65dPq+tNz9omHyRe0a9sev5YrrQAAABgDoKWi4WDFZfii1F74W1W3Iz5lpKo+u04rUpsiLIjIwyrAqR6g0hnBadrPk/A1b7PMemNEP94Axj9cV0HgWxOneB9GtyMMLVGYe7Dcf51zNh8J2+yJYavr97daXCx8qyg/cxkEk/Nyck5PTFehxRrDGscYCogCqB0AHQU2JDqKKKQwooooAKKKKACiiigAooooAKKKKACiiigAooooAKKKKACiiigAooooAKKKKACignFITigBaKKKACiiigAooooAKKKKACiiigAooooAKKKQtigBaKKKACiiigAooooAKKKKACiiigAooooAKKKKACkzSkUmOaAAc0tAGKKACiiigAoooJwKAEbnigLigDB5paACiiigAoopaAEpM0p6U3FACjmloAooAKKKWgBKKKQnFAA3TFAGKAPXrS0AFFFFABRS0lABSZpabigBQc0tIBS0AFFLSUAFFFKKAEooooAKKWigBKKKKACiiigApAMUtLQAlFFLQAlFFLQAlFFLQAlFFFABRRRQAUUUtACUgHNOpKACiiigAoopaAEopaSgAooooAKKKKACilpKACgcUtFACUUUUAFLSUUAFFFFABRRRQAUtJRQAUUUUAFFFFABS0lFABRRRQAUUUUAFLSUUAFFFFABRRRQAUUUUALSUUUAFFFFABRRRQAtJRRQAUtJRQAUUUUAFFFI3IxQAZApaQDH1paACiiigAooozQAUUmeaUGgAooooAKKKKACiikY8YoACRS0gGKWgAoopaAEooozQAUU3NOBoAKKKKACilpKACiikPTFAASAKWmqMCnUAFFFFABRRS0AJRRRQAhOKAO560AUtABRRRQAUUUUAFBo7V47q1zpMnxG15PEd/qcdunli3W1eXg7RnhM4HT9aaE3Y9gwaUV5Z4gWzstB8JnQ7q+NnPq8citPJJvbLYOd3OOvH+Nem3rMljcMpIZY2II7cGkFyeivH9P1/UdO+EulQ6fcOl7qF81pHO5JaJWkbkE9+g/Gr/AIh8M6N4chjFr4qm07xAqiVJ7y9c+bzgll9Dg9B2707Bc9RzRXmninXk0rx74Y1C5upJLRbKR3NsrMsu4EZVR1BOD9AKiuvFVv4i+I3hc6a96kUTTLIssbRA7kPY9elFgueoE47GkA7nrXlHirwtbaX4h8N6dbXup+RqVy0c5a7ctgYxg9up/OvRtC0O38P6eLO0luZI95fdcSmRsn3PbjpSC5pUZryvwz4bh8V6x4lm1G+1JZLfUpIozBdsmFyT06VE+sanD4D8XaVc30s9xpEywRXTORIyM4A3Hr2P4GnYXMes0V4/o8fhC5WwjluvEbXkgjDYa5CGQ4zzjGM966fSZpT8ZtfiaVzELCEhCxwPu9vxP5miw7nc0hrJ8Va0PD3hm/1HI3wxHyge8h4Ue/JFcV4HS+8OeIP7B1ieeQavYpeRtI5ys2P3qg54PX/vnNFgvqele1KK8mbV9b8HwXvg63Wa5v55FTR7gk/6uQnJJ/2cH6HPYCk8W6dD4cTwfo95fXz2MQmFy8Lv5kh+UkgLyfmPA7CiwuY9borgPBsfhttXkk0WbW3uo4GY/bDNsC5A/jGM1h+BfCMfijwodSuNU1WLUGmlVZo7twAQeCR/Oiw7nreaK5P4a67d694UWTUHMl1bTvbSSHq+3GCffBH5V1lIYhOKAMnJoxzmloAKKKKACiiigAoopaAEooooAKWkooAKKKKACiiigAPQ1y2ieHr2w8d+INWn8r7LfLEsO1ssdo5yO1dTRQByXj7w/qWuW+lvpK27zWN4txsnkKK2OnIB74qTT5PGN3cPDrFlo0No8TqXt5nZwxHy4B4xnrXU0UXFY89sPh9dy/Da20W9mjt9St52uYZEO9UfeSMnuMHt0/Ck1bSvGniHTX0y+sNCiMqeVJf+YzNt7lVxkH9PpXodFO4WOK/4Q+9g8WeF7qB45LPSbJreWRjtdjsKghffPrVvXvDt9qPjfw7qkBj+yWBlM258MMrgYHfNdVRRcLHLeJ/Dt5q/ibw1fWvl+Tp1w8k5ZsEAgYwO/Sup9KKKQzzvTtE8Y+HdQ1ltJtdIniv7x7hZJ53BXJ44A9O1PX4f38PgbW7J7mG51rV5BNcSklYy24HaDjOODzjqa9Bop3FY4ixbx7Y2VvaR6ZoRjgjSJWe6kzgADnj0FRX+h+KLDx5qGuaHb6ZOl5BHDi5mZdoUDPAHqK7yii4WOA1fw/4n8XLpdprsNhb2Ud40t0LSdiWQKNo5GcklhweODTdZ+Gy2T2F/4W3pqNpdJJ/pN07qyZ5HzE4/DqM16DRRdhY5bV/D17efELQtYhEX2OyilWbLYYEqwGB3zkflVfxnoGsahreh6posdrLLpryMY7iQoCWAA6DkcH9K7Gii4WOb0mfxdPfBNZsdIhsyjbnt5nZ844wCMda5jQdC8deHdBbSNPg0ZELuRcyTuzIWPJAx27cV6XRRcLGH4P8ADSeFPD8OnLL50gZpJpcY3u3JOPToB7CtyiikMKKKKACiiigAooooAKWkooAM0V5vH8StTmmSKHTIJZXOFRC7Mx9gKtXnjbxDp0ayXugpBGxwGctjPpkdD7Guh4Wonb9TlWMpNXT/AAO+orzT/hZ9/wD8+Fr/AN9NS/8ACz7/AP58LX/vpqf1Sr2F9eo9z0qivNP+Fn6h/wA+Fr/301H/AAs+/wD+fC1/76aj6pV7B9eo9z0uivNP+Fn3/wDz4Wv/AH01H/C0L/8A58LX/vpqPqlXsH16j3PS6K80/wCFn3//AD4Wv/fTUf8AC0L/AP58LX/vpqPqlXsH16j3PS6K80/4Wff/APPha/8AfTUv/Cz9Q/58LX/vpqPqlXsH16j3PSqK80/4Wff/APPha/8AfTUf8LPv/wDnwtf++mo+qVewfXqPc9LorzT/AIWff/8APha/99NR/wALPv8A/nwtf++mo+qVewfXqPc9LorzT/hZ9/8A8+Fr/wB9NR/ws+//AOfC1/76aj6pV7B9eo9z0uivNP8AhZ9//wA+Fr/301H/AAs+/wD+fC1/76aj6pV7B9eo9z0uivNP+Fn3/wDz4Wv/AH01L/ws+/8A+fC1/wC+mo+qVewfXqPc9KorzT/hZ9//AM+Fr/301H/Cz7//AJ8LX/vpqPqlXsH16j3PS6K80/4Wff8A/Pha/wDfTUf8LPv/APnwtf8AvpqPqlXsH16j3PS6K80/4Wff/wDPha/99NR/ws+//wCfC1/76aj6pV7B9eo9z0uivNf+Fn3/APz4Wv8A301J/wALPv8A/nwtf++mo+qVewfXqPc9LorzT/hZ9/8A8+Fr/wB9NR/ws+//AOfC1/76aj6pV7B9eo9z0uivNP8AhZ9//wA+Fr/301H/AAs+/wD+fC1/76aj6pV7B9eo9z0uivNP+Fn3/wDz4Wv/AH01L/ws+/8A+fC1/wC+mo+qVewfXqHc9KorzX/hZ+of8+Fr/wB9NSj4n3//AD4Wv/fbUfU6vYPr1HuZHhRVY6kE8z7QYowoh/1pi8wedsxzu2+nPpWuiRLZ3TSR2kFqysrC3iaNJE2uSuGxvZSIiHxkM2K4xHeGcPE7pIhyroxDA+xFSXV3c3soku7iadwMBpXLED05rvnQcp81zy4YhQhy21NLQhawW4vJGh8+GSQyGSXDInlHbsT+MsxIPXGB0qTT7LSjfmGVI5litYtqm62ec5UFzuLAbgSABkADJwSMVhYo2itHSbbdzNVUklymv9isf7Jw3lC52OzTC5yySiQL5YToV2HIbv1z2qe+tdIa2uI7GGJJ180RSC6LbikqomQxxhlYsT7ZHFYOBRgUeyd78zD2q/lR0NrBpi3dzZCOxkCRQr5txcMEdgQZXDAjpk4C4yB3ptnDpkwsjfOky+Vbw7WuGQR75ZN7DByNqhTjoN3PWsDAowKXsX/Mx+2X8qN+1tdIlmeaSGNgbRJRai62BWIbeFYnqCF4JOAx4NQ22nWY0lnuPIacuwlk+1hWt1wpQooz5hILZGDyMcVjYFGBT9k/5he2X8p09zp2iW/nyeXA7RLIYoUvS6yqJEVHLA5DFSxKg9ugrP121063RDpyqu24mhO2cyb0Uja/J4zk9OOKyMCjApRpNNNyY5VoyTSikJRS4oxW1jC4lFLijFAXEopcUYoC4lFLijFAXEopcUYoC4lFLijFAXEopcUYoC4lFLijFAXH2/km5i+07vI3fvNvXHtV1/7K+1OFE3kbUwUBznf82Mn+569847Vn4oxUuN3uUpW6Gv8A8U/5mcXZXjA5A+9znnOdvpx070Y8Phkx9rx8mQwOPvHfnBznbjGOOKyMCjFT7PzZftfJF7OmmQ5jkVBCMYLcyc57/QDtxUkUei/ZovOluxNsXzNi4BfkkgnPHIH/AAH3rNxRinyebJ5/JGutpoJiZzf3ny4+XYAxJz0GOnTJ7ds0wRaEo3faL1iGHyFB075OPx/SsvFGKXs33Y/aL+VF+4i0hLZ/s9xdyT7crvUBc56Hj0qgKMVLHGGXJz1q4qxLfM9j/9k=;clipPath=inset(19% 24.04% 39.33% 23.68%);" vertex="1" parent="1">
          <mxGeometry x="720" y="440" width="71.52" height="60" as="geometry" />
        </mxCell>
        <mxCell id="gXFku2u7cFtVppEHvoC2-59" value="Flightstats&lt;br&gt;(real-world third-party&lt;br&gt;Data Provider)" style="text;html=1;align=center;verticalAlign=middle;resizable=0;points=[];autosize=1;strokeColor=none;fillColor=none;" vertex="1" parent="1">
          <mxGeometry x="675.76" y="510" width="140" height="60" as="geometry" />
        </mxCell>
        <mxCell id="gXFku2u7cFtVppEHvoC2-62" value="Fetching &lt;br&gt;data" style="text;html=1;align=center;verticalAlign=middle;resizable=0;points=[];autosize=1;strokeColor=none;fillColor=none;" vertex="1" parent="1">
          <mxGeometry x="620" y="482.5" width="70" height="40" as="geometry" />
        </mxCell>
        <mxCell id="gXFku2u7cFtVppEHvoC2-69" style="edgeStyle=orthogonalEdgeStyle;rounded=0;orthogonalLoop=1;jettySize=auto;html=1;exitX=0;exitY=0.5;exitDx=0;exitDy=0;entryX=1;entryY=0.5;entryDx=0;entryDy=0;" edge="1" parent="1" source="gXFku2u7cFtVppEHvoC2-64" target="gXFku2u7cFtVppEHvoC2-68">
          <mxGeometry relative="1" as="geometry" />
        </mxCell>
        <mxCell id="gXFku2u7cFtVppEHvoC2-71" style="edgeStyle=orthogonalEdgeStyle;rounded=0;orthogonalLoop=1;jettySize=auto;html=1;exitX=0.5;exitY=1;exitDx=0;exitDy=0;entryX=0.5;entryY=0;entryDx=0;entryDy=0;" edge="1" parent="1" source="gXFku2u7cFtVppEHvoC2-64" target="gXFku2u7cFtVppEHvoC2-67">
          <mxGeometry relative="1" as="geometry" />
        </mxCell>
        <mxCell id="gXFku2u7cFtVppEHvoC2-64" value="Delayed" style="rounded=0;whiteSpace=wrap;html=1;" vertex="1" parent="1">
          <mxGeometry x="527.66" y="575" width="60" height="20" as="geometry" />
        </mxCell>
        <mxCell id="gXFku2u7cFtVppEHvoC2-72" style="edgeStyle=orthogonalEdgeStyle;rounded=0;orthogonalLoop=1;jettySize=auto;html=1;entryX=0;entryY=0.5;entryDx=0;entryDy=0;exitX=0.5;exitY=1;exitDx=0;exitDy=0;" edge="1" parent="1" source="gXFku2u7cFtVppEHvoC2-67" target="gXFku2u7cFtVppEHvoC2-3">
          <mxGeometry relative="1" as="geometry">
            <mxPoint x="800" y="770" as="sourcePoint" />
            <mxPoint x="-40" y="364.38" as="targetPoint" />
            <Array as="points">
              <mxPoint x="558" y="766" />
              <mxPoint x="-60" y="766" />
              <mxPoint x="-60" y="250" />
            </Array>
          </mxGeometry>
        </mxCell>
        <mxCell id="gXFku2u7cFtVppEHvoC2-67" value="Yes" style="ellipse;whiteSpace=wrap;html=1;aspect=fixed;" vertex="1" parent="1">
          <mxGeometry x="542.66" y="670" width="30" height="30" as="geometry" />
        </mxCell>
        <mxCell id="gXFku2u7cFtVppEHvoC2-81" style="edgeStyle=orthogonalEdgeStyle;rounded=0;orthogonalLoop=1;jettySize=auto;html=1;exitX=0;exitY=0.5;exitDx=0;exitDy=0;entryX=0.75;entryY=1;entryDx=0;entryDy=0;" edge="1" parent="1" source="gXFku2u7cFtVppEHvoC2-68" target="gXFku2u7cFtVppEHvoC2-4">
          <mxGeometry relative="1" as="geometry" />
        </mxCell>
        <mxCell id="gXFku2u7cFtVppEHvoC2-68" value="No" style="ellipse;whiteSpace=wrap;html=1;aspect=fixed;" vertex="1" parent="1">
          <mxGeometry x="450" y="570" width="30" height="30" as="geometry" />
        </mxCell>
        <mxCell id="gXFku2u7cFtVppEHvoC2-74" value="Insurance payout" style="text;html=1;align=center;verticalAlign=middle;resizable=0;points=[];autosize=1;strokeColor=none;fillColor=none;" vertex="1" parent="1">
          <mxGeometry x="360" y="770" width="120" height="30" as="geometry" />
        </mxCell>
        <mxCell id="gXFku2u7cFtVppEHvoC2-75" value="Decline" style="text;html=1;align=center;verticalAlign=middle;resizable=0;points=[];autosize=1;strokeColor=none;fillColor=none;" vertex="1" parent="1">
          <mxGeometry x="438.52" y="595" width="60" height="30" as="geometry" />
        </mxCell>
        <mxCell id="gXFku2u7cFtVppEHvoC2-76" value="" style="endArrow=classic;startArrow=classic;html=1;rounded=0;entryX=0;entryY=0.5;entryDx=0;entryDy=0;exitX=1;exitY=0.5;exitDx=0;exitDy=0;" edge="1" parent="1" source="gXFku2u7cFtVppEHvoC2-4" target="gXFku2u7cFtVppEHvoC2-47">
          <mxGeometry width="50" height="50" relative="1" as="geometry">
            <mxPoint x="438.52" y="475" as="sourcePoint" />
            <mxPoint x="488.52" y="425" as="targetPoint" />
          </mxGeometry>
        </mxCell>
        <mxCell id="gXFku2u7cFtVppEHvoC2-87" value="Policy &lt;br&gt;bought" style="text;html=1;align=center;verticalAlign=middle;resizable=0;points=[];autosize=1;strokeColor=none;fillColor=none;" vertex="1" parent="1">
          <mxGeometry x="10" y="590" width="60" height="40" as="geometry" />
        </mxCell>
        <mxCell id="gXFku2u7cFtVppEHvoC2-88" value="" style="endArrow=classic;startArrow=classic;html=1;rounded=0;entryX=-0.085;entryY=0.583;entryDx=0;entryDy=0;entryPerimeter=0;" edge="1" parent="1" target="gXFku2u7cFtVppEHvoC2-58">
          <mxGeometry width="50" height="50" relative="1" as="geometry">
            <mxPoint x="587.66" y="475" as="sourcePoint" />
            <mxPoint x="670" y="475" as="targetPoint" />
          </mxGeometry>
        </mxCell>
        <mxCell id="gXFku2u7cFtVppEHvoC2-98" value="(Document verification)" style="text;html=1;align=center;verticalAlign=middle;resizable=0;points=[];autosize=1;strokeColor=none;fillColor=none;" vertex="1" parent="1">
          <mxGeometry x="235" y="710" width="150" height="30" as="geometry" />
        </mxCell>
        <mxCell id="gXFku2u7cFtVppEHvoC2-103" value="" style="endArrow=classic;html=1;rounded=0;entryX=0.5;entryY=0;entryDx=0;entryDy=0;" edge="1" parent="1" target="gXFku2u7cFtVppEHvoC2-28">
          <mxGeometry width="50" height="50" relative="1" as="geometry">
            <mxPoint x="185" y="370" as="sourcePoint" />
            <mxPoint x="150" y="375" as="targetPoint" />
          </mxGeometry>
        </mxCell>
        <mxCell id="gXFku2u7cFtVppEHvoC2-104" value="" style="endArrow=classic;html=1;rounded=0;" edge="1" parent="1">
          <mxGeometry width="50" height="50" relative="1" as="geometry">
            <mxPoint x="184.05" y="255" as="sourcePoint" />
            <mxPoint x="184.05" y="305" as="targetPoint" />
          </mxGeometry>
        </mxCell>
        <mxCell id="gXFku2u7cFtVppEHvoC2-107" value="Response" style="text;html=1;align=center;verticalAlign=middle;resizable=0;points=[];autosize=1;strokeColor=none;fillColor=none;" vertex="1" parent="1">
          <mxGeometry x="245" y="492.5" width="80" height="30" as="geometry" />
        </mxCell>
        <mxCell id="gXFku2u7cFtVppEHvoC2-108" value="Insurance &lt;br&gt;claim&lt;br&gt;(Flight ID)" style="text;html=1;align=center;verticalAlign=middle;resizable=0;points=[];autosize=1;strokeColor=none;fillColor=none;" vertex="1" parent="1">
          <mxGeometry x="-50" y="343.76" width="80" height="60" as="geometry" />
        </mxCell>
        <mxCell id="gXFku2u7cFtVppEHvoC2-112" value="" style="endArrow=classic;html=1;rounded=0;exitX=0;exitY=0.75;exitDx=0;exitDy=0;" edge="1" parent="1" source="gXFku2u7cFtVppEHvoC2-3">
          <mxGeometry width="50" height="50" relative="1" as="geometry">
            <mxPoint x="340" y="490" as="sourcePoint" />
            <mxPoint x="140" y="470" as="targetPoint" />
            <Array as="points">
              <mxPoint x="20" y="470" />
            </Array>
          </mxGeometry>
        </mxCell>
      </root>
    </mxGraphModel>
  </diagram>
</mxfile>
